<?xml version="1.0" encoding="utf-8" standalone="no"?>
<!DOCTYPE svg PUBLIC "-//W3C//DTD SVG 1.1//EN"
  "http://www.w3.org/Graphics/SVG/1.1/DTD/svg11.dtd">
<svg xmlns:xlink="http://www.w3.org/1999/xlink" width="713.453188pt" height="285.409187pt" viewBox="0 0 713.453188 285.409187" xmlns="http://www.w3.org/2000/svg" version="1.1">
 <metadata>
  <rdf:RDF xmlns:dc="http://purl.org/dc/elements/1.1/" xmlns:cc="http://creativecommons.org/ns#" xmlns:rdf="http://www.w3.org/1999/02/22-rdf-syntax-ns#">
   <cc:Work>
    <dc:type rdf:resource="http://purl.org/dc/dcmitype/StillImage"/>
    <dc:date>2024-07-21T16:33:07.986997</dc:date>
    <dc:format>image/svg+xml</dc:format>
    <dc:creator>
     <cc:Agent>
      <dc:title>Matplotlib v3.6.2, https://matplotlib.org/</dc:title>
     </cc:Agent>
    </dc:creator>
   </cc:Work>
  </rdf:RDF>
 </metadata>
 <defs>
  <style type="text/css">*{stroke-linejoin: round; stroke-linecap: butt}</style>
 </defs>
 <g id="figure_1">
  <g id="patch_1">
   <path d="M 0 285.409187 
L 713.453188 285.409187 
L 713.453188 0 
L 0 0 
z
" style="fill: #ffffff; stroke: #ffffff; stroke-linejoin: miter"/>
  </g>
  <g id="axes_1">
   <g id="patch_2">
    <path d="M 75.582188 228.96 
L 521.982188 228.96 
L 521.982188 7.2 
L 75.582188 7.2 
z
" style="fill: #ffffff; stroke: #7f7f7f; stroke-linejoin: miter"/>
   </g>
   <g id="matplotlib.axis_1">
    <g id="xtick_1">
     <g id="line2d_1">
      <path d="M 164.780428 228.96 
L 164.780428 7.2 
" clip-path="url(#p7d5796c763)" style="fill: none; stroke: #e5e5e5; stroke-width: 0.8"/>
     </g>
     <g id="line2d_2">
      <path d="M 164.780428 228.96 
" style="fill: none; stroke: #000000; stroke-width: 1.5"/>
      <defs>
       <path id="m670b539245" d="M 0 0 
L 0 4.75 
" style="stroke: #333333"/>
      </defs>
      <g>
       <use xlink:href="#m670b539245" x="164.780428" y="228.96" style="stroke: #333333"/>
      </g>
     </g>
     <g id="text_1">
      <!-- 0.2 -->
      <g style="fill: #4d4d4d" transform="translate(152.694053 249.059625) scale(0.152 -0.152)">
       <defs>
        <path id="DejaVuSans-30" d="M 2034 4250 
Q 1547 4250 1301 3770 
Q 1056 3291 1056 2328 
Q 1056 1369 1301 889 
Q 1547 409 2034 409 
Q 2525 409 2770 889 
Q 3016 1369 3016 2328 
Q 3016 3291 2770 3770 
Q 2525 4250 2034 4250 
z
M 2034 4750 
Q 2819 4750 3233 4129 
Q 3647 3509 3647 2328 
Q 3647 1150 3233 529 
Q 2819 -91 2034 -91 
Q 1250 -91 836 529 
Q 422 1150 422 2328 
Q 422 3509 836 4129 
Q 1250 4750 2034 4750 
z
" transform="scale(0.015625)"/>
        <path id="DejaVuSans-2e" d="M 684 794 
L 1344 794 
L 1344 0 
L 684 0 
L 684 794 
z
" transform="scale(0.015625)"/>
        <path id="DejaVuSans-32" d="M 1228 531 
L 3431 531 
L 3431 0 
L 469 0 
L 469 531 
Q 828 903 1448 1529 
Q 2069 2156 2228 2338 
Q 2531 2678 2651 2914 
Q 2772 3150 2772 3378 
Q 2772 3750 2511 3984 
Q 2250 4219 1831 4219 
Q 1534 4219 1204 4116 
Q 875 4013 500 3803 
L 500 4441 
Q 881 4594 1212 4672 
Q 1544 4750 1819 4750 
Q 2544 4750 2975 4387 
Q 3406 4025 3406 3419 
Q 3406 3131 3298 2873 
Q 3191 2616 2906 2266 
Q 2828 2175 2409 1742 
Q 1991 1309 1228 531 
z
" transform="scale(0.015625)"/>
       </defs>
       <use xlink:href="#DejaVuSans-30"/>
       <use xlink:href="#DejaVuSans-2e" x="63.623047"/>
       <use xlink:href="#DejaVuSans-32" x="95.410156"/>
      </g>
     </g>
    </g>
    <g id="xtick_2">
     <g id="line2d_3">
      <path d="M 284.577405 228.96 
L 284.577405 7.2 
" clip-path="url(#p7d5796c763)" style="fill: none; stroke: #e5e5e5; stroke-width: 0.8"/>
     </g>
     <g id="line2d_4">
      <path d="M 284.577405 228.96 
" style="fill: none; stroke: #000000; stroke-width: 1.5"/>
      <g>
       <use xlink:href="#m670b539245" x="284.577405" y="228.96" style="stroke: #333333"/>
      </g>
     </g>
     <g id="text_2">
      <!-- 0.4 -->
      <g style="fill: #4d4d4d" transform="translate(272.49103 249.059625) scale(0.152 -0.152)">
       <defs>
        <path id="DejaVuSans-34" d="M 2419 4116 
L 825 1625 
L 2419 1625 
L 2419 4116 
z
M 2253 4666 
L 3047 4666 
L 3047 1625 
L 3713 1625 
L 3713 1100 
L 3047 1100 
L 3047 0 
L 2419 0 
L 2419 1100 
L 313 1100 
L 313 1709 
L 2253 4666 
z
" transform="scale(0.015625)"/>
       </defs>
       <use xlink:href="#DejaVuSans-30"/>
       <use xlink:href="#DejaVuSans-2e" x="63.623047"/>
       <use xlink:href="#DejaVuSans-34" x="95.410156"/>
      </g>
     </g>
    </g>
    <g id="xtick_3">
     <g id="line2d_5">
      <path d="M 404.374382 228.96 
L 404.374382 7.2 
" clip-path="url(#p7d5796c763)" style="fill: none; stroke: #e5e5e5; stroke-width: 0.8"/>
     </g>
     <g id="line2d_6">
      <path d="M 404.374382 228.96 
" style="fill: none; stroke: #000000; stroke-width: 1.5"/>
      <g>
       <use xlink:href="#m670b539245" x="404.374382" y="228.96" style="stroke: #333333"/>
      </g>
     </g>
     <g id="text_3">
      <!-- 0.6 -->
      <g style="fill: #4d4d4d" transform="translate(392.288007 249.059625) scale(0.152 -0.152)">
       <defs>
        <path id="DejaVuSans-36" d="M 2113 2584 
Q 1688 2584 1439 2293 
Q 1191 2003 1191 1497 
Q 1191 994 1439 701 
Q 1688 409 2113 409 
Q 2538 409 2786 701 
Q 3034 994 3034 1497 
Q 3034 2003 2786 2293 
Q 2538 2584 2113 2584 
z
M 3366 4563 
L 3366 3988 
Q 3128 4100 2886 4159 
Q 2644 4219 2406 4219 
Q 1781 4219 1451 3797 
Q 1122 3375 1075 2522 
Q 1259 2794 1537 2939 
Q 1816 3084 2150 3084 
Q 2853 3084 3261 2657 
Q 3669 2231 3669 1497 
Q 3669 778 3244 343 
Q 2819 -91 2113 -91 
Q 1303 -91 875 529 
Q 447 1150 447 2328 
Q 447 3434 972 4092 
Q 1497 4750 2381 4750 
Q 2619 4750 2861 4703 
Q 3103 4656 3366 4563 
z
" transform="scale(0.015625)"/>
       </defs>
       <use xlink:href="#DejaVuSans-30"/>
       <use xlink:href="#DejaVuSans-2e" x="63.623047"/>
       <use xlink:href="#DejaVuSans-36" x="95.410156"/>
      </g>
     </g>
    </g>
    <g id="xtick_4">
     <g id="line2d_7">
      <path d="M 104.881939 228.96 
L 104.881939 7.2 
" clip-path="url(#p7d5796c763)" style="fill: none; stroke: #fafafa"/>
     </g>
    </g>
    <g id="xtick_5">
     <g id="line2d_8">
      <path d="M 224.678916 228.96 
L 224.678916 7.2 
" clip-path="url(#p7d5796c763)" style="fill: none; stroke: #fafafa"/>
     </g>
    </g>
    <g id="xtick_6">
     <g id="line2d_9">
      <path d="M 344.475894 228.96 
L 344.475894 7.2 
" clip-path="url(#p7d5796c763)" style="fill: none; stroke: #fafafa"/>
     </g>
    </g>
    <g id="xtick_7">
     <g id="line2d_10">
      <path d="M 464.272871 228.96 
L 464.272871 7.2 
" clip-path="url(#p7d5796c763)" style="fill: none; stroke: #fafafa"/>
     </g>
    </g>
    <g id="text_4">
     <!-- relative group size -->
     <g transform="translate(203.707188 274.257781) scale(0.19 -0.19)">
      <defs>
       <path id="DejaVuSans-72" d="M 2631 2963 
Q 2534 3019 2420 3045 
Q 2306 3072 2169 3072 
Q 1681 3072 1420 2755 
Q 1159 2438 1159 1844 
L 1159 0 
L 581 0 
L 581 3500 
L 1159 3500 
L 1159 2956 
Q 1341 3275 1631 3429 
Q 1922 3584 2338 3584 
Q 2397 3584 2469 3576 
Q 2541 3569 2628 3553 
L 2631 2963 
z
" transform="scale(0.015625)"/>
       <path id="DejaVuSans-65" d="M 3597 1894 
L 3597 1613 
L 953 1613 
Q 991 1019 1311 708 
Q 1631 397 2203 397 
Q 2534 397 2845 478 
Q 3156 559 3463 722 
L 3463 178 
Q 3153 47 2828 -22 
Q 2503 -91 2169 -91 
Q 1331 -91 842 396 
Q 353 884 353 1716 
Q 353 2575 817 3079 
Q 1281 3584 2069 3584 
Q 2775 3584 3186 3129 
Q 3597 2675 3597 1894 
z
M 3022 2063 
Q 3016 2534 2758 2815 
Q 2500 3097 2075 3097 
Q 1594 3097 1305 2825 
Q 1016 2553 972 2059 
L 3022 2063 
z
" transform="scale(0.015625)"/>
       <path id="DejaVuSans-6c" d="M 603 4863 
L 1178 4863 
L 1178 0 
L 603 0 
L 603 4863 
z
" transform="scale(0.015625)"/>
       <path id="DejaVuSans-61" d="M 2194 1759 
Q 1497 1759 1228 1600 
Q 959 1441 959 1056 
Q 959 750 1161 570 
Q 1363 391 1709 391 
Q 2188 391 2477 730 
Q 2766 1069 2766 1631 
L 2766 1759 
L 2194 1759 
z
M 3341 1997 
L 3341 0 
L 2766 0 
L 2766 531 
Q 2569 213 2275 61 
Q 1981 -91 1556 -91 
Q 1019 -91 701 211 
Q 384 513 384 1019 
Q 384 1609 779 1909 
Q 1175 2209 1959 2209 
L 2766 2209 
L 2766 2266 
Q 2766 2663 2505 2880 
Q 2244 3097 1772 3097 
Q 1472 3097 1187 3025 
Q 903 2953 641 2809 
L 641 3341 
Q 956 3463 1253 3523 
Q 1550 3584 1831 3584 
Q 2591 3584 2966 3190 
Q 3341 2797 3341 1997 
z
" transform="scale(0.015625)"/>
       <path id="DejaVuSans-74" d="M 1172 4494 
L 1172 3500 
L 2356 3500 
L 2356 3053 
L 1172 3053 
L 1172 1153 
Q 1172 725 1289 603 
Q 1406 481 1766 481 
L 2356 481 
L 2356 0 
L 1766 0 
Q 1100 0 847 248 
Q 594 497 594 1153 
L 594 3053 
L 172 3053 
L 172 3500 
L 594 3500 
L 594 4494 
L 1172 4494 
z
" transform="scale(0.015625)"/>
       <path id="DejaVuSans-69" d="M 603 3500 
L 1178 3500 
L 1178 0 
L 603 0 
L 603 3500 
z
M 603 4863 
L 1178 4863 
L 1178 4134 
L 603 4134 
L 603 4863 
z
" transform="scale(0.015625)"/>
       <path id="DejaVuSans-76" d="M 191 3500 
L 800 3500 
L 1894 563 
L 2988 3500 
L 3597 3500 
L 2284 0 
L 1503 0 
L 191 3500 
z
" transform="scale(0.015625)"/>
       <path id="DejaVuSans-20" transform="scale(0.015625)"/>
       <path id="DejaVuSans-67" d="M 2906 1791 
Q 2906 2416 2648 2759 
Q 2391 3103 1925 3103 
Q 1463 3103 1205 2759 
Q 947 2416 947 1791 
Q 947 1169 1205 825 
Q 1463 481 1925 481 
Q 2391 481 2648 825 
Q 2906 1169 2906 1791 
z
M 3481 434 
Q 3481 -459 3084 -895 
Q 2688 -1331 1869 -1331 
Q 1566 -1331 1297 -1286 
Q 1028 -1241 775 -1147 
L 775 -588 
Q 1028 -725 1275 -790 
Q 1522 -856 1778 -856 
Q 2344 -856 2625 -561 
Q 2906 -266 2906 331 
L 2906 616 
Q 2728 306 2450 153 
Q 2172 0 1784 0 
Q 1141 0 747 490 
Q 353 981 353 1791 
Q 353 2603 747 3093 
Q 1141 3584 1784 3584 
Q 2172 3584 2450 3431 
Q 2728 3278 2906 2969 
L 2906 3500 
L 3481 3500 
L 3481 434 
z
" transform="scale(0.015625)"/>
       <path id="DejaVuSans-6f" d="M 1959 3097 
Q 1497 3097 1228 2736 
Q 959 2375 959 1747 
Q 959 1119 1226 758 
Q 1494 397 1959 397 
Q 2419 397 2687 759 
Q 2956 1122 2956 1747 
Q 2956 2369 2687 2733 
Q 2419 3097 1959 3097 
z
M 1959 3584 
Q 2709 3584 3137 3096 
Q 3566 2609 3566 1747 
Q 3566 888 3137 398 
Q 2709 -91 1959 -91 
Q 1206 -91 779 398 
Q 353 888 353 1747 
Q 353 2609 779 3096 
Q 1206 3584 1959 3584 
z
" transform="scale(0.015625)"/>
       <path id="DejaVuSans-75" d="M 544 1381 
L 544 3500 
L 1119 3500 
L 1119 1403 
Q 1119 906 1312 657 
Q 1506 409 1894 409 
Q 2359 409 2629 706 
Q 2900 1003 2900 1516 
L 2900 3500 
L 3475 3500 
L 3475 0 
L 2900 0 
L 2900 538 
Q 2691 219 2414 64 
Q 2138 -91 1772 -91 
Q 1169 -91 856 284 
Q 544 659 544 1381 
z
M 1991 3584 
L 1991 3584 
z
" transform="scale(0.015625)"/>
       <path id="DejaVuSans-70" d="M 1159 525 
L 1159 -1331 
L 581 -1331 
L 581 3500 
L 1159 3500 
L 1159 2969 
Q 1341 3281 1617 3432 
Q 1894 3584 2278 3584 
Q 2916 3584 3314 3078 
Q 3713 2572 3713 1747 
Q 3713 922 3314 415 
Q 2916 -91 2278 -91 
Q 1894 -91 1617 61 
Q 1341 213 1159 525 
z
M 3116 1747 
Q 3116 2381 2855 2742 
Q 2594 3103 2138 3103 
Q 1681 3103 1420 2742 
Q 1159 2381 1159 1747 
Q 1159 1113 1420 752 
Q 1681 391 2138 391 
Q 2594 391 2855 752 
Q 3116 1113 3116 1747 
z
" transform="scale(0.015625)"/>
       <path id="DejaVuSans-73" d="M 2834 3397 
L 2834 2853 
Q 2591 2978 2328 3040 
Q 2066 3103 1784 3103 
Q 1356 3103 1142 2972 
Q 928 2841 928 2578 
Q 928 2378 1081 2264 
Q 1234 2150 1697 2047 
L 1894 2003 
Q 2506 1872 2764 1633 
Q 3022 1394 3022 966 
Q 3022 478 2636 193 
Q 2250 -91 1575 -91 
Q 1294 -91 989 -36 
Q 684 19 347 128 
L 347 722 
Q 666 556 975 473 
Q 1284 391 1588 391 
Q 1994 391 2212 530 
Q 2431 669 2431 922 
Q 2431 1156 2273 1281 
Q 2116 1406 1581 1522 
L 1381 1569 
Q 847 1681 609 1914 
Q 372 2147 372 2553 
Q 372 3047 722 3315 
Q 1072 3584 1716 3584 
Q 2034 3584 2315 3537 
Q 2597 3491 2834 3397 
z
" transform="scale(0.015625)"/>
       <path id="DejaVuSans-7a" d="M 353 3500 
L 3084 3500 
L 3084 2975 
L 922 459 
L 3084 459 
L 3084 0 
L 275 0 
L 275 525 
L 2438 3041 
L 353 3041 
L 353 3500 
z
" transform="scale(0.015625)"/>
      </defs>
      <use xlink:href="#DejaVuSans-72"/>
      <use xlink:href="#DejaVuSans-65" x="38.863281"/>
      <use xlink:href="#DejaVuSans-6c" x="100.386719"/>
      <use xlink:href="#DejaVuSans-61" x="128.169922"/>
      <use xlink:href="#DejaVuSans-74" x="189.449219"/>
      <use xlink:href="#DejaVuSans-69" x="228.658203"/>
      <use xlink:href="#DejaVuSans-76" x="256.441406"/>
      <use xlink:href="#DejaVuSans-65" x="315.621094"/>
      <use xlink:href="#DejaVuSans-20" x="377.144531"/>
      <use xlink:href="#DejaVuSans-67" x="408.931641"/>
      <use xlink:href="#DejaVuSans-72" x="472.408203"/>
      <use xlink:href="#DejaVuSans-6f" x="511.271484"/>
      <use xlink:href="#DejaVuSans-75" x="572.453125"/>
      <use xlink:href="#DejaVuSans-70" x="635.832031"/>
      <use xlink:href="#DejaVuSans-20" x="699.308594"/>
      <use xlink:href="#DejaVuSans-73" x="731.095703"/>
      <use xlink:href="#DejaVuSans-69" x="783.195312"/>
      <use xlink:href="#DejaVuSans-7a" x="810.978516"/>
      <use xlink:href="#DejaVuSans-65" x="863.46875"/>
     </g>
    </g>
   </g>
   <g id="matplotlib.axis_2">
    <g id="ytick_1">
     <g id="line2d_11">
      <path d="M 75.582188 224.102798 
L 521.982188 224.102798 
" clip-path="url(#p7d5796c763)" style="fill: none; stroke: #e5e5e5; stroke-width: 0.8"/>
     </g>
     <g id="line2d_12">
      <path d="M 75.582188 224.102798 
" style="fill: none; stroke: #000000; stroke-width: 1.5"/>
      <defs>
       <path id="m9422a1e208" d="M 0 0 
L -4.75 0 
" style="stroke: #333333"/>
      </defs>
      <g>
       <use xlink:href="#m9422a1e208" x="75.582188" y="224.102798" style="stroke: #333333"/>
      </g>
     </g>
     <g id="text_5">
      <!-- 0 -->
      <g style="fill: #4d4d4d" transform="translate(57.361188 228.297048) scale(0.152 -0.152)">
       <use xlink:href="#DejaVuSans-30"/>
      </g>
     </g>
    </g>
    <g id="ytick_2">
     <g id="line2d_13">
      <path d="M 75.582188 171.874819 
L 521.982188 171.874819 
" clip-path="url(#p7d5796c763)" style="fill: none; stroke: #e5e5e5; stroke-width: 0.8"/>
     </g>
     <g id="line2d_14">
      <path d="M 75.582188 171.874819 
" style="fill: none; stroke: #000000; stroke-width: 1.5"/>
      <g>
       <use xlink:href="#m9422a1e208" x="75.582188" y="171.874819" style="stroke: #333333"/>
      </g>
     </g>
     <g id="text_6">
      <!-- 0.25 -->
      <g style="fill: #4d4d4d" transform="translate(33.188438 176.069069) scale(0.152 -0.152)">
       <defs>
        <path id="DejaVuSans-35" d="M 691 4666 
L 3169 4666 
L 3169 4134 
L 1269 4134 
L 1269 2991 
Q 1406 3038 1543 3061 
Q 1681 3084 1819 3084 
Q 2600 3084 3056 2656 
Q 3513 2228 3513 1497 
Q 3513 744 3044 326 
Q 2575 -91 1722 -91 
Q 1428 -91 1123 -41 
Q 819 9 494 109 
L 494 744 
Q 775 591 1075 516 
Q 1375 441 1709 441 
Q 2250 441 2565 725 
Q 2881 1009 2881 1497 
Q 2881 1984 2565 2268 
Q 2250 2553 1709 2553 
Q 1456 2553 1204 2497 
Q 953 2441 691 2322 
L 691 4666 
z
" transform="scale(0.015625)"/>
       </defs>
       <use xlink:href="#DejaVuSans-30"/>
       <use xlink:href="#DejaVuSans-2e" x="63.623047"/>
       <use xlink:href="#DejaVuSans-32" x="95.410156"/>
       <use xlink:href="#DejaVuSans-35" x="159.033203"/>
      </g>
     </g>
    </g>
    <g id="ytick_3">
     <g id="line2d_15">
      <path d="M 75.582188 119.646839 
L 521.982188 119.646839 
" clip-path="url(#p7d5796c763)" style="fill: none; stroke: #e5e5e5; stroke-width: 0.8"/>
     </g>
     <g id="line2d_16">
      <path d="M 75.582188 119.646839 
" style="fill: none; stroke: #000000; stroke-width: 1.5"/>
      <g>
       <use xlink:href="#m9422a1e208" x="75.582188" y="119.646839" style="stroke: #333333"/>
      </g>
     </g>
     <g id="text_7">
      <!-- 0.50 -->
      <g style="fill: #4d4d4d" transform="translate(33.188438 123.841089) scale(0.152 -0.152)">
       <use xlink:href="#DejaVuSans-30"/>
       <use xlink:href="#DejaVuSans-2e" x="63.623047"/>
       <use xlink:href="#DejaVuSans-35" x="95.410156"/>
       <use xlink:href="#DejaVuSans-30" x="159.033203"/>
      </g>
     </g>
    </g>
    <g id="ytick_4">
     <g id="line2d_17">
      <path d="M 75.582188 67.41886 
L 521.982188 67.41886 
" clip-path="url(#p7d5796c763)" style="fill: none; stroke: #e5e5e5; stroke-width: 0.8"/>
     </g>
     <g id="line2d_18">
      <path d="M 75.582188 67.41886 
" style="fill: none; stroke: #000000; stroke-width: 1.5"/>
      <g>
       <use xlink:href="#m9422a1e208" x="75.582188" y="67.41886" style="stroke: #333333"/>
      </g>
     </g>
     <g id="text_8">
      <!-- 0.75 -->
      <g style="fill: #4d4d4d" transform="translate(33.188438 71.61311) scale(0.152 -0.152)">
       <defs>
        <path id="DejaVuSans-37" d="M 525 4666 
L 3525 4666 
L 3525 4397 
L 1831 0 
L 1172 0 
L 2766 4134 
L 525 4134 
L 525 4666 
z
" transform="scale(0.015625)"/>
       </defs>
       <use xlink:href="#DejaVuSans-30"/>
       <use xlink:href="#DejaVuSans-2e" x="63.623047"/>
       <use xlink:href="#DejaVuSans-37" x="95.410156"/>
       <use xlink:href="#DejaVuSans-35" x="159.033203"/>
      </g>
     </g>
    </g>
    <g id="ytick_5">
     <g id="line2d_19">
      <path d="M 75.582188 15.190881 
L 521.982188 15.190881 
" clip-path="url(#p7d5796c763)" style="fill: none; stroke: #e5e5e5; stroke-width: 0.8"/>
     </g>
     <g id="line2d_20">
      <path d="M 75.582188 15.190881 
" style="fill: none; stroke: #000000; stroke-width: 1.5"/>
      <g>
       <use xlink:href="#m9422a1e208" x="75.582188" y="15.190881" style="stroke: #333333"/>
      </g>
     </g>
     <g id="text_9">
      <!-- 1 -->
      <g style="fill: #4d4d4d" transform="translate(57.361188 19.385131) scale(0.152 -0.152)">
       <defs>
        <path id="DejaVuSans-31" d="M 794 531 
L 1825 531 
L 1825 4091 
L 703 3866 
L 703 4441 
L 1819 4666 
L 2450 4666 
L 2450 531 
L 3481 531 
L 3481 0 
L 794 0 
L 794 531 
z
" transform="scale(0.015625)"/>
       </defs>
       <use xlink:href="#DejaVuSans-31"/>
      </g>
     </g>
    </g>
    <g id="ytick_6">
     <g id="line2d_21">
      <path d="M 75.582188 197.988808 
L 521.982188 197.988808 
" clip-path="url(#p7d5796c763)" style="fill: none; stroke: #fafafa"/>
     </g>
    </g>
    <g id="ytick_7">
     <g id="line2d_22">
      <path d="M 75.582188 145.760829 
L 521.982188 145.760829 
" clip-path="url(#p7d5796c763)" style="fill: none; stroke: #fafafa"/>
     </g>
    </g>
    <g id="ytick_8">
     <g id="line2d_23">
      <path d="M 75.582188 93.53285 
L 521.982188 93.53285 
" clip-path="url(#p7d5796c763)" style="fill: none; stroke: #fafafa"/>
     </g>
    </g>
    <g id="ytick_9">
     <g id="line2d_24">
      <path d="M 75.582188 41.30487 
L 521.982188 41.30487 
" clip-path="url(#p7d5796c763)" style="fill: none; stroke: #fafafa"/>
     </g>
    </g>
    <g id="text_10">
     <!-- F1 score -->
     <g transform="translate(21.637031 156.689922) rotate(-90) scale(0.19 -0.19)">
      <defs>
       <path id="DejaVuSans-46" d="M 628 4666 
L 3309 4666 
L 3309 4134 
L 1259 4134 
L 1259 2759 
L 3109 2759 
L 3109 2228 
L 1259 2228 
L 1259 0 
L 628 0 
L 628 4666 
z
" transform="scale(0.015625)"/>
       <path id="DejaVuSans-63" d="M 3122 3366 
L 3122 2828 
Q 2878 2963 2633 3030 
Q 2388 3097 2138 3097 
Q 1578 3097 1268 2742 
Q 959 2388 959 1747 
Q 959 1106 1268 751 
Q 1578 397 2138 397 
Q 2388 397 2633 464 
Q 2878 531 3122 666 
L 3122 134 
Q 2881 22 2623 -34 
Q 2366 -91 2075 -91 
Q 1284 -91 818 406 
Q 353 903 353 1747 
Q 353 2603 823 3093 
Q 1294 3584 2113 3584 
Q 2378 3584 2631 3529 
Q 2884 3475 3122 3366 
z
" transform="scale(0.015625)"/>
      </defs>
      <use xlink:href="#DejaVuSans-46"/>
      <use xlink:href="#DejaVuSans-31" x="57.519531"/>
      <use xlink:href="#DejaVuSans-20" x="121.142578"/>
      <use xlink:href="#DejaVuSans-73" x="152.929688"/>
      <use xlink:href="#DejaVuSans-63" x="205.029297"/>
      <use xlink:href="#DejaVuSans-6f" x="260.009766"/>
      <use xlink:href="#DejaVuSans-72" x="321.191406"/>
      <use xlink:href="#DejaVuSans-65" x="360.054688"/>
     </g>
    </g>
   </g>
   <g id="PathCollection_1">
    <path d="M 160.283257 26.003505 
C 161.575923 26.003505 162.815818 25.489924 163.729871 24.575871 
C 164.643924 23.661819 165.157505 22.421923 165.157505 21.129257 
C 165.157505 19.836592 164.643924 18.596696 163.729871 17.682643 
C 162.815818 16.768591 161.575923 16.255009 160.283257 16.255009 
C 158.990591 16.255009 157.750696 16.768591 156.836643 17.682643 
C 155.92259 18.596696 155.409009 19.836592 155.409009 21.129257 
C 155.409009 22.421923 155.92259 23.661819 156.836643 24.575871 
C 157.750696 25.489924 158.990591 26.003505 160.283257 26.003505 
z
" clip-path="url(#p7d5796c763)" style="fill: #fc8d59; stroke: #000000; stroke-width: 0.886227"/>
    <path d="M 160.283257 27.806316 
C 161.575923 27.806316 162.815818 27.292734 163.729871 26.378682 
C 164.643924 25.464629 165.157505 24.224733 165.157505 22.932068 
C 165.157505 21.639402 164.643924 20.399507 163.729871 19.485454 
C 162.815818 18.571401 161.575923 18.05782 160.283257 18.05782 
C 158.990591 18.05782 157.750696 18.571401 156.836643 19.485454 
C 155.92259 20.399507 155.409009 21.639402 155.409009 22.932068 
C 155.409009 24.224733 155.92259 25.464629 156.836643 26.378682 
C 157.750696 27.292734 158.990591 27.806316 160.283257 27.806316 
z
" clip-path="url(#p7d5796c763)" style="fill: #ffffbf; stroke: #000000; stroke-width: 0.886227"/>
    <path d="M 160.283257 27.996328 
C 161.575923 27.996328 162.815818 27.482747 163.729871 26.568694 
C 164.643924 25.654642 165.157505 24.414746 165.157505 23.12208 
C 165.157505 21.829415 164.643924 20.589519 163.729871 19.675466 
C 162.815818 18.761414 161.575923 18.247832 160.283257 18.247832 
C 158.990591 18.247832 157.750696 18.761414 156.836643 19.675466 
C 155.92259 20.589519 155.409009 21.829415 155.409009 23.12208 
C 155.409009 24.414746 155.92259 25.654642 156.836643 26.568694 
C 157.750696 27.482747 158.990591 27.996328 160.283257 27.996328 
z
" clip-path="url(#p7d5796c763)" style="fill: #91bfdb; stroke: #000000; stroke-width: 0.886227"/>
    <path d="M 186.596491 22.640777 
C 187.889156 22.640777 189.129052 22.127196 190.043105 21.213143 
C 190.957157 20.29909 191.470739 19.059195 191.470739 17.766529 
C 191.470739 16.473863 190.957157 15.233968 190.043105 14.319915 
C 189.129052 13.405862 187.889156 12.892281 186.596491 12.892281 
C 185.303825 12.892281 184.06393 13.405862 183.149877 14.319915 
C 182.235824 15.233968 181.722243 16.473863 181.722243 17.766529 
C 181.722243 19.059195 182.235824 20.29909 183.149877 21.213143 
C 184.06393 22.127196 185.303825 22.640777 186.596491 22.640777 
z
" clip-path="url(#p7d5796c763)" style="fill: #fc8d59; stroke: #000000; stroke-width: 0.886227"/>
    <path d="M 186.596491 24.732029 
C 187.889156 24.732029 189.129052 24.218448 190.043105 23.304395 
C 190.957157 22.390342 191.470739 21.150447 191.470739 19.857781 
C 191.470739 18.565116 190.957157 17.32522 190.043105 16.411167 
C 189.129052 15.497115 187.889156 14.983533 186.596491 14.983533 
C 185.303825 14.983533 184.06393 15.497115 183.149877 16.411167 
C 182.235824 17.32522 181.722243 18.565116 181.722243 19.857781 
C 181.722243 21.150447 182.235824 22.390342 183.149877 23.304395 
C 184.06393 24.218448 185.303825 24.732029 186.596491 24.732029 
z
" clip-path="url(#p7d5796c763)" style="fill: #ffffbf; stroke: #000000; stroke-width: 0.886227"/>
    <path d="M 186.596491 23.683383 
C 187.889156 23.683383 189.129052 23.169801 190.043105 22.255748 
C 190.957157 21.341696 191.470739 20.1018 191.470739 18.809135 
C 191.470739 17.516469 190.957157 16.276573 190.043105 15.362521 
C 189.129052 14.448468 187.889156 13.934887 186.596491 13.934887 
C 185.303825 13.934887 184.06393 14.448468 183.149877 15.362521 
C 182.235824 16.276573 181.722243 17.516469 181.722243 18.809135 
C 181.722243 20.1018 182.235824 21.341696 183.149877 22.255748 
C 184.06393 23.169801 185.303825 23.683383 186.596491 23.683383 
z
" clip-path="url(#p7d5796c763)" style="fill: #91bfdb; stroke: #000000; stroke-width: 0.886227"/>
    <path d="M 387.05549 25.297832 
C 388.348156 25.297832 389.588051 24.78425 390.502104 23.870198 
C 391.416157 22.956145 391.929738 21.71625 391.929738 20.423584 
C 391.929738 19.130918 391.416157 17.891023 390.502104 16.97697 
C 389.588051 16.062917 388.348156 15.549336 387.05549 15.549336 
C 385.762824 15.549336 384.522929 16.062917 383.608876 16.97697 
C 382.694823 17.891023 382.181242 19.130918 382.181242 20.423584 
C 382.181242 21.71625 382.694823 22.956145 383.608876 23.870198 
C 384.522929 24.78425 385.762824 25.297832 387.05549 25.297832 
z
" clip-path="url(#p7d5796c763)" style="fill: #fc8d59; stroke: #000000; stroke-width: 0.886227"/>
    <path d="M 387.05549 26.261454 
C 388.348156 26.261454 389.588051 25.747872 390.502104 24.83382 
C 391.416157 23.919767 391.929738 22.679871 391.929738 21.387206 
C 391.929738 20.09454 391.416157 18.854645 390.502104 17.940592 
C 389.588051 17.026539 388.348156 16.512958 387.05549 16.512958 
C 385.762824 16.512958 384.522929 17.026539 383.608876 17.940592 
C 382.694823 18.854645 382.181242 20.09454 382.181242 21.387206 
C 382.181242 22.679871 382.694823 23.919767 383.608876 24.83382 
C 384.522929 25.747872 385.762824 26.261454 387.05549 26.261454 
z
" clip-path="url(#p7d5796c763)" style="fill: #ffffbf; stroke: #000000; stroke-width: 0.886227"/>
    <path d="M 387.05549 25.383039 
C 388.348156 25.383039 389.588051 24.869458 390.502104 23.955405 
C 391.416157 23.041352 391.929738 21.801457 391.929738 20.508791 
C 391.929738 19.216125 391.416157 17.97623 390.502104 17.062177 
C 389.588051 16.148125 388.348156 15.634543 387.05549 15.634543 
C 385.762824 15.634543 384.522929 16.148125 383.608876 17.062177 
C 382.694823 17.97623 382.181242 19.216125 382.181242 20.508791 
C 382.181242 21.801457 382.694823 23.041352 383.608876 23.955405 
C 384.522929 24.869458 385.762824 25.383039 387.05549 25.383039 
z
" clip-path="url(#p7d5796c763)" style="fill: #91bfdb; stroke: #000000; stroke-width: 0.886227"/>
    <path d="M 135.08305 43.830351 
C 136.375716 43.830351 137.615612 43.31677 138.529664 42.402717 
C 139.443717 41.488665 139.957298 40.248769 139.957298 38.956103 
C 139.957298 37.663438 139.443717 36.423542 138.529664 35.509489 
C 137.615612 34.595437 136.375716 34.081855 135.08305 34.081855 
C 133.790385 34.081855 132.550489 34.595437 131.636436 35.509489 
C 130.722384 36.423542 130.208802 37.663438 130.208802 38.956103 
C 130.208802 40.248769 130.722384 41.488665 131.636436 42.402717 
C 132.550489 43.31677 133.790385 43.830351 135.08305 43.830351 
z
" clip-path="url(#p7d5796c763)" style="fill: #fc8d59; stroke: #000000; stroke-width: 0.886227"/>
    <path d="M 135.08305 54.115654 
C 136.375716 54.115654 137.615612 53.602073 138.529664 52.68802 
C 139.443717 51.773967 139.957298 50.534072 139.957298 49.241406 
C 139.957298 47.948741 139.443717 46.708845 138.529664 45.794792 
C 137.615612 44.88074 136.375716 44.367158 135.08305 44.367158 
C 133.790385 44.367158 132.550489 44.88074 131.636436 45.794792 
C 130.722384 46.708845 130.208802 47.948741 130.208802 49.241406 
C 130.208802 50.534072 130.722384 51.773967 131.636436 52.68802 
C 132.550489 53.602073 133.790385 54.115654 135.08305 54.115654 
z
" clip-path="url(#p7d5796c763)" style="fill: #ffffbf; stroke: #000000; stroke-width: 0.886227"/>
    <path d="M 135.08305 47.261747 
C 136.375716 47.261747 137.615612 46.748166 138.529664 45.834113 
C 139.443717 44.92006 139.957298 43.680165 139.957298 42.387499 
C 139.957298 41.094833 139.443717 39.854938 138.529664 38.940885 
C 137.615612 38.026833 136.375716 37.513251 135.08305 37.513251 
C 133.790385 37.513251 132.550489 38.026833 131.636436 38.940885 
C 130.722384 39.854938 130.208802 41.094833 130.208802 42.387499 
C 130.208802 43.680165 130.722384 44.92006 131.636436 45.834113 
C 132.550489 46.748166 133.790385 47.261747 135.08305 47.261747 
z
" clip-path="url(#p7d5796c763)" style="fill: #91bfdb; stroke: #000000; stroke-width: 0.886227"/>
    <path d="M 165.993968 44.590213 
C 167.286633 44.590213 168.526529 44.076631 169.440581 43.162579 
C 170.354634 42.248526 170.868216 41.008631 170.868216 39.715965 
C 170.868216 38.423299 170.354634 37.183404 169.440581 36.269351 
C 168.526529 35.355298 167.286633 34.841717 165.993968 34.841717 
C 164.701302 34.841717 163.461406 35.355298 162.547354 36.269351 
C 161.633301 37.183404 161.119719 38.423299 161.119719 39.715965 
C 161.119719 41.008631 161.633301 42.248526 162.547354 43.162579 
C 163.461406 44.076631 164.701302 44.590213 165.993968 44.590213 
z
" clip-path="url(#p7d5796c763)" style="fill: #fc8d59; stroke: #000000; stroke-width: 0.886227"/>
    <path d="M 165.993968 52.279616 
C 167.286633 52.279616 168.526529 51.766035 169.440581 50.851982 
C 170.354634 49.937929 170.868216 48.698034 170.868216 47.405368 
C 170.868216 46.112702 170.354634 44.872807 169.440581 43.958754 
C 168.526529 43.044701 167.286633 42.53112 165.993968 42.53112 
C 164.701302 42.53112 163.461406 43.044701 162.547354 43.958754 
C 161.633301 44.872807 161.119719 46.112702 161.119719 47.405368 
C 161.119719 48.698034 161.633301 49.937929 162.547354 50.851982 
C 163.461406 51.766035 164.701302 52.279616 165.993968 52.279616 
z
" clip-path="url(#p7d5796c763)" style="fill: #ffffbf; stroke: #000000; stroke-width: 0.886227"/>
    <path d="M 165.993968 48.93007 
C 167.286633 48.93007 168.526529 48.416488 169.440581 47.502436 
C 170.354634 46.588383 170.868216 45.348487 170.868216 44.055822 
C 170.868216 42.763156 170.354634 41.52326 169.440581 40.609208 
C 168.526529 39.695155 167.286633 39.181574 165.993968 39.181574 
C 164.701302 39.181574 163.461406 39.695155 162.547354 40.609208 
C 161.633301 41.52326 161.119719 42.763156 161.119719 44.055822 
C 161.119719 45.348487 161.633301 46.588383 162.547354 47.502436 
C 163.461406 48.416488 164.701302 48.93007 165.993968 48.93007 
z
" clip-path="url(#p7d5796c763)" style="fill: #91bfdb; stroke: #000000; stroke-width: 0.886227"/>
    <path d="M 432.85822 47.091181 
C 434.150886 47.091181 435.390781 46.5776 436.304834 45.663547 
C 437.218886 44.749494 437.732468 43.509599 437.732468 42.216933 
C 437.732468 40.924267 437.218886 39.684372 436.304834 38.770319 
C 435.390781 37.856266 434.150886 37.342685 432.85822 37.342685 
C 431.565554 37.342685 430.325659 37.856266 429.411606 38.770319 
C 428.497553 39.684372 427.983972 40.924267 427.983972 42.216933 
C 427.983972 43.509599 428.497553 44.749494 429.411606 45.663547 
C 430.325659 46.5776 431.565554 47.091181 432.85822 47.091181 
z
" clip-path="url(#p7d5796c763)" style="fill: #fc8d59; stroke: #000000; stroke-width: 0.886227"/>
    <path d="M 432.85822 55.174904 
C 434.150886 55.174904 435.390781 54.661322 436.304834 53.747269 
C 437.218886 52.833217 437.732468 51.593321 437.732468 50.300656 
C 437.732468 49.00799 437.218886 47.768094 436.304834 46.854042 
C 435.390781 45.939989 434.150886 45.426408 432.85822 45.426408 
C 431.565554 45.426408 430.325659 45.939989 429.411606 46.854042 
C 428.497553 47.768094 427.983972 49.00799 427.983972 50.300656 
C 427.983972 51.593321 428.497553 52.833217 429.411606 53.747269 
C 430.325659 54.661322 431.565554 55.174904 432.85822 55.174904 
z
" clip-path="url(#p7d5796c763)" style="fill: #ffffbf; stroke: #000000; stroke-width: 0.886227"/>
    <path d="M 432.85822 49.771911 
C 434.150886 49.771911 435.390781 49.25833 436.304834 48.344277 
C 437.218886 47.430224 437.732468 46.190329 437.732468 44.897663 
C 437.732468 43.604997 437.218886 42.365102 436.304834 41.451049 
C 435.390781 40.536997 434.150886 40.023415 432.85822 40.023415 
C 431.565554 40.023415 430.325659 40.536997 429.411606 41.451049 
C 428.497553 42.365102 427.983972 43.604997 427.983972 44.897663 
C 427.983972 46.190329 428.497553 47.430224 429.411606 48.344277 
C 430.325659 49.25833 431.565554 49.771911 432.85822 49.771911 
z
" clip-path="url(#p7d5796c763)" style="fill: #91bfdb; stroke: #000000; stroke-width: 0.886227"/>
    <path d="M 140.957502 46.32951 
C 142.250168 46.32951 143.490064 45.815928 144.404116 44.901876 
C 145.318169 43.987823 145.831751 42.747927 145.831751 41.455262 
C 145.831751 40.162596 145.318169 38.9227 144.404116 38.008648 
C 143.490064 37.094595 142.250168 36.581014 140.957502 36.581014 
C 139.664837 36.581014 138.424941 37.094595 137.510889 38.008648 
C 136.596836 38.9227 136.083254 40.162596 136.083254 41.455262 
C 136.083254 42.747927 136.596836 43.987823 137.510889 44.901876 
C 138.424941 45.815928 139.664837 46.32951 140.957502 46.32951 
z
" clip-path="url(#p7d5796c763)" style="fill: #fc8d59; stroke: #000000; stroke-width: 0.886227"/>
    <path d="M 140.957502 54.654468 
C 142.250168 54.654468 143.490064 54.140886 144.404116 53.226834 
C 145.318169 52.312781 145.831751 51.072885 145.831751 49.78022 
C 145.831751 48.487554 145.318169 47.247659 144.404116 46.333606 
C 143.490064 45.419553 142.250168 44.905972 140.957502 44.905972 
C 139.664837 44.905972 138.424941 45.419553 137.510889 46.333606 
C 136.596836 47.247659 136.083254 48.487554 136.083254 49.78022 
C 136.083254 51.072885 136.596836 52.312781 137.510889 53.226834 
C 138.424941 54.140886 139.664837 54.654468 140.957502 54.654468 
z
" clip-path="url(#p7d5796c763)" style="fill: #ffffbf; stroke: #000000; stroke-width: 0.886227"/>
    <path d="M 140.957502 52.784787 
C 142.250168 52.784787 143.490064 52.271205 144.404116 51.357153 
C 145.318169 50.4431 145.831751 49.203205 145.831751 47.910539 
C 145.831751 46.617873 145.318169 45.377978 144.404116 44.463925 
C 143.490064 43.549872 142.250168 43.036291 140.957502 43.036291 
C 139.664837 43.036291 138.424941 43.549872 137.510889 44.463925 
C 136.596836 45.377978 136.083254 46.617873 136.083254 47.910539 
C 136.083254 49.203205 136.596836 50.4431 137.510889 51.357153 
C 138.424941 52.271205 139.664837 52.784787 140.957502 52.784787 
z
" clip-path="url(#p7d5796c763)" style="fill: #91bfdb; stroke: #000000; stroke-width: 0.886227"/>
    <path d="M 175.618919 44.671388 
C 176.911585 44.671388 178.151481 44.157806 179.065533 43.243754 
C 179.979586 42.329701 180.493168 41.089806 180.493168 39.79714 
C 180.493168 38.504474 179.979586 37.264579 179.065533 36.350526 
C 178.151481 35.436473 176.911585 34.922892 175.618919 34.922892 
C 174.326254 34.922892 173.086358 35.436473 172.172306 36.350526 
C 171.258253 37.264579 170.744671 38.504474 170.744671 39.79714 
C 170.744671 41.089806 171.258253 42.329701 172.172306 43.243754 
C 173.086358 44.157806 174.326254 44.671388 175.618919 44.671388 
z
" clip-path="url(#p7d5796c763)" style="fill: #fc8d59; stroke: #000000; stroke-width: 0.886227"/>
    <path d="M 175.618919 53.336065 
C 176.911585 53.336065 178.151481 52.822483 179.065533 51.90843 
C 179.979586 50.994378 180.493168 49.754482 180.493168 48.461817 
C 180.493168 47.169151 179.979586 45.929255 179.065533 45.015203 
C 178.151481 44.10115 176.911585 43.587568 175.618919 43.587568 
C 174.326254 43.587568 173.086358 44.10115 172.172306 45.015203 
C 171.258253 45.929255 170.744671 47.169151 170.744671 48.461817 
C 170.744671 49.754482 171.258253 50.994378 172.172306 51.90843 
C 173.086358 52.822483 174.326254 53.336065 175.618919 53.336065 
z
" clip-path="url(#p7d5796c763)" style="fill: #ffffbf; stroke: #000000; stroke-width: 0.886227"/>
    <path d="M 175.618919 50.079234 
C 176.911585 50.079234 178.151481 49.565652 179.065533 48.6516 
C 179.979586 47.737547 180.493168 46.497651 180.493168 45.204986 
C 180.493168 43.91232 179.979586 42.672425 179.065533 41.758372 
C 178.151481 40.844319 176.911585 40.330738 175.618919 40.330738 
C 174.326254 40.330738 173.086358 40.844319 172.172306 41.758372 
C 171.258253 42.672425 170.744671 43.91232 170.744671 45.204986 
C 170.744671 46.497651 171.258253 47.737547 172.172306 48.6516 
C 173.086358 49.565652 174.326254 50.079234 175.618919 50.079234 
z
" clip-path="url(#p7d5796c763)" style="fill: #91bfdb; stroke: #000000; stroke-width: 0.886227"/>
    <path d="M 417.358816 46.997273 
C 418.651482 46.997273 419.891377 46.483692 420.80543 45.569639 
C 421.719482 44.655586 422.233064 43.415691 422.233064 42.123025 
C 422.233064 40.830359 421.719482 39.590464 420.80543 38.676411 
C 419.891377 37.762359 418.651482 37.248777 417.358816 37.248777 
C 416.06615 37.248777 414.826255 37.762359 413.912202 38.676411 
C 412.998149 39.590464 412.484568 40.830359 412.484568 42.123025 
C 412.484568 43.415691 412.998149 44.655586 413.912202 45.569639 
C 414.826255 46.483692 416.06615 46.997273 417.358816 46.997273 
z
" clip-path="url(#p7d5796c763)" style="fill: #fc8d59; stroke: #000000; stroke-width: 0.886227"/>
    <path d="M 417.358816 60.19351 
C 418.651482 60.19351 419.891377 59.679928 420.80543 58.765876 
C 421.719482 57.851823 422.233064 56.611928 422.233064 55.319262 
C 422.233064 54.026596 421.719482 52.786701 420.80543 51.872648 
C 419.891377 50.958595 418.651482 50.445014 417.358816 50.445014 
C 416.06615 50.445014 414.826255 50.958595 413.912202 51.872648 
C 412.998149 52.786701 412.484568 54.026596 412.484568 55.319262 
C 412.484568 56.611928 412.998149 57.851823 413.912202 58.765876 
C 414.826255 59.679928 416.06615 60.19351 417.358816 60.19351 
z
" clip-path="url(#p7d5796c763)" style="fill: #ffffbf; stroke: #000000; stroke-width: 0.886227"/>
    <path d="M 417.358816 49.888782 
C 418.651482 49.888782 419.891377 49.375201 420.80543 48.461148 
C 421.719482 47.547095 422.233064 46.3072 422.233064 45.014534 
C 422.233064 43.721868 421.719482 42.481973 420.80543 41.56792 
C 419.891377 40.653867 418.651482 40.140286 417.358816 40.140286 
C 416.06615 40.140286 414.826255 40.653867 413.912202 41.56792 
C 412.998149 42.481973 412.484568 43.721868 412.484568 45.014534 
C 412.484568 46.3072 412.998149 47.547095 413.912202 48.461148 
C 414.826255 49.375201 416.06615 49.888782 417.358816 49.888782 
z
" clip-path="url(#p7d5796c763)" style="fill: #91bfdb; stroke: #000000; stroke-width: 0.886227"/>
    <path d="M 127.959712 56.154284 
C 129.252378 56.154284 130.492273 55.640702 131.406326 54.726649 
C 132.320379 53.812597 132.83396 52.572701 132.83396 51.280036 
C 132.83396 49.98737 132.320379 48.747474 131.406326 47.833422 
C 130.492273 46.919369 129.252378 46.405787 127.959712 46.405787 
C 126.667046 46.405787 125.427151 46.919369 124.513098 47.833422 
C 123.599045 48.747474 123.085464 49.98737 123.085464 51.280036 
C 123.085464 52.572701 123.599045 53.812597 124.513098 54.726649 
C 125.427151 55.640702 126.667046 56.154284 127.959712 56.154284 
z
" clip-path="url(#p7d5796c763)" style="fill: #fc8d59; stroke: #000000; stroke-width: 0.886227"/>
    <path d="M 127.959712 74.852686 
C 129.252378 74.852686 130.492273 74.339105 131.406326 73.425052 
C 132.320379 72.510999 132.83396 71.271104 132.83396 69.978438 
C 132.83396 68.685772 132.320379 67.445877 131.406326 66.531824 
C 130.492273 65.617772 129.252378 65.10419 127.959712 65.10419 
C 126.667046 65.10419 125.427151 65.617772 124.513098 66.531824 
C 123.599045 67.445877 123.085464 68.685772 123.085464 69.978438 
C 123.085464 71.271104 123.599045 72.510999 124.513098 73.425052 
C 125.427151 74.339105 126.667046 74.852686 127.959712 74.852686 
z
" clip-path="url(#p7d5796c763)" style="fill: #ffffbf; stroke: #000000; stroke-width: 0.886227"/>
    <path d="M 127.959712 58.617581 
C 129.252378 58.617581 130.492273 58.104 131.406326 57.189947 
C 132.320379 56.275894 132.83396 55.035999 132.83396 53.743333 
C 132.83396 52.450667 132.320379 51.210772 131.406326 50.296719 
C 130.492273 49.382667 129.252378 48.869085 127.959712 48.869085 
C 126.667046 48.869085 125.427151 49.382667 124.513098 50.296719 
C 123.599045 51.210772 123.085464 52.450667 123.085464 53.743333 
C 123.085464 55.035999 123.599045 56.275894 124.513098 57.189947 
C 125.427151 58.104 126.667046 58.617581 127.959712 58.617581 
z
" clip-path="url(#p7d5796c763)" style="fill: #91bfdb; stroke: #000000; stroke-width: 0.886227"/>
    <path d="M 164.837474 63.632732 
C 166.13014 63.632732 167.370035 63.11915 168.284088 62.205098 
C 169.198141 61.291045 169.711722 60.051149 169.711722 58.758484 
C 169.711722 57.465818 169.198141 56.225922 168.284088 55.31187 
C 167.370035 54.397817 166.13014 53.884236 164.837474 53.884236 
C 163.544808 53.884236 162.304913 54.397817 161.39086 55.31187 
C 160.476807 56.225922 159.963226 57.465818 159.963226 58.758484 
C 159.963226 60.051149 160.476807 61.291045 161.39086 62.205098 
C 162.304913 63.11915 163.544808 63.632732 164.837474 63.632732 
z
" clip-path="url(#p7d5796c763)" style="fill: #fc8d59; stroke: #000000; stroke-width: 0.886227"/>
    <path d="M 164.837474 75.533287 
C 166.13014 75.533287 167.370035 75.019705 168.284088 74.105653 
C 169.198141 73.1916 169.711722 71.951704 169.711722 70.659039 
C 169.711722 69.366373 169.198141 68.126477 168.284088 67.212425 
C 167.370035 66.298372 166.13014 65.784791 164.837474 65.784791 
C 163.544808 65.784791 162.304913 66.298372 161.39086 67.212425 
C 160.476807 68.126477 159.963226 69.366373 159.963226 70.659039 
C 159.963226 71.951704 160.476807 73.1916 161.39086 74.105653 
C 162.304913 75.019705 163.544808 75.533287 164.837474 75.533287 
z
" clip-path="url(#p7d5796c763)" style="fill: #ffffbf; stroke: #000000; stroke-width: 0.886227"/>
    <path d="M 164.837474 70.870094 
C 166.13014 70.870094 167.370035 70.356513 168.284088 69.44246 
C 169.198141 68.528407 169.711722 67.288512 169.711722 65.995846 
C 169.711722 64.70318 169.198141 63.463285 168.284088 62.549232 
C 167.370035 61.63518 166.13014 61.121598 164.837474 61.121598 
C 163.544808 61.121598 162.304913 61.63518 161.39086 62.549232 
C 160.476807 63.463285 159.963226 64.70318 159.963226 65.995846 
C 159.963226 67.288512 160.476807 68.528407 161.39086 69.44246 
C 162.304913 70.356513 163.544808 70.870094 164.837474 70.870094 
z
" clip-path="url(#p7d5796c763)" style="fill: #91bfdb; stroke: #000000; stroke-width: 0.886227"/>
    <path d="M 441.138052 71.64114 
C 442.430718 71.64114 443.670613 71.127559 444.584666 70.213506 
C 445.498718 69.299453 446.0123 68.059558 446.0123 66.766892 
C 446.0123 65.474226 445.498718 64.234331 444.584666 63.320278 
C 443.670613 62.406225 442.430718 61.892644 441.138052 61.892644 
C 439.845386 61.892644 438.605491 62.406225 437.691438 63.320278 
C 436.777385 64.234331 436.263804 65.474226 436.263804 66.766892 
C 436.263804 68.059558 436.777385 69.299453 437.691438 70.213506 
C 438.605491 71.127559 439.845386 71.64114 441.138052 71.64114 
z
" clip-path="url(#p7d5796c763)" style="fill: #fc8d59; stroke: #000000; stroke-width: 0.886227"/>
    <path d="M 441.138052 84.314281 
C 442.430718 84.314281 443.670613 83.800699 444.584666 82.886647 
C 445.498718 81.972594 446.0123 80.732698 446.0123 79.440033 
C 446.0123 78.147367 445.498718 76.907471 444.584666 75.993419 
C 443.670613 75.079366 442.430718 74.565785 441.138052 74.565785 
C 439.845386 74.565785 438.605491 75.079366 437.691438 75.993419 
C 436.777385 76.907471 436.263804 78.147367 436.263804 79.440033 
C 436.263804 80.732698 436.777385 81.972594 437.691438 82.886647 
C 438.605491 83.800699 439.845386 84.314281 441.138052 84.314281 
z
" clip-path="url(#p7d5796c763)" style="fill: #ffffbf; stroke: #000000; stroke-width: 0.886227"/>
    <path d="M 441.138052 75.785459 
C 442.430718 75.785459 443.670613 75.271877 444.584666 74.357825 
C 445.498718 73.443772 446.0123 72.203877 446.0123 70.911211 
C 446.0123 69.618545 445.498718 68.37865 444.584666 67.464597 
C 443.670613 66.550544 442.430718 66.036963 441.138052 66.036963 
C 439.845386 66.036963 438.605491 66.550544 437.691438 67.464597 
C 436.777385 68.37865 436.263804 69.618545 436.263804 70.911211 
C 436.263804 72.203877 436.777385 73.443772 437.691438 74.357825 
C 438.605491 75.271877 439.845386 75.785459 441.138052 75.785459 
z
" clip-path="url(#p7d5796c763)" style="fill: #91bfdb; stroke: #000000; stroke-width: 0.886227"/>
    <path d="M 140.762308 74.216529 
C 142.054974 74.216529 143.29487 73.702947 144.208922 72.788895 
C 145.122975 71.874842 145.636557 70.634946 145.636557 69.342281 
C 145.636557 68.049615 145.122975 66.809719 144.208922 65.895667 
C 143.29487 64.981614 142.054974 64.468033 140.762308 64.468033 
C 139.469643 64.468033 138.229747 64.981614 137.315695 65.895667 
C 136.401642 66.809719 135.88806 68.049615 135.88806 69.342281 
C 135.88806 70.634946 136.401642 71.874842 137.315695 72.788895 
C 138.229747 73.702947 139.469643 74.216529 140.762308 74.216529 
z
" clip-path="url(#p7d5796c763)" style="fill: #fc8d59; stroke: #000000; stroke-width: 0.886227"/>
    <path d="M 140.762308 91.168531 
C 142.054974 91.168531 143.29487 90.65495 144.208922 89.740897 
C 145.122975 88.826844 145.636557 87.586949 145.636557 86.294283 
C 145.636557 85.001617 145.122975 83.761722 144.208922 82.847669 
C 143.29487 81.933617 142.054974 81.420035 140.762308 81.420035 
C 139.469643 81.420035 138.229747 81.933617 137.315695 82.847669 
C 136.401642 83.761722 135.88806 85.001617 135.88806 86.294283 
C 135.88806 87.586949 136.401642 88.826844 137.315695 89.740897 
C 138.229747 90.65495 139.469643 91.168531 140.762308 91.168531 
z
" clip-path="url(#p7d5796c763)" style="fill: #ffffbf; stroke: #000000; stroke-width: 0.886227"/>
    <path d="M 140.762308 78.052329 
C 142.054974 78.052329 143.29487 77.538748 144.208922 76.624695 
C 145.122975 75.710642 145.636557 74.470747 145.636557 73.178081 
C 145.636557 71.885415 145.122975 70.64552 144.208922 69.731467 
C 143.29487 68.817414 142.054974 68.303833 140.762308 68.303833 
C 139.469643 68.303833 138.229747 68.817414 137.315695 69.731467 
C 136.401642 70.64552 135.88806 71.885415 135.88806 73.178081 
C 135.88806 74.470747 136.401642 75.710642 137.315695 76.624695 
C 138.229747 77.538748 139.469643 78.052329 140.762308 78.052329 
z
" clip-path="url(#p7d5796c763)" style="fill: #91bfdb; stroke: #000000; stroke-width: 0.886227"/>
    <path d="M 170.337187 76.84176 
C 171.629853 76.84176 172.869748 76.328179 173.783801 75.414126 
C 174.697854 74.500073 175.211435 73.260178 175.211435 71.967512 
C 175.211435 70.674846 174.697854 69.434951 173.783801 68.520898 
C 172.869748 67.606846 171.629853 67.093264 170.337187 67.093264 
C 169.044521 67.093264 167.804626 67.606846 166.890573 68.520898 
C 165.976521 69.434951 165.462939 70.674846 165.462939 71.967512 
C 165.462939 73.260178 165.976521 74.500073 166.890573 75.414126 
C 167.804626 76.328179 169.044521 76.84176 170.337187 76.84176 
z
" clip-path="url(#p7d5796c763)" style="fill: #fc8d59; stroke: #000000; stroke-width: 0.886227"/>
    <path d="M 170.337187 88.171487 
C 171.629853 88.171487 172.869748 87.657905 173.783801 86.743853 
C 174.697854 85.8298 175.211435 84.589904 175.211435 83.297239 
C 175.211435 82.004573 174.697854 80.764677 173.783801 79.850625 
C 172.869748 78.936572 171.629853 78.422991 170.337187 78.422991 
C 169.044521 78.422991 167.804626 78.936572 166.890573 79.850625 
C 165.976521 80.764677 165.462939 82.004573 165.462939 83.297239 
C 165.462939 84.589904 165.976521 85.8298 166.890573 86.743853 
C 167.804626 87.657905 169.044521 88.171487 170.337187 88.171487 
z
" clip-path="url(#p7d5796c763)" style="fill: #ffffbf; stroke: #000000; stroke-width: 0.886227"/>
    <path d="M 170.337187 84.226114 
C 171.629853 84.226114 172.869748 83.712532 173.783801 82.798479 
C 174.697854 81.884427 175.211435 80.644531 175.211435 79.351865 
C 175.211435 78.0592 174.697854 76.819304 173.783801 75.905252 
C 172.869748 74.991199 171.629853 74.477617 170.337187 74.477617 
C 169.044521 74.477617 167.804626 74.991199 166.890573 75.905252 
C 165.976521 76.819304 165.462939 78.0592 165.462939 79.351865 
C 165.462939 80.644531 165.976521 81.884427 166.890573 82.798479 
C 167.804626 83.712532 169.044521 84.226114 170.337187 84.226114 
z
" clip-path="url(#p7d5796c763)" style="fill: #91bfdb; stroke: #000000; stroke-width: 0.886227"/>
    <path d="M 422.835742 85.977805 
C 424.128408 85.977805 425.368303 85.464224 426.282356 84.550171 
C 427.196409 83.636118 427.70999 82.396223 427.70999 81.103557 
C 427.70999 79.810891 427.196409 78.570996 426.282356 77.656943 
C 425.368303 76.74289 424.128408 76.229309 422.835742 76.229309 
C 421.543077 76.229309 420.303181 76.74289 419.389128 77.656943 
C 418.475076 78.570996 417.961494 79.810891 417.961494 81.103557 
C 417.961494 82.396223 418.475076 83.636118 419.389128 84.550171 
C 420.303181 85.464224 421.543077 85.977805 422.835742 85.977805 
z
" clip-path="url(#p7d5796c763)" style="fill: #fc8d59; stroke: #000000; stroke-width: 0.886227"/>
    <path d="M 422.835742 99.683315 
C 424.128408 99.683315 425.368303 99.169733 426.282356 98.255681 
C 427.196409 97.341628 427.70999 96.101732 427.70999 94.809067 
C 427.70999 93.516401 427.196409 92.276506 426.282356 91.362453 
C 425.368303 90.4484 424.128408 89.934819 422.835742 89.934819 
C 421.543077 89.934819 420.303181 90.4484 419.389128 91.362453 
C 418.475076 92.276506 417.961494 93.516401 417.961494 94.809067 
C 417.961494 96.101732 418.475076 97.341628 419.389128 98.255681 
C 420.303181 99.169733 421.543077 99.683315 422.835742 99.683315 
z
" clip-path="url(#p7d5796c763)" style="fill: #ffffbf; stroke: #000000; stroke-width: 0.886227"/>
    <path d="M 422.835742 91.758657 
C 424.128408 91.758657 425.368303 91.245076 426.282356 90.331023 
C 427.196409 89.416971 427.70999 88.177075 427.70999 86.884409 
C 427.70999 85.591744 427.196409 84.351848 426.282356 83.437795 
C 425.368303 82.523743 424.128408 82.010161 422.835742 82.010161 
C 421.543077 82.010161 420.303181 82.523743 419.389128 83.437795 
C 418.475076 84.351848 417.961494 85.591744 417.961494 86.884409 
C 417.961494 88.177075 418.475076 89.416971 419.389128 90.331023 
C 420.303181 91.245076 421.543077 91.758657 422.835742 91.758657 
z
" clip-path="url(#p7d5796c763)" style="fill: #91bfdb; stroke: #000000; stroke-width: 0.886227"/>
    <path d="M 148.951357 49.560725 
C 150.244023 49.560725 151.483918 49.047144 152.397971 48.133091 
C 153.312023 47.219038 153.825605 45.979143 153.825605 44.686477 
C 153.825605 43.393811 153.312023 42.153916 152.397971 41.239863 
C 151.483918 40.325811 150.244023 39.812229 148.951357 39.812229 
C 147.658691 39.812229 146.418796 40.325811 145.504743 41.239863 
C 144.59069 42.153916 144.077109 43.393811 144.077109 44.686477 
C 144.077109 45.979143 144.59069 47.219038 145.504743 48.133091 
C 146.418796 49.047144 147.658691 49.560725 148.951357 49.560725 
z
" clip-path="url(#p7d5796c763)" style="fill: #fc8d59; stroke: #000000; stroke-width: 0.886227"/>
    <path d="M 148.951357 65.756112 
C 150.244023 65.756112 151.483918 65.242531 152.397971 64.328478 
C 153.312023 63.414425 153.825605 62.17453 153.825605 60.881864 
C 153.825605 59.589198 153.312023 58.349303 152.397971 57.43525 
C 151.483918 56.521198 150.244023 56.007616 148.951357 56.007616 
C 147.658691 56.007616 146.418796 56.521198 145.504743 57.43525 
C 144.59069 58.349303 144.077109 59.589198 144.077109 60.881864 
C 144.077109 62.17453 144.59069 63.414425 145.504743 64.328478 
C 146.418796 65.242531 147.658691 65.756112 148.951357 65.756112 
z
" clip-path="url(#p7d5796c763)" style="fill: #ffffbf; stroke: #000000; stroke-width: 0.886227"/>
    <path d="M 148.951357 56.137893 
C 150.244023 56.137893 151.483918 55.624311 152.397971 54.710259 
C 153.312023 53.796206 153.825605 52.556311 153.825605 51.263645 
C 153.825605 49.970979 153.312023 48.731084 152.397971 47.817031 
C 151.483918 46.902978 150.244023 46.389397 148.951357 46.389397 
C 147.658691 46.389397 146.418796 46.902978 145.504743 47.817031 
C 144.59069 48.731084 144.077109 49.970979 144.077109 51.263645 
C 144.077109 52.556311 144.59069 53.796206 145.504743 54.710259 
C 146.418796 55.624311 147.658691 56.137893 148.951357 56.137893 
z
" clip-path="url(#p7d5796c763)" style="fill: #91bfdb; stroke: #000000; stroke-width: 0.886227"/>
    <path d="M 181.012396 50.436987 
C 182.305062 50.436987 183.544957 49.923405 184.45901 49.009352 
C 185.373062 48.0953 185.886644 46.855404 185.886644 45.562738 
C 185.886644 44.270073 185.373062 43.030177 184.45901 42.116125 
C 183.544957 41.202072 182.305062 40.68849 181.012396 40.68849 
C 179.71973 40.68849 178.479835 41.202072 177.565782 42.116125 
C 176.651729 43.030177 176.138148 44.270073 176.138148 45.562738 
C 176.138148 46.855404 176.651729 48.0953 177.565782 49.009352 
C 178.479835 49.923405 179.71973 50.436987 181.012396 50.436987 
z
" clip-path="url(#p7d5796c763)" style="fill: #fc8d59; stroke: #000000; stroke-width: 0.886227"/>
    <path d="M 181.012396 61.381278 
C 182.305062 61.381278 183.544957 60.867697 184.45901 59.953644 
C 185.373062 59.039592 185.886644 57.799696 185.886644 56.50703 
C 185.886644 55.214365 185.373062 53.974469 184.45901 53.060417 
C 183.544957 52.146364 182.305062 51.632782 181.012396 51.632782 
C 179.71973 51.632782 178.479835 52.146364 177.565782 53.060417 
C 176.651729 53.974469 176.138148 55.214365 176.138148 56.50703 
C 176.138148 57.799696 176.651729 59.039592 177.565782 59.953644 
C 178.479835 60.867697 179.71973 61.381278 181.012396 61.381278 
z
" clip-path="url(#p7d5796c763)" style="fill: #ffffbf; stroke: #000000; stroke-width: 0.886227"/>
    <path d="M 181.012396 58.504185 
C 182.305062 58.504185 183.544957 57.990603 184.45901 57.076551 
C 185.373062 56.162498 185.886644 54.922603 185.886644 53.629937 
C 185.886644 52.337271 185.373062 51.097376 184.45901 50.183323 
C 183.544957 49.26927 182.305062 48.755689 181.012396 48.755689 
C 179.71973 48.755689 178.479835 49.26927 177.565782 50.183323 
C 176.651729 51.097376 176.138148 52.337271 176.138148 53.629937 
C 176.138148 54.922603 176.651729 56.162498 177.565782 57.076551 
C 178.479835 57.990603 179.71973 58.504185 181.012396 58.504185 
z
" clip-path="url(#p7d5796c763)" style="fill: #91bfdb; stroke: #000000; stroke-width: 0.886227"/>
    <path d="M 403.971485 57.909953 
C 405.264151 57.909953 406.504046 57.396371 407.418099 56.482319 
C 408.332152 55.568266 408.845733 54.32837 408.845733 53.035705 
C 408.845733 51.743039 408.332152 50.503144 407.418099 49.589091 
C 406.504046 48.675038 405.264151 48.161457 403.971485 48.161457 
C 402.678819 48.161457 401.438924 48.675038 400.524871 49.589091 
C 399.610819 50.503144 399.097237 51.743039 399.097237 53.035705 
C 399.097237 54.32837 399.610819 55.568266 400.524871 56.482319 
C 401.438924 57.396371 402.678819 57.909953 403.971485 57.909953 
z
" clip-path="url(#p7d5796c763)" style="fill: #fc8d59; stroke: #000000; stroke-width: 0.886227"/>
    <path d="M 403.971485 73.939878 
C 405.264151 73.939878 406.504046 73.426296 407.418099 72.512244 
C 408.332152 71.598191 408.845733 70.358295 408.845733 69.06563 
C 408.845733 67.772964 408.332152 66.533069 407.418099 65.619016 
C 406.504046 64.704963 405.264151 64.191382 403.971485 64.191382 
C 402.678819 64.191382 401.438924 64.704963 400.524871 65.619016 
C 399.610819 66.533069 399.097237 67.772964 399.097237 69.06563 
C 399.097237 70.358295 399.610819 71.598191 400.524871 72.512244 
C 401.438924 73.426296 402.678819 73.939878 403.971485 73.939878 
z
" clip-path="url(#p7d5796c763)" style="fill: #ffffbf; stroke: #000000; stroke-width: 0.886227"/>
    <path d="M 403.971485 63.65149 
C 405.264151 63.65149 406.504046 63.137908 407.418099 62.223855 
C 408.332152 61.309803 408.845733 60.069907 408.845733 58.777242 
C 408.845733 57.484576 408.332152 56.24468 407.418099 55.330628 
C 406.504046 54.416575 405.264151 53.902994 403.971485 53.902994 
C 402.678819 53.902994 401.438924 54.416575 400.524871 55.330628 
C 399.610819 56.24468 399.097237 57.484576 399.097237 58.777242 
C 399.097237 60.069907 399.610819 61.309803 400.524871 62.223855 
C 401.438924 63.137908 402.678819 63.65149 403.971485 63.65149 
z
" clip-path="url(#p7d5796c763)" style="fill: #91bfdb; stroke: #000000; stroke-width: 0.886227"/>
    <path d="M 95.873097 120.965411 
C 97.165762 120.965411 98.405658 120.451829 99.31971 119.537777 
C 100.233763 118.623724 100.747345 117.383829 100.747345 116.091163 
C 100.747345 114.798497 100.233763 113.558602 99.31971 112.644549 
C 98.405658 111.730496 97.165762 111.216915 95.873097 111.216915 
C 94.580431 111.216915 93.340535 111.730496 92.426483 112.644549 
C 91.51243 113.558602 90.998849 114.798497 90.998849 116.091163 
C 90.998849 117.383829 91.51243 118.623724 92.426483 119.537777 
C 93.340535 120.451829 94.580431 120.965411 95.873097 120.965411 
z
" clip-path="url(#p7d5796c763)" style="fill: #fc8d59; stroke: #000000; stroke-width: 0.886227"/>
    <path d="M 95.873097 152.778475 
C 97.165762 152.778475 98.405658 152.264893 99.31971 151.35084 
C 100.233763 150.436788 100.747345 149.196892 100.747345 147.904226 
C 100.747345 146.611561 100.233763 145.371665 99.31971 144.457613 
C 98.405658 143.54356 97.165762 143.029978 95.873097 143.029978 
C 94.580431 143.029978 93.340535 143.54356 92.426483 144.457613 
C 91.51243 145.371665 90.998849 146.611561 90.998849 147.904226 
C 90.998849 149.196892 91.51243 150.436788 92.426483 151.35084 
C 93.340535 152.264893 94.580431 152.778475 95.873097 152.778475 
z
" clip-path="url(#p7d5796c763)" style="fill: #ffffbf; stroke: #000000; stroke-width: 0.886227"/>
    <path d="M 95.873097 126.605972 
C 97.165762 126.605972 98.405658 126.09239 99.31971 125.178337 
C 100.233763 124.264285 100.747345 123.024389 100.747345 121.731723 
C 100.747345 120.439058 100.233763 119.199162 99.31971 118.28511 
C 98.405658 117.371057 97.165762 116.857475 95.873097 116.857475 
C 94.580431 116.857475 93.340535 117.371057 92.426483 118.28511 
C 91.51243 119.199162 90.998849 120.439058 90.998849 121.731723 
C 90.998849 123.024389 91.51243 124.264285 92.426483 125.178337 
C 93.340535 126.09239 94.580431 126.605972 95.873097 126.605972 
z
" clip-path="url(#p7d5796c763)" style="fill: #91bfdb; stroke: #000000; stroke-width: 0.886227"/>
    <path d="M 136.370863 135.023277 
C 137.663529 135.023277 138.903424 134.509695 139.817477 133.595643 
C 140.731529 132.68159 141.245111 131.441695 141.245111 130.149029 
C 141.245111 128.856363 140.731529 127.616468 139.817477 126.702415 
C 138.903424 125.788362 137.663529 125.274781 136.370863 125.274781 
C 135.078197 125.274781 133.838302 125.788362 132.924249 126.702415 
C 132.010196 127.616468 131.496615 128.856363 131.496615 130.149029 
C 131.496615 131.441695 132.010196 132.68159 132.924249 133.595643 
C 133.838302 134.509695 135.078197 135.023277 136.370863 135.023277 
z
" clip-path="url(#p7d5796c763)" style="fill: #fc8d59; stroke: #000000; stroke-width: 0.886227"/>
    <path d="M 136.370863 153.801609 
C 137.663529 153.801609 138.903424 153.288027 139.817477 152.373974 
C 140.731529 151.459922 141.245111 150.220026 141.245111 148.92736 
C 141.245111 147.634695 140.731529 146.394799 139.817477 145.480747 
C 138.903424 144.566694 137.663529 144.053112 136.370863 144.053112 
C 135.078197 144.053112 133.838302 144.566694 132.924249 145.480747 
C 132.010196 146.394799 131.496615 147.634695 131.496615 148.92736 
C 131.496615 150.220026 132.010196 151.459922 132.924249 152.373974 
C 133.838302 153.288027 135.078197 153.801609 136.370863 153.801609 
z
" clip-path="url(#p7d5796c763)" style="fill: #ffffbf; stroke: #000000; stroke-width: 0.886227"/>
    <path d="M 136.370863 145.967809 
C 137.663529 145.967809 138.903424 145.454228 139.817477 144.540175 
C 140.731529 143.626122 141.245111 142.386227 141.245111 141.093561 
C 141.245111 139.800895 140.731529 138.561 139.817477 137.646947 
C 138.903424 136.732894 137.663529 136.219313 136.370863 136.219313 
C 135.078197 136.219313 133.838302 136.732894 132.924249 137.646947 
C 132.010196 138.561 131.496615 139.800895 131.496615 141.093561 
C 131.496615 142.386227 132.010196 143.626122 132.924249 144.540175 
C 133.838302 145.454228 135.078197 145.967809 136.370863 145.967809 
z
" clip-path="url(#p7d5796c763)" style="fill: #91bfdb; stroke: #000000; stroke-width: 0.886227"/>
    <path d="M 501.691278 156.832919 
C 502.983944 156.832919 504.22384 156.319337 505.137892 155.405285 
C 506.051945 154.491232 506.565526 153.251337 506.565526 151.958671 
C 506.565526 150.666005 506.051945 149.42611 505.137892 148.512057 
C 504.22384 147.598004 502.983944 147.084423 501.691278 147.084423 
C 500.398613 147.084423 499.158717 147.598004 498.244665 148.512057 
C 497.330612 149.42611 496.81703 150.666005 496.81703 151.958671 
C 496.81703 153.251337 497.330612 154.491232 498.244665 155.405285 
C 499.158717 156.319337 500.398613 156.832919 501.691278 156.832919 
z
" clip-path="url(#p7d5796c763)" style="fill: #fc8d59; stroke: #000000; stroke-width: 0.886227"/>
    <path d="M 501.691278 170.767013 
C 502.983944 170.767013 504.22384 170.253431 505.137892 169.339379 
C 506.051945 168.425326 506.565526 167.18543 506.565526 165.892765 
C 506.565526 164.600099 506.051945 163.360204 505.137892 162.446151 
C 504.22384 161.532098 502.983944 161.018517 501.691278 161.018517 
C 500.398613 161.018517 499.158717 161.532098 498.244665 162.446151 
C 497.330612 163.360204 496.81703 164.600099 496.81703 165.892765 
C 496.81703 167.18543 497.330612 168.425326 498.244665 169.339379 
C 499.158717 170.253431 500.398613 170.767013 501.691278 170.767013 
z
" clip-path="url(#p7d5796c763)" style="fill: #ffffbf; stroke: #000000; stroke-width: 0.886227"/>
    <path d="M 501.691278 161.272134 
C 502.983944 161.272134 504.22384 160.758552 505.137892 159.844499 
C 506.051945 158.930447 506.565526 157.690551 506.565526 156.397886 
C 506.565526 155.10522 506.051945 153.865324 505.137892 152.951272 
C 504.22384 152.037219 502.983944 151.523638 501.691278 151.523638 
C 500.398613 151.523638 499.158717 152.037219 498.244665 152.951272 
C 497.330612 153.865324 496.81703 155.10522 496.81703 156.397886 
C 496.81703 157.690551 497.330612 158.930447 498.244665 159.844499 
C 499.158717 160.758552 500.398613 161.272134 501.691278 161.272134 
z
" clip-path="url(#p7d5796c763)" style="fill: #91bfdb; stroke: #000000; stroke-width: 0.886227"/>
    <path d="M 121.641309 125.312321 
C 122.933975 125.312321 124.17387 124.79874 125.087923 123.884687 
C 126.001976 122.970634 126.515557 121.730739 126.515557 120.438073 
C 126.515557 119.145407 126.001976 117.905512 125.087923 116.991459 
C 124.17387 116.077406 122.933975 115.563825 121.641309 115.563825 
C 120.348643 115.563825 119.108748 116.077406 118.194695 116.991459 
C 117.280642 117.905512 116.767061 119.145407 116.767061 120.438073 
C 116.767061 121.730739 117.280642 122.970634 118.194695 123.884687 
C 119.108748 124.79874 120.348643 125.312321 121.641309 125.312321 
z
" clip-path="url(#p7d5796c763)" style="fill: #fc8d59; stroke: #000000; stroke-width: 0.886227"/>
    <path d="M 121.641309 170.854327 
C 122.933975 170.854327 124.17387 170.340746 125.087923 169.426693 
C 126.001976 168.51264 126.515557 167.272745 126.515557 165.980079 
C 126.515557 164.687414 126.001976 163.447518 125.087923 162.533465 
C 124.17387 161.619413 122.933975 161.105831 121.641309 161.105831 
C 120.348643 161.105831 119.108748 161.619413 118.194695 162.533465 
C 117.280642 163.447518 116.767061 164.687414 116.767061 165.980079 
C 116.767061 167.272745 117.280642 168.51264 118.194695 169.426693 
C 119.108748 170.340746 120.348643 170.854327 121.641309 170.854327 
z
" clip-path="url(#p7d5796c763)" style="fill: #ffffbf; stroke: #000000; stroke-width: 0.886227"/>
    <path d="M 121.641309 136.834987 
C 122.933975 136.834987 124.17387 136.321405 125.087923 135.407353 
C 126.001976 134.4933 126.515557 133.253404 126.515557 131.960739 
C 126.515557 130.668073 126.001976 129.428178 125.087923 128.514125 
C 124.17387 127.600072 122.933975 127.086491 121.641309 127.086491 
C 120.348643 127.086491 119.108748 127.600072 118.194695 128.514125 
C 117.280642 129.428178 116.767061 130.668073 116.767061 131.960739 
C 116.767061 133.253404 117.280642 134.4933 118.194695 135.407353 
C 119.108748 136.321405 120.348643 136.834987 121.641309 136.834987 
z
" clip-path="url(#p7d5796c763)" style="fill: #91bfdb; stroke: #000000; stroke-width: 0.886227"/>
    <path d="M 158.843985 145.634381 
C 160.136651 145.634381 161.376546 145.1208 162.290599 144.206747 
C 163.204652 143.292694 163.718233 142.052799 163.718233 140.760133 
C 163.718233 139.467467 163.204652 138.227572 162.290599 137.313519 
C 161.376546 136.399467 160.136651 135.885885 158.843985 135.885885 
C 157.551319 135.885885 156.311424 136.399467 155.397371 137.313519 
C 154.483319 138.227572 153.969737 139.467467 153.969737 140.760133 
C 153.969737 142.052799 154.483319 143.292694 155.397371 144.206747 
C 156.311424 145.1208 157.551319 145.634381 158.843985 145.634381 
z
" clip-path="url(#p7d5796c763)" style="fill: #fc8d59; stroke: #000000; stroke-width: 0.886227"/>
    <path d="M 158.843985 176.010962 
C 160.136651 176.010962 161.376546 175.497381 162.290599 174.583328 
C 163.204652 173.669275 163.718233 172.42938 163.718233 171.136714 
C 163.718233 169.844048 163.204652 168.604153 162.290599 167.6901 
C 161.376546 166.776048 160.136651 166.262466 158.843985 166.262466 
C 157.551319 166.262466 156.311424 166.776048 155.397371 167.6901 
C 154.483319 168.604153 153.969737 169.844048 153.969737 171.136714 
C 153.969737 172.42938 154.483319 173.669275 155.397371 174.583328 
C 156.311424 175.497381 157.551319 176.010962 158.843985 176.010962 
z
" clip-path="url(#p7d5796c763)" style="fill: #ffffbf; stroke: #000000; stroke-width: 0.886227"/>
    <path d="M 158.843985 162.658866 
C 160.136651 162.658866 161.376546 162.145285 162.290599 161.231232 
C 163.204652 160.317179 163.718233 159.077284 163.718233 157.784618 
C 163.718233 156.491952 163.204652 155.252057 162.290599 154.338004 
C 161.376546 153.423952 160.136651 152.91037 158.843985 152.91037 
C 157.551319 152.91037 156.311424 153.423952 155.397371 154.338004 
C 154.483319 155.252057 153.969737 156.491952 153.969737 157.784618 
C 153.969737 159.077284 154.483319 160.317179 155.397371 161.231232 
C 156.311424 162.145285 157.551319 162.658866 158.843985 162.658866 
z
" clip-path="url(#p7d5796c763)" style="fill: #91bfdb; stroke: #000000; stroke-width: 0.886227"/>
    <path d="M 453.449944 149.639492 
C 454.742609 149.639492 455.982505 149.12591 456.896558 148.211858 
C 457.81061 147.297805 458.324192 146.05791 458.324192 144.765244 
C 458.324192 143.472578 457.81061 142.232683 456.896558 141.31863 
C 455.982505 140.404577 454.742609 139.890996 453.449944 139.890996 
C 452.157278 139.890996 450.917382 140.404577 450.00333 141.31863 
C 449.089277 142.232683 448.575696 143.472578 448.575696 144.765244 
C 448.575696 146.05791 449.089277 147.297805 450.00333 148.211858 
C 450.917382 149.12591 452.157278 149.639492 453.449944 149.639492 
z
" clip-path="url(#p7d5796c763)" style="fill: #fc8d59; stroke: #000000; stroke-width: 0.886227"/>
    <path d="M 453.449944 176.125666 
C 454.742609 176.125666 455.982505 175.612084 456.896558 174.698032 
C 457.81061 173.783979 458.324192 172.544083 458.324192 171.251418 
C 458.324192 169.958752 457.81061 168.718857 456.896558 167.804804 
C 455.982505 166.890751 454.742609 166.37717 453.449944 166.37717 
C 452.157278 166.37717 450.917382 166.890751 450.00333 167.804804 
C 449.089277 168.718857 448.575696 169.958752 448.575696 171.251418 
C 448.575696 172.544083 449.089277 173.783979 450.00333 174.698032 
C 450.917382 175.612084 452.157278 176.125666 453.449944 176.125666 
z
" clip-path="url(#p7d5796c763)" style="fill: #ffffbf; stroke: #000000; stroke-width: 0.886227"/>
    <path d="M 453.449944 157.687097 
C 454.742609 157.687097 455.982505 157.173515 456.896558 156.259462 
C 457.81061 155.34541 458.324192 154.105514 458.324192 152.812849 
C 458.324192 151.520183 457.81061 150.280287 456.896558 149.366235 
C 455.982505 148.452182 454.742609 147.9386 453.449944 147.9386 
C 452.157278 147.9386 450.917382 148.452182 450.00333 149.366235 
C 449.089277 150.280287 448.575696 151.520183 448.575696 152.812849 
C 448.575696 154.105514 449.089277 155.34541 450.00333 156.259462 
C 450.917382 157.173515 452.157278 157.687097 453.449944 157.687097 
z
" clip-path="url(#p7d5796c763)" style="fill: #91bfdb; stroke: #000000; stroke-width: 0.886227"/>
    <path d="M 97.578077 151.544022 
C 98.870742 151.544022 100.110638 151.030441 101.024691 150.116388 
C 101.938743 149.202335 102.452325 147.96244 102.452325 146.669774 
C 102.452325 145.377108 101.938743 144.137213 101.024691 143.22316 
C 100.110638 142.309107 98.870742 141.795526 97.578077 141.795526 
C 96.285411 141.795526 95.045515 142.309107 94.131463 143.22316 
C 93.21741 144.137213 92.703829 145.377108 92.703829 146.669774 
C 92.703829 147.96244 93.21741 149.202335 94.131463 150.116388 
C 95.045515 151.030441 96.285411 151.544022 97.578077 151.544022 
z
" clip-path="url(#p7d5796c763)" style="fill: #fc8d59; stroke: #000000; stroke-width: 0.886227"/>
    <path d="M 97.578077 187.038357 
C 98.870742 187.038357 100.110638 186.524775 101.024691 185.610723 
C 101.938743 184.69667 102.452325 183.456774 102.452325 182.164109 
C 102.452325 180.871443 101.938743 179.631547 101.024691 178.717495 
C 100.110638 177.803442 98.870742 177.289861 97.578077 177.289861 
C 96.285411 177.289861 95.045515 177.803442 94.131463 178.717495 
C 93.21741 179.631547 92.703829 180.871443 92.703829 182.164109 
C 92.703829 183.456774 93.21741 184.69667 94.131463 185.610723 
C 95.045515 186.524775 96.285411 187.038357 97.578077 187.038357 
z
" clip-path="url(#p7d5796c763)" style="fill: #ffffbf; stroke: #000000; stroke-width: 0.886227"/>
    <path d="M 97.578077 159.279257 
C 98.870742 159.279257 100.110638 158.765675 101.024691 157.851622 
C 101.938743 156.93757 102.452325 155.697674 102.452325 154.405008 
C 102.452325 153.112343 101.938743 151.872447 101.024691 150.958395 
C 100.110638 150.044342 98.870742 149.53076 97.578077 149.53076 
C 96.285411 149.53076 95.045515 150.044342 94.131463 150.958395 
C 93.21741 151.872447 92.703829 153.112343 92.703829 154.405008 
C 92.703829 155.697674 93.21741 156.93757 94.131463 157.851622 
C 95.045515 158.765675 96.285411 159.279257 97.578077 159.279257 
z
" clip-path="url(#p7d5796c763)" style="fill: #91bfdb; stroke: #000000; stroke-width: 0.886227"/>
    <path d="M 135.582501 161.04691 
C 136.875166 161.04691 138.115062 160.533329 139.029114 159.619276 
C 139.943167 158.705223 140.456749 157.465328 140.456749 156.172662 
C 140.456749 154.879996 139.943167 153.640101 139.029114 152.726048 
C 138.115062 151.811996 136.875166 151.298414 135.582501 151.298414 
C 134.289835 151.298414 133.049939 151.811996 132.135887 152.726048 
C 131.221834 153.640101 130.708253 154.879996 130.708253 156.172662 
C 130.708253 157.465328 131.221834 158.705223 132.135887 159.619276 
C 133.049939 160.533329 134.289835 161.04691 135.582501 161.04691 
z
" clip-path="url(#p7d5796c763)" style="fill: #fc8d59; stroke: #000000; stroke-width: 0.886227"/>
    <path d="M 135.582501 187.156095 
C 136.875166 187.156095 138.115062 186.642514 139.029114 185.728461 
C 139.943167 184.814408 140.456749 183.574513 140.456749 182.281847 
C 140.456749 180.989181 139.943167 179.749286 139.029114 178.835233 
C 138.115062 177.92118 136.875166 177.407599 135.582501 177.407599 
C 134.289835 177.407599 133.049939 177.92118 132.135887 178.835233 
C 131.221834 179.749286 130.708253 180.989181 130.708253 182.281847 
C 130.708253 183.574513 131.221834 184.814408 132.135887 185.728461 
C 133.049939 186.642514 134.289835 187.156095 135.582501 187.156095 
z
" clip-path="url(#p7d5796c763)" style="fill: #ffffbf; stroke: #000000; stroke-width: 0.886227"/>
    <path d="M 135.582501 172.857103 
C 136.875166 172.857103 138.115062 172.343521 139.029114 171.429469 
C 139.943167 170.515416 140.456749 169.275521 140.456749 167.982855 
C 140.456749 166.690189 139.943167 165.450294 139.029114 164.536241 
C 138.115062 163.622188 136.875166 163.108607 135.582501 163.108607 
C 134.289835 163.108607 133.049939 163.622188 132.135887 164.536241 
C 131.221834 165.450294 130.708253 166.690189 130.708253 167.982855 
C 130.708253 169.275521 131.221834 170.515416 132.135887 171.429469 
C 133.049939 172.343521 134.289835 172.857103 135.582501 172.857103 
z
" clip-path="url(#p7d5796c763)" style="fill: #91bfdb; stroke: #000000; stroke-width: 0.886227"/>
    <path d="M 500.774661 181.136718 
C 502.067326 181.136718 503.307222 180.623137 504.221274 179.709084 
C 505.135327 178.795031 505.648909 177.555136 505.648909 176.26247 
C 505.648909 174.969805 505.135327 173.729909 504.221274 172.815856 
C 503.307222 171.901804 502.067326 171.388222 500.774661 171.388222 
C 499.481995 171.388222 498.242099 171.901804 497.328047 172.815856 
C 496.413994 173.729909 495.900412 174.969805 495.900412 176.26247 
C 495.900412 177.555136 496.413994 178.795031 497.328047 179.709084 
C 498.242099 180.623137 499.481995 181.136718 500.774661 181.136718 
z
" clip-path="url(#p7d5796c763)" style="fill: #fc8d59; stroke: #000000; stroke-width: 0.886227"/>
    <path d="M 500.774661 199.042352 
C 502.067326 199.042352 503.307222 198.52877 504.221274 197.614718 
C 505.135327 196.700665 505.648909 195.460769 505.648909 194.168104 
C 505.648909 192.875438 505.135327 191.635543 504.221274 190.72149 
C 503.307222 189.807437 502.067326 189.293856 500.774661 189.293856 
C 499.481995 189.293856 498.242099 189.807437 497.328047 190.72149 
C 496.413994 191.635543 495.900412 192.875438 495.900412 194.168104 
C 495.900412 195.460769 496.413994 196.700665 497.328047 197.614718 
C 498.242099 198.52877 499.481995 199.042352 500.774661 199.042352 
z
" clip-path="url(#p7d5796c763)" style="fill: #ffffbf; stroke: #000000; stroke-width: 0.886227"/>
    <path d="M 500.774661 185.200585 
C 502.067326 185.200585 503.307222 184.687003 504.221274 183.772951 
C 505.135327 182.858898 505.648909 181.619003 505.648909 180.326337 
C 505.648909 179.033671 505.135327 177.793776 504.221274 176.879723 
C 503.307222 175.96567 502.067326 175.452089 500.774661 175.452089 
C 499.481995 175.452089 498.242099 175.96567 497.328047 176.879723 
C 496.413994 177.793776 495.900412 179.033671 495.900412 180.326337 
C 495.900412 181.619003 496.413994 182.858898 497.328047 183.772951 
C 498.242099 184.687003 499.481995 185.200585 500.774661 185.200585 
z
" clip-path="url(#p7d5796c763)" style="fill: #91bfdb; stroke: #000000; stroke-width: 0.886227"/>
   </g>
   <g id="patch_3">
    <path d="M 529.182188 186.474219 
L 706.253188 186.474219 
L 706.253188 46.805781 
L 529.182188 46.805781 
z
" style="fill: #ffffff"/>
   </g>
   <g id="text_11">
    <!-- configuration -->
    <g transform="translate(542.982188 80.285625) scale(0.19 -0.19)">
     <defs>
      <path id="DejaVuSans-6e" d="M 3513 2113 
L 3513 0 
L 2938 0 
L 2938 2094 
Q 2938 2591 2744 2837 
Q 2550 3084 2163 3084 
Q 1697 3084 1428 2787 
Q 1159 2491 1159 1978 
L 1159 0 
L 581 0 
L 581 3500 
L 1159 3500 
L 1159 2956 
Q 1366 3272 1645 3428 
Q 1925 3584 2291 3584 
Q 2894 3584 3203 3211 
Q 3513 2838 3513 2113 
z
" transform="scale(0.015625)"/>
      <path id="DejaVuSans-66" d="M 2375 4863 
L 2375 4384 
L 1825 4384 
Q 1516 4384 1395 4259 
Q 1275 4134 1275 3809 
L 1275 3500 
L 2222 3500 
L 2222 3053 
L 1275 3053 
L 1275 0 
L 697 0 
L 697 3053 
L 147 3053 
L 147 3500 
L 697 3500 
L 697 3744 
Q 697 4328 969 4595 
Q 1241 4863 1831 4863 
L 2375 4863 
z
" transform="scale(0.015625)"/>
     </defs>
     <use xlink:href="#DejaVuSans-63"/>
     <use xlink:href="#DejaVuSans-6f" x="54.980469"/>
     <use xlink:href="#DejaVuSans-6e" x="116.162109"/>
     <use xlink:href="#DejaVuSans-66" x="179.541016"/>
     <use xlink:href="#DejaVuSans-69" x="214.746094"/>
     <use xlink:href="#DejaVuSans-67" x="242.529297"/>
     <use xlink:href="#DejaVuSans-75" x="306.005859"/>
     <use xlink:href="#DejaVuSans-72" x="369.384766"/>
     <use xlink:href="#DejaVuSans-61" x="410.498047"/>
     <use xlink:href="#DejaVuSans-74" x="471.777344"/>
     <use xlink:href="#DejaVuSans-69" x="510.986328"/>
     <use xlink:href="#DejaVuSans-6f" x="538.769531"/>
     <use xlink:href="#DejaVuSans-6e" x="599.951172"/>
    </g>
   </g>
   <g id="patch_4">
    <path d="M 542.982188 113.954219 
L 570.342188 113.954219 
L 570.342188 86.594219 
L 542.982188 86.594219 
z
" clip-path="url(#p799e761d7d)" style="fill: #f2f2f2; stroke: #cccccc; stroke-linejoin: miter"/>
   </g>
   <g id="line2d_25">
    <path d="M 556.662187 100.274219 
" clip-path="url(#p799e761d7d)" style="fill: none; stroke: #1f77b4; stroke-width: 1.5; stroke-linecap: square"/>
    <defs>
     <path id="m1a2d8d2550" d="M 0 4.874248 
C 1.292666 4.874248 2.532561 4.360667 3.446614 3.446614 
C 4.360667 2.532561 4.874248 1.292666 4.874248 0 
C 4.874248 -1.292666 4.360667 -2.532561 3.446614 -3.446614 
C 2.532561 -4.360667 1.292666 -4.874248 0 -4.874248 
C -1.292666 -4.874248 -2.532561 -4.360667 -3.446614 -3.446614 
C -4.360667 -2.532561 -4.874248 -1.292666 -4.874248 0 
C -4.874248 1.292666 -4.360667 2.532561 -3.446614 3.446614 
C -2.532561 4.360667 -1.292666 4.874248 0 4.874248 
z
" style="stroke: #000000; stroke-width: 0.886227"/>
    </defs>
    <g clip-path="url(#p799e761d7d)">
     <use xlink:href="#m1a2d8d2550" x="556.662187" y="100.274219" style="fill: #fc8d59; stroke: #000000; stroke-width: 0.886227"/>
    </g>
   </g>
   <g id="text_12">
    <!-- node2vec -->
    <g transform="translate(573.342188 104.468469) scale(0.152 -0.152)">
     <defs>
      <path id="DejaVuSans-64" d="M 2906 2969 
L 2906 4863 
L 3481 4863 
L 3481 0 
L 2906 0 
L 2906 525 
Q 2725 213 2448 61 
Q 2172 -91 1784 -91 
Q 1150 -91 751 415 
Q 353 922 353 1747 
Q 353 2572 751 3078 
Q 1150 3584 1784 3584 
Q 2172 3584 2448 3432 
Q 2725 3281 2906 2969 
z
M 947 1747 
Q 947 1113 1208 752 
Q 1469 391 1925 391 
Q 2381 391 2643 752 
Q 2906 1113 2906 1747 
Q 2906 2381 2643 2742 
Q 2381 3103 1925 3103 
Q 1469 3103 1208 2742 
Q 947 2381 947 1747 
z
" transform="scale(0.015625)"/>
     </defs>
     <use xlink:href="#DejaVuSans-6e"/>
     <use xlink:href="#DejaVuSans-6f" x="63.378906"/>
     <use xlink:href="#DejaVuSans-64" x="124.560547"/>
     <use xlink:href="#DejaVuSans-65" x="188.037109"/>
     <use xlink:href="#DejaVuSans-32" x="249.560547"/>
     <use xlink:href="#DejaVuSans-76" x="313.183594"/>
     <use xlink:href="#DejaVuSans-65" x="372.363281"/>
     <use xlink:href="#DejaVuSans-63" x="433.886719"/>
    </g>
   </g>
   <g id="patch_5">
    <path d="M 542.982188 143.314219 
L 570.342188 143.314219 
L 570.342188 115.954219 
L 542.982188 115.954219 
z
" clip-path="url(#pbf36fb366a)" style="fill: #f2f2f2; stroke: #cccccc; stroke-linejoin: miter"/>
   </g>
   <g id="line2d_26">
    <path d="M 556.662187 129.634219 
" clip-path="url(#pbf36fb366a)" style="fill: none; stroke: #1f77b4; stroke-width: 1.5; stroke-linecap: square"/>
    <defs>
     <path id="m2a36bc9e70" d="M 0 4.874248 
C 1.292666 4.874248 2.532561 4.360667 3.446614 3.446614 
C 4.360667 2.532561 4.874248 1.292666 4.874248 0 
C 4.874248 -1.292666 4.360667 -2.532561 3.446614 -3.446614 
C 2.532561 -4.360667 1.292666 -4.874248 0 -4.874248 
C -1.292666 -4.874248 -2.532561 -4.360667 -3.446614 -3.446614 
C -4.360667 -2.532561 -4.874248 -1.292666 -4.874248 0 
C -4.874248 1.292666 -4.360667 2.532561 -3.446614 3.446614 
C -2.532561 4.360667 -1.292666 4.874248 0 4.874248 
z
" style="stroke: #000000; stroke-width: 0.886227"/>
    </defs>
    <g clip-path="url(#pbf36fb366a)">
     <use xlink:href="#m2a36bc9e70" x="556.662187" y="129.634219" style="fill: #ffffbf; stroke: #000000; stroke-width: 0.886227"/>
    </g>
   </g>
   <g id="text_13">
    <!-- low awareness -->
    <g transform="translate(573.342188 133.828469) scale(0.152 -0.152)">
     <defs>
      <path id="DejaVuSans-77" d="M 269 3500 
L 844 3500 
L 1563 769 
L 2278 3500 
L 2956 3500 
L 3675 769 
L 4391 3500 
L 4966 3500 
L 4050 0 
L 3372 0 
L 2619 2869 
L 1863 0 
L 1184 0 
L 269 3500 
z
" transform="scale(0.015625)"/>
     </defs>
     <use xlink:href="#DejaVuSans-6c"/>
     <use xlink:href="#DejaVuSans-6f" x="27.783203"/>
     <use xlink:href="#DejaVuSans-77" x="88.964844"/>
     <use xlink:href="#DejaVuSans-20" x="170.751953"/>
     <use xlink:href="#DejaVuSans-61" x="202.539062"/>
     <use xlink:href="#DejaVuSans-77" x="263.818359"/>
     <use xlink:href="#DejaVuSans-61" x="345.605469"/>
     <use xlink:href="#DejaVuSans-72" x="406.884766"/>
     <use xlink:href="#DejaVuSans-65" x="445.748047"/>
     <use xlink:href="#DejaVuSans-6e" x="507.271484"/>
     <use xlink:href="#DejaVuSans-65" x="570.650391"/>
     <use xlink:href="#DejaVuSans-73" x="632.173828"/>
     <use xlink:href="#DejaVuSans-73" x="684.273438"/>
    </g>
   </g>
   <g id="patch_6">
    <path d="M 542.982188 172.674219 
L 570.342188 172.674219 
L 570.342188 145.314219 
L 542.982188 145.314219 
z
" clip-path="url(#pf575d2118e)" style="fill: #f2f2f2; stroke: #cccccc; stroke-linejoin: miter"/>
   </g>
   <g id="line2d_27">
    <path d="M 556.662187 158.994219 
" clip-path="url(#pf575d2118e)" style="fill: none; stroke: #1f77b4; stroke-width: 1.5; stroke-linecap: square"/>
    <defs>
     <path id="m968bfd1c71" d="M 0 4.874248 
C 1.292666 4.874248 2.532561 4.360667 3.446614 3.446614 
C 4.360667 2.532561 4.874248 1.292666 4.874248 0 
C 4.874248 -1.292666 4.360667 -2.532561 3.446614 -3.446614 
C 2.532561 -4.360667 1.292666 -4.874248 0 -4.874248 
C -1.292666 -4.874248 -2.532561 -4.360667 -3.446614 -3.446614 
C -4.360667 -2.532561 -4.874248 -1.292666 -4.874248 0 
C -4.874248 1.292666 -4.360667 2.532561 -3.446614 3.446614 
C -2.532561 4.360667 -1.292666 4.874248 0 4.874248 
z
" style="stroke: #000000; stroke-width: 0.886227"/>
    </defs>
    <g clip-path="url(#pf575d2118e)">
     <use xlink:href="#m968bfd1c71" x="556.662187" y="158.994219" style="fill: #91bfdb; stroke: #000000; stroke-width: 0.886227"/>
    </g>
   </g>
   <g id="text_14">
    <!-- high awareness -->
    <g transform="translate(573.342188 163.188469) scale(0.152 -0.152)">
     <defs>
      <path id="DejaVuSans-68" d="M 3513 2113 
L 3513 0 
L 2938 0 
L 2938 2094 
Q 2938 2591 2744 2837 
Q 2550 3084 2163 3084 
Q 1697 3084 1428 2787 
Q 1159 2491 1159 1978 
L 1159 0 
L 581 0 
L 581 4863 
L 1159 4863 
L 1159 2956 
Q 1366 3272 1645 3428 
Q 1925 3584 2291 3584 
Q 2894 3584 3203 3211 
Q 3513 2838 3513 2113 
z
" transform="scale(0.015625)"/>
     </defs>
     <use xlink:href="#DejaVuSans-68"/>
     <use xlink:href="#DejaVuSans-69" x="63.378906"/>
     <use xlink:href="#DejaVuSans-67" x="91.162109"/>
     <use xlink:href="#DejaVuSans-68" x="154.638672"/>
     <use xlink:href="#DejaVuSans-20" x="218.017578"/>
     <use xlink:href="#DejaVuSans-61" x="249.804688"/>
     <use xlink:href="#DejaVuSans-77" x="311.083984"/>
     <use xlink:href="#DejaVuSans-61" x="392.871094"/>
     <use xlink:href="#DejaVuSans-72" x="454.150391"/>
     <use xlink:href="#DejaVuSans-65" x="493.013672"/>
     <use xlink:href="#DejaVuSans-6e" x="554.537109"/>
     <use xlink:href="#DejaVuSans-65" x="617.916016"/>
     <use xlink:href="#DejaVuSans-73" x="679.439453"/>
     <use xlink:href="#DejaVuSans-73" x="731.539062"/>
    </g>
   </g>
  </g>
 </g>
 <defs>
  <clipPath id="p7d5796c763">
   <rect x="75.582188" y="7.2" width="446.4" height="221.76"/>
  </clipPath>
  <clipPath id="p799e761d7d">
   <path d="M 542.982188 113.954219 
L 542.982188 86.594219 
L 570.342188 86.594219 
L 570.342188 113.954219 
"/>
  </clipPath>
  <clipPath id="pbf36fb366a">
   <path d="M 542.982188 143.314219 
L 542.982188 115.954219 
L 570.342188 115.954219 
L 570.342188 143.314219 
"/>
  </clipPath>
  <clipPath id="pf575d2118e">
   <path d="M 542.982188 172.674219 
L 542.982188 145.314219 
L 570.342188 145.314219 
L 570.342188 172.674219 
"/>
  </clipPath>
 </defs>
</svg>
