<?xml version="1.0" encoding="utf-8" standalone="no"?>
<!DOCTYPE svg PUBLIC "-//W3C//DTD SVG 1.1//EN"
  "http://www.w3.org/Graphics/SVG/1.1/DTD/svg11.dtd">
<svg xmlns:xlink="http://www.w3.org/1999/xlink" width="713.453188pt" height="285.409187pt" viewBox="0 0 713.453188 285.409187" xmlns="http://www.w3.org/2000/svg" version="1.1">
 <metadata>
  <rdf:RDF xmlns:dc="http://purl.org/dc/elements/1.1/" xmlns:cc="http://creativecommons.org/ns#" xmlns:rdf="http://www.w3.org/1999/02/22-rdf-syntax-ns#">
   <cc:Work>
    <dc:type rdf:resource="http://purl.org/dc/dcmitype/StillImage"/>
    <dc:date>2024-07-21T16:27:39.901644</dc:date>
    <dc:format>image/svg+xml</dc:format>
    <dc:creator>
     <cc:Agent>
      <dc:title>Matplotlib v3.6.2, https://matplotlib.org/</dc:title>
     </cc:Agent>
    </dc:creator>
   </cc:Work>
  </rdf:RDF>
 </metadata>
 <defs>
  <style type="text/css">*{stroke-linejoin: round; stroke-linecap: butt}</style>
 </defs>
 <g id="figure_1">
  <g id="patch_1">
   <path d="M 0 285.409187 
L 713.453188 285.409187 
L 713.453188 0 
L 0 0 
z
" style="fill: #ffffff; stroke: #ffffff; stroke-linejoin: miter"/>
  </g>
  <g id="axes_1">
   <g id="patch_2">
    <path d="M 75.582188 228.96 
L 521.982188 228.96 
L 521.982188 7.2 
L 75.582188 7.2 
z
" style="fill: #ffffff; stroke: #7f7f7f; stroke-linejoin: miter"/>
   </g>
   <g id="matplotlib.axis_1">
    <g id="xtick_1">
     <g id="line2d_1">
      <path d="M 164.780428 228.96 
L 164.780428 7.2 
" clip-path="url(#p994559a75b)" style="fill: none; stroke: #e5e5e5; stroke-width: 0.8"/>
     </g>
     <g id="line2d_2">
      <path d="M 164.780428 228.96 
" style="fill: none; stroke: #000000; stroke-width: 1.5"/>
      <defs>
       <path id="me0007f48b3" d="M 0 0 
L 0 4.75 
" style="stroke: #333333"/>
      </defs>
      <g>
       <use xlink:href="#me0007f48b3" x="164.780428" y="228.96" style="stroke: #333333"/>
      </g>
     </g>
     <g id="text_1">
      <!-- 0.2 -->
      <g style="fill: #4d4d4d" transform="translate(152.694053 249.059625) scale(0.152 -0.152)">
       <defs>
        <path id="DejaVuSans-30" d="M 2034 4250 
Q 1547 4250 1301 3770 
Q 1056 3291 1056 2328 
Q 1056 1369 1301 889 
Q 1547 409 2034 409 
Q 2525 409 2770 889 
Q 3016 1369 3016 2328 
Q 3016 3291 2770 3770 
Q 2525 4250 2034 4250 
z
M 2034 4750 
Q 2819 4750 3233 4129 
Q 3647 3509 3647 2328 
Q 3647 1150 3233 529 
Q 2819 -91 2034 -91 
Q 1250 -91 836 529 
Q 422 1150 422 2328 
Q 422 3509 836 4129 
Q 1250 4750 2034 4750 
z
" transform="scale(0.015625)"/>
        <path id="DejaVuSans-2e" d="M 684 794 
L 1344 794 
L 1344 0 
L 684 0 
L 684 794 
z
" transform="scale(0.015625)"/>
        <path id="DejaVuSans-32" d="M 1228 531 
L 3431 531 
L 3431 0 
L 469 0 
L 469 531 
Q 828 903 1448 1529 
Q 2069 2156 2228 2338 
Q 2531 2678 2651 2914 
Q 2772 3150 2772 3378 
Q 2772 3750 2511 3984 
Q 2250 4219 1831 4219 
Q 1534 4219 1204 4116 
Q 875 4013 500 3803 
L 500 4441 
Q 881 4594 1212 4672 
Q 1544 4750 1819 4750 
Q 2544 4750 2975 4387 
Q 3406 4025 3406 3419 
Q 3406 3131 3298 2873 
Q 3191 2616 2906 2266 
Q 2828 2175 2409 1742 
Q 1991 1309 1228 531 
z
" transform="scale(0.015625)"/>
       </defs>
       <use xlink:href="#DejaVuSans-30"/>
       <use xlink:href="#DejaVuSans-2e" x="63.623047"/>
       <use xlink:href="#DejaVuSans-32" x="95.410156"/>
      </g>
     </g>
    </g>
    <g id="xtick_2">
     <g id="line2d_3">
      <path d="M 284.577405 228.96 
L 284.577405 7.2 
" clip-path="url(#p994559a75b)" style="fill: none; stroke: #e5e5e5; stroke-width: 0.8"/>
     </g>
     <g id="line2d_4">
      <path d="M 284.577405 228.96 
" style="fill: none; stroke: #000000; stroke-width: 1.5"/>
      <g>
       <use xlink:href="#me0007f48b3" x="284.577405" y="228.96" style="stroke: #333333"/>
      </g>
     </g>
     <g id="text_2">
      <!-- 0.4 -->
      <g style="fill: #4d4d4d" transform="translate(272.49103 249.059625) scale(0.152 -0.152)">
       <defs>
        <path id="DejaVuSans-34" d="M 2419 4116 
L 825 1625 
L 2419 1625 
L 2419 4116 
z
M 2253 4666 
L 3047 4666 
L 3047 1625 
L 3713 1625 
L 3713 1100 
L 3047 1100 
L 3047 0 
L 2419 0 
L 2419 1100 
L 313 1100 
L 313 1709 
L 2253 4666 
z
" transform="scale(0.015625)"/>
       </defs>
       <use xlink:href="#DejaVuSans-30"/>
       <use xlink:href="#DejaVuSans-2e" x="63.623047"/>
       <use xlink:href="#DejaVuSans-34" x="95.410156"/>
      </g>
     </g>
    </g>
    <g id="xtick_3">
     <g id="line2d_5">
      <path d="M 404.374382 228.96 
L 404.374382 7.2 
" clip-path="url(#p994559a75b)" style="fill: none; stroke: #e5e5e5; stroke-width: 0.8"/>
     </g>
     <g id="line2d_6">
      <path d="M 404.374382 228.96 
" style="fill: none; stroke: #000000; stroke-width: 1.5"/>
      <g>
       <use xlink:href="#me0007f48b3" x="404.374382" y="228.96" style="stroke: #333333"/>
      </g>
     </g>
     <g id="text_3">
      <!-- 0.6 -->
      <g style="fill: #4d4d4d" transform="translate(392.288007 249.059625) scale(0.152 -0.152)">
       <defs>
        <path id="DejaVuSans-36" d="M 2113 2584 
Q 1688 2584 1439 2293 
Q 1191 2003 1191 1497 
Q 1191 994 1439 701 
Q 1688 409 2113 409 
Q 2538 409 2786 701 
Q 3034 994 3034 1497 
Q 3034 2003 2786 2293 
Q 2538 2584 2113 2584 
z
M 3366 4563 
L 3366 3988 
Q 3128 4100 2886 4159 
Q 2644 4219 2406 4219 
Q 1781 4219 1451 3797 
Q 1122 3375 1075 2522 
Q 1259 2794 1537 2939 
Q 1816 3084 2150 3084 
Q 2853 3084 3261 2657 
Q 3669 2231 3669 1497 
Q 3669 778 3244 343 
Q 2819 -91 2113 -91 
Q 1303 -91 875 529 
Q 447 1150 447 2328 
Q 447 3434 972 4092 
Q 1497 4750 2381 4750 
Q 2619 4750 2861 4703 
Q 3103 4656 3366 4563 
z
" transform="scale(0.015625)"/>
       </defs>
       <use xlink:href="#DejaVuSans-30"/>
       <use xlink:href="#DejaVuSans-2e" x="63.623047"/>
       <use xlink:href="#DejaVuSans-36" x="95.410156"/>
      </g>
     </g>
    </g>
    <g id="xtick_4">
     <g id="line2d_7">
      <path d="M 104.881939 228.96 
L 104.881939 7.2 
" clip-path="url(#p994559a75b)" style="fill: none; stroke: #fafafa"/>
     </g>
    </g>
    <g id="xtick_5">
     <g id="line2d_8">
      <path d="M 224.678916 228.96 
L 224.678916 7.2 
" clip-path="url(#p994559a75b)" style="fill: none; stroke: #fafafa"/>
     </g>
    </g>
    <g id="xtick_6">
     <g id="line2d_9">
      <path d="M 344.475894 228.96 
L 344.475894 7.2 
" clip-path="url(#p994559a75b)" style="fill: none; stroke: #fafafa"/>
     </g>
    </g>
    <g id="xtick_7">
     <g id="line2d_10">
      <path d="M 464.272871 228.96 
L 464.272871 7.2 
" clip-path="url(#p994559a75b)" style="fill: none; stroke: #fafafa"/>
     </g>
    </g>
    <g id="text_4">
     <!-- relative group size -->
     <g transform="translate(203.707188 274.257781) scale(0.19 -0.19)">
      <defs>
       <path id="DejaVuSans-72" d="M 2631 2963 
Q 2534 3019 2420 3045 
Q 2306 3072 2169 3072 
Q 1681 3072 1420 2755 
Q 1159 2438 1159 1844 
L 1159 0 
L 581 0 
L 581 3500 
L 1159 3500 
L 1159 2956 
Q 1341 3275 1631 3429 
Q 1922 3584 2338 3584 
Q 2397 3584 2469 3576 
Q 2541 3569 2628 3553 
L 2631 2963 
z
" transform="scale(0.015625)"/>
       <path id="DejaVuSans-65" d="M 3597 1894 
L 3597 1613 
L 953 1613 
Q 991 1019 1311 708 
Q 1631 397 2203 397 
Q 2534 397 2845 478 
Q 3156 559 3463 722 
L 3463 178 
Q 3153 47 2828 -22 
Q 2503 -91 2169 -91 
Q 1331 -91 842 396 
Q 353 884 353 1716 
Q 353 2575 817 3079 
Q 1281 3584 2069 3584 
Q 2775 3584 3186 3129 
Q 3597 2675 3597 1894 
z
M 3022 2063 
Q 3016 2534 2758 2815 
Q 2500 3097 2075 3097 
Q 1594 3097 1305 2825 
Q 1016 2553 972 2059 
L 3022 2063 
z
" transform="scale(0.015625)"/>
       <path id="DejaVuSans-6c" d="M 603 4863 
L 1178 4863 
L 1178 0 
L 603 0 
L 603 4863 
z
" transform="scale(0.015625)"/>
       <path id="DejaVuSans-61" d="M 2194 1759 
Q 1497 1759 1228 1600 
Q 959 1441 959 1056 
Q 959 750 1161 570 
Q 1363 391 1709 391 
Q 2188 391 2477 730 
Q 2766 1069 2766 1631 
L 2766 1759 
L 2194 1759 
z
M 3341 1997 
L 3341 0 
L 2766 0 
L 2766 531 
Q 2569 213 2275 61 
Q 1981 -91 1556 -91 
Q 1019 -91 701 211 
Q 384 513 384 1019 
Q 384 1609 779 1909 
Q 1175 2209 1959 2209 
L 2766 2209 
L 2766 2266 
Q 2766 2663 2505 2880 
Q 2244 3097 1772 3097 
Q 1472 3097 1187 3025 
Q 903 2953 641 2809 
L 641 3341 
Q 956 3463 1253 3523 
Q 1550 3584 1831 3584 
Q 2591 3584 2966 3190 
Q 3341 2797 3341 1997 
z
" transform="scale(0.015625)"/>
       <path id="DejaVuSans-74" d="M 1172 4494 
L 1172 3500 
L 2356 3500 
L 2356 3053 
L 1172 3053 
L 1172 1153 
Q 1172 725 1289 603 
Q 1406 481 1766 481 
L 2356 481 
L 2356 0 
L 1766 0 
Q 1100 0 847 248 
Q 594 497 594 1153 
L 594 3053 
L 172 3053 
L 172 3500 
L 594 3500 
L 594 4494 
L 1172 4494 
z
" transform="scale(0.015625)"/>
       <path id="DejaVuSans-69" d="M 603 3500 
L 1178 3500 
L 1178 0 
L 603 0 
L 603 3500 
z
M 603 4863 
L 1178 4863 
L 1178 4134 
L 603 4134 
L 603 4863 
z
" transform="scale(0.015625)"/>
       <path id="DejaVuSans-76" d="M 191 3500 
L 800 3500 
L 1894 563 
L 2988 3500 
L 3597 3500 
L 2284 0 
L 1503 0 
L 191 3500 
z
" transform="scale(0.015625)"/>
       <path id="DejaVuSans-20" transform="scale(0.015625)"/>
       <path id="DejaVuSans-67" d="M 2906 1791 
Q 2906 2416 2648 2759 
Q 2391 3103 1925 3103 
Q 1463 3103 1205 2759 
Q 947 2416 947 1791 
Q 947 1169 1205 825 
Q 1463 481 1925 481 
Q 2391 481 2648 825 
Q 2906 1169 2906 1791 
z
M 3481 434 
Q 3481 -459 3084 -895 
Q 2688 -1331 1869 -1331 
Q 1566 -1331 1297 -1286 
Q 1028 -1241 775 -1147 
L 775 -588 
Q 1028 -725 1275 -790 
Q 1522 -856 1778 -856 
Q 2344 -856 2625 -561 
Q 2906 -266 2906 331 
L 2906 616 
Q 2728 306 2450 153 
Q 2172 0 1784 0 
Q 1141 0 747 490 
Q 353 981 353 1791 
Q 353 2603 747 3093 
Q 1141 3584 1784 3584 
Q 2172 3584 2450 3431 
Q 2728 3278 2906 2969 
L 2906 3500 
L 3481 3500 
L 3481 434 
z
" transform="scale(0.015625)"/>
       <path id="DejaVuSans-6f" d="M 1959 3097 
Q 1497 3097 1228 2736 
Q 959 2375 959 1747 
Q 959 1119 1226 758 
Q 1494 397 1959 397 
Q 2419 397 2687 759 
Q 2956 1122 2956 1747 
Q 2956 2369 2687 2733 
Q 2419 3097 1959 3097 
z
M 1959 3584 
Q 2709 3584 3137 3096 
Q 3566 2609 3566 1747 
Q 3566 888 3137 398 
Q 2709 -91 1959 -91 
Q 1206 -91 779 398 
Q 353 888 353 1747 
Q 353 2609 779 3096 
Q 1206 3584 1959 3584 
z
" transform="scale(0.015625)"/>
       <path id="DejaVuSans-75" d="M 544 1381 
L 544 3500 
L 1119 3500 
L 1119 1403 
Q 1119 906 1312 657 
Q 1506 409 1894 409 
Q 2359 409 2629 706 
Q 2900 1003 2900 1516 
L 2900 3500 
L 3475 3500 
L 3475 0 
L 2900 0 
L 2900 538 
Q 2691 219 2414 64 
Q 2138 -91 1772 -91 
Q 1169 -91 856 284 
Q 544 659 544 1381 
z
M 1991 3584 
L 1991 3584 
z
" transform="scale(0.015625)"/>
       <path id="DejaVuSans-70" d="M 1159 525 
L 1159 -1331 
L 581 -1331 
L 581 3500 
L 1159 3500 
L 1159 2969 
Q 1341 3281 1617 3432 
Q 1894 3584 2278 3584 
Q 2916 3584 3314 3078 
Q 3713 2572 3713 1747 
Q 3713 922 3314 415 
Q 2916 -91 2278 -91 
Q 1894 -91 1617 61 
Q 1341 213 1159 525 
z
M 3116 1747 
Q 3116 2381 2855 2742 
Q 2594 3103 2138 3103 
Q 1681 3103 1420 2742 
Q 1159 2381 1159 1747 
Q 1159 1113 1420 752 
Q 1681 391 2138 391 
Q 2594 391 2855 752 
Q 3116 1113 3116 1747 
z
" transform="scale(0.015625)"/>
       <path id="DejaVuSans-73" d="M 2834 3397 
L 2834 2853 
Q 2591 2978 2328 3040 
Q 2066 3103 1784 3103 
Q 1356 3103 1142 2972 
Q 928 2841 928 2578 
Q 928 2378 1081 2264 
Q 1234 2150 1697 2047 
L 1894 2003 
Q 2506 1872 2764 1633 
Q 3022 1394 3022 966 
Q 3022 478 2636 193 
Q 2250 -91 1575 -91 
Q 1294 -91 989 -36 
Q 684 19 347 128 
L 347 722 
Q 666 556 975 473 
Q 1284 391 1588 391 
Q 1994 391 2212 530 
Q 2431 669 2431 922 
Q 2431 1156 2273 1281 
Q 2116 1406 1581 1522 
L 1381 1569 
Q 847 1681 609 1914 
Q 372 2147 372 2553 
Q 372 3047 722 3315 
Q 1072 3584 1716 3584 
Q 2034 3584 2315 3537 
Q 2597 3491 2834 3397 
z
" transform="scale(0.015625)"/>
       <path id="DejaVuSans-7a" d="M 353 3500 
L 3084 3500 
L 3084 2975 
L 922 459 
L 3084 459 
L 3084 0 
L 275 0 
L 275 525 
L 2438 3041 
L 353 3041 
L 353 3500 
z
" transform="scale(0.015625)"/>
      </defs>
      <use xlink:href="#DejaVuSans-72"/>
      <use xlink:href="#DejaVuSans-65" x="38.863281"/>
      <use xlink:href="#DejaVuSans-6c" x="100.386719"/>
      <use xlink:href="#DejaVuSans-61" x="128.169922"/>
      <use xlink:href="#DejaVuSans-74" x="189.449219"/>
      <use xlink:href="#DejaVuSans-69" x="228.658203"/>
      <use xlink:href="#DejaVuSans-76" x="256.441406"/>
      <use xlink:href="#DejaVuSans-65" x="315.621094"/>
      <use xlink:href="#DejaVuSans-20" x="377.144531"/>
      <use xlink:href="#DejaVuSans-67" x="408.931641"/>
      <use xlink:href="#DejaVuSans-72" x="472.408203"/>
      <use xlink:href="#DejaVuSans-6f" x="511.271484"/>
      <use xlink:href="#DejaVuSans-75" x="572.453125"/>
      <use xlink:href="#DejaVuSans-70" x="635.832031"/>
      <use xlink:href="#DejaVuSans-20" x="699.308594"/>
      <use xlink:href="#DejaVuSans-73" x="731.095703"/>
      <use xlink:href="#DejaVuSans-69" x="783.195312"/>
      <use xlink:href="#DejaVuSans-7a" x="810.978516"/>
      <use xlink:href="#DejaVuSans-65" x="863.46875"/>
     </g>
    </g>
   </g>
   <g id="matplotlib.axis_2">
    <g id="ytick_1">
     <g id="line2d_11">
      <path d="M 75.582188 183.150543 
L 521.982188 183.150543 
" clip-path="url(#p994559a75b)" style="fill: none; stroke: #e5e5e5; stroke-width: 0.8"/>
     </g>
     <g id="line2d_12">
      <path d="M 75.582188 183.150543 
" style="fill: none; stroke: #000000; stroke-width: 1.5"/>
      <defs>
       <path id="m4bee3e0c67" d="M 0 0 
L -4.75 0 
" style="stroke: #333333"/>
      </defs>
      <g>
       <use xlink:href="#m4bee3e0c67" x="75.582188" y="183.150543" style="stroke: #333333"/>
      </g>
     </g>
     <g id="text_5">
      <!-- 0.25 -->
      <g style="fill: #4d4d4d" transform="translate(33.188438 187.344793) scale(0.152 -0.152)">
       <defs>
        <path id="DejaVuSans-35" d="M 691 4666 
L 3169 4666 
L 3169 4134 
L 1269 4134 
L 1269 2991 
Q 1406 3038 1543 3061 
Q 1681 3084 1819 3084 
Q 2600 3084 3056 2656 
Q 3513 2228 3513 1497 
Q 3513 744 3044 326 
Q 2575 -91 1722 -91 
Q 1428 -91 1123 -41 
Q 819 9 494 109 
L 494 744 
Q 775 591 1075 516 
Q 1375 441 1709 441 
Q 2250 441 2565 725 
Q 2881 1009 2881 1497 
Q 2881 1984 2565 2268 
Q 2250 2553 1709 2553 
Q 1456 2553 1204 2497 
Q 953 2441 691 2322 
L 691 4666 
z
" transform="scale(0.015625)"/>
       </defs>
       <use xlink:href="#DejaVuSans-30"/>
       <use xlink:href="#DejaVuSans-2e" x="63.623047"/>
       <use xlink:href="#DejaVuSans-32" x="95.410156"/>
       <use xlink:href="#DejaVuSans-35" x="159.033203"/>
      </g>
     </g>
    </g>
    <g id="ytick_2">
     <g id="line2d_13">
      <path d="M 75.582188 123.119428 
L 521.982188 123.119428 
" clip-path="url(#p994559a75b)" style="fill: none; stroke: #e5e5e5; stroke-width: 0.8"/>
     </g>
     <g id="line2d_14">
      <path d="M 75.582188 123.119428 
" style="fill: none; stroke: #000000; stroke-width: 1.5"/>
      <g>
       <use xlink:href="#m4bee3e0c67" x="75.582188" y="123.119428" style="stroke: #333333"/>
      </g>
     </g>
     <g id="text_6">
      <!-- 0.50 -->
      <g style="fill: #4d4d4d" transform="translate(33.188438 127.313678) scale(0.152 -0.152)">
       <use xlink:href="#DejaVuSans-30"/>
       <use xlink:href="#DejaVuSans-2e" x="63.623047"/>
       <use xlink:href="#DejaVuSans-35" x="95.410156"/>
       <use xlink:href="#DejaVuSans-30" x="159.033203"/>
      </g>
     </g>
    </g>
    <g id="ytick_3">
     <g id="line2d_15">
      <path d="M 75.582188 63.088313 
L 521.982188 63.088313 
" clip-path="url(#p994559a75b)" style="fill: none; stroke: #e5e5e5; stroke-width: 0.8"/>
     </g>
     <g id="line2d_16">
      <path d="M 75.582188 63.088313 
" style="fill: none; stroke: #000000; stroke-width: 1.5"/>
      <g>
       <use xlink:href="#m4bee3e0c67" x="75.582188" y="63.088313" style="stroke: #333333"/>
      </g>
     </g>
     <g id="text_7">
      <!-- 0.75 -->
      <g style="fill: #4d4d4d" transform="translate(33.188438 67.282563) scale(0.152 -0.152)">
       <defs>
        <path id="DejaVuSans-37" d="M 525 4666 
L 3525 4666 
L 3525 4397 
L 1831 0 
L 1172 0 
L 2766 4134 
L 525 4134 
L 525 4666 
z
" transform="scale(0.015625)"/>
       </defs>
       <use xlink:href="#DejaVuSans-30"/>
       <use xlink:href="#DejaVuSans-2e" x="63.623047"/>
       <use xlink:href="#DejaVuSans-37" x="95.410156"/>
       <use xlink:href="#DejaVuSans-35" x="159.033203"/>
      </g>
     </g>
    </g>
    <g id="ytick_4">
     <g id="line2d_17">
      <path d="M 75.582188 213.1661 
L 521.982188 213.1661 
" clip-path="url(#p994559a75b)" style="fill: none; stroke: #fafafa"/>
     </g>
    </g>
    <g id="ytick_5">
     <g id="line2d_18">
      <path d="M 75.582188 153.134985 
L 521.982188 153.134985 
" clip-path="url(#p994559a75b)" style="fill: none; stroke: #fafafa"/>
     </g>
    </g>
    <g id="ytick_6">
     <g id="line2d_19">
      <path d="M 75.582188 93.103871 
L 521.982188 93.103871 
" clip-path="url(#p994559a75b)" style="fill: none; stroke: #fafafa"/>
     </g>
    </g>
    <g id="ytick_7">
     <g id="line2d_20">
      <path d="M 75.582188 33.072756 
L 521.982188 33.072756 
" clip-path="url(#p994559a75b)" style="fill: none; stroke: #fafafa"/>
     </g>
    </g>
    <g id="text_8">
     <!-- F1 score -->
     <g transform="translate(21.637031 156.689922) rotate(-90) scale(0.19 -0.19)">
      <defs>
       <path id="DejaVuSans-46" d="M 628 4666 
L 3309 4666 
L 3309 4134 
L 1259 4134 
L 1259 2759 
L 3109 2759 
L 3109 2228 
L 1259 2228 
L 1259 0 
L 628 0 
L 628 4666 
z
" transform="scale(0.015625)"/>
       <path id="DejaVuSans-31" d="M 794 531 
L 1825 531 
L 1825 4091 
L 703 3866 
L 703 4441 
L 1819 4666 
L 2450 4666 
L 2450 531 
L 3481 531 
L 3481 0 
L 794 0 
L 794 531 
z
" transform="scale(0.015625)"/>
       <path id="DejaVuSans-63" d="M 3122 3366 
L 3122 2828 
Q 2878 2963 2633 3030 
Q 2388 3097 2138 3097 
Q 1578 3097 1268 2742 
Q 959 2388 959 1747 
Q 959 1106 1268 751 
Q 1578 397 2138 397 
Q 2388 397 2633 464 
Q 2878 531 3122 666 
L 3122 134 
Q 2881 22 2623 -34 
Q 2366 -91 2075 -91 
Q 1284 -91 818 406 
Q 353 903 353 1747 
Q 353 2603 823 3093 
Q 1294 3584 2113 3584 
Q 2378 3584 2631 3529 
Q 2884 3475 3122 3366 
z
" transform="scale(0.015625)"/>
      </defs>
      <use xlink:href="#DejaVuSans-46"/>
      <use xlink:href="#DejaVuSans-31" x="57.519531"/>
      <use xlink:href="#DejaVuSans-20" x="121.142578"/>
      <use xlink:href="#DejaVuSans-73" x="152.929688"/>
      <use xlink:href="#DejaVuSans-63" x="205.029297"/>
      <use xlink:href="#DejaVuSans-6f" x="260.009766"/>
      <use xlink:href="#DejaVuSans-72" x="321.191406"/>
      <use xlink:href="#DejaVuSans-65" x="360.054688"/>
     </g>
    </g>
   </g>
   <g id="PathCollection_1">
    <path d="M 160.283257 84.574207 
C 161.575923 84.574207 162.815818 84.060625 163.729871 83.146572 
C 164.643924 82.23252 165.157505 80.992624 165.157505 79.699959 
C 165.157505 78.407293 164.643924 77.167397 163.729871 76.253345 
C 162.815818 75.339292 161.575923 74.825711 160.283257 74.825711 
C 158.990591 74.825711 157.750696 75.339292 156.836643 76.253345 
C 155.92259 77.167397 155.409009 78.407293 155.409009 79.699959 
C 155.409009 80.992624 155.92259 82.23252 156.836643 83.146572 
C 157.750696 84.060625 158.990591 84.574207 160.283257 84.574207 
z
" clip-path="url(#p994559a75b)" style="fill: #fc8d59; stroke: #000000; stroke-width: 0.886227"/>
    <path d="M 160.283257 177.180511 
C 161.575923 177.180511 162.815818 176.666929 163.729871 175.752876 
C 164.643924 174.838824 165.157505 173.598928 165.157505 172.306262 
C 165.157505 171.013597 164.643924 169.773701 163.729871 168.859649 
C 162.815818 167.945596 161.575923 167.432014 160.283257 167.432014 
C 158.990591 167.432014 157.750696 167.945596 156.836643 168.859649 
C 155.92259 169.773701 155.409009 171.013597 155.409009 172.306262 
C 155.409009 173.598928 155.92259 174.838824 156.836643 175.752876 
C 157.750696 176.666929 158.990591 177.180511 160.283257 177.180511 
z
" clip-path="url(#p994559a75b)" style="fill: #ffffbf; stroke: #000000; stroke-width: 0.886227"/>
    <path d="M 160.283257 53.929496 
C 161.575923 53.929496 162.815818 53.415914 163.729871 52.501862 
C 164.643924 51.587809 165.157505 50.347914 165.157505 49.055248 
C 165.157505 47.762582 164.643924 46.522687 163.729871 45.608634 
C 162.815818 44.694581 161.575923 44.181 160.283257 44.181 
C 158.990591 44.181 157.750696 44.694581 156.836643 45.608634 
C 155.92259 46.522687 155.409009 47.762582 155.409009 49.055248 
C 155.409009 50.347914 155.92259 51.587809 156.836643 52.501862 
C 157.750696 53.415914 158.990591 53.929496 160.283257 53.929496 
z
" clip-path="url(#p994559a75b)" style="fill: #91bfdb; stroke: #000000; stroke-width: 0.886227"/>
    <path d="M 186.596491 131.3423 
C 187.889156 131.3423 189.129052 130.828719 190.043105 129.914666 
C 190.957157 129.000613 191.470739 127.760718 191.470739 126.468052 
C 191.470739 125.175386 190.957157 123.935491 190.043105 123.021438 
C 189.129052 122.107386 187.889156 121.593804 186.596491 121.593804 
C 185.303825 121.593804 184.06393 122.107386 183.149877 123.021438 
C 182.235824 123.935491 181.722243 125.175386 181.722243 126.468052 
C 181.722243 127.760718 182.235824 129.000613 183.149877 129.914666 
C 184.06393 130.828719 185.303825 131.3423 186.596491 131.3423 
z
" clip-path="url(#p994559a75b)" style="fill: #fc8d59; stroke: #000000; stroke-width: 0.886227"/>
    <path d="M 186.596491 213.883316 
C 187.889156 213.883316 189.129052 213.369734 190.043105 212.455682 
C 190.957157 211.541629 191.470739 210.301734 191.470739 209.009068 
C 191.470739 207.716402 190.957157 206.476507 190.043105 205.562454 
C 189.129052 204.648401 187.889156 204.13482 186.596491 204.13482 
C 185.303825 204.13482 184.06393 204.648401 183.149877 205.562454 
C 182.235824 206.476507 181.722243 207.716402 181.722243 209.009068 
C 181.722243 210.301734 182.235824 211.541629 183.149877 212.455682 
C 184.06393 213.369734 185.303825 213.883316 186.596491 213.883316 
z
" clip-path="url(#p994559a75b)" style="fill: #ffffbf; stroke: #000000; stroke-width: 0.886227"/>
    <path d="M 186.596491 75.303169 
C 187.889156 75.303169 189.129052 74.789587 190.043105 73.875534 
C 190.957157 72.961482 191.470739 71.721586 191.470739 70.42892 
C 191.470739 69.136255 190.957157 67.896359 190.043105 66.982307 
C 189.129052 66.068254 187.889156 65.554672 186.596491 65.554672 
C 185.303825 65.554672 184.06393 66.068254 183.149877 66.982307 
C 182.235824 67.896359 181.722243 69.136255 181.722243 70.42892 
C 181.722243 71.721586 182.235824 72.961482 183.149877 73.875534 
C 184.06393 74.789587 185.303825 75.303169 186.596491 75.303169 
z
" clip-path="url(#p994559a75b)" style="fill: #91bfdb; stroke: #000000; stroke-width: 0.886227"/>
    <path d="M 387.05549 50.090449 
C 388.348156 50.090449 389.588051 49.576867 390.502104 48.662815 
C 391.416157 47.748762 391.929738 46.508866 391.929738 45.216201 
C 391.929738 43.923535 391.416157 42.68364 390.502104 41.769587 
C 389.588051 40.855534 388.348156 40.341953 387.05549 40.341953 
C 385.762824 40.341953 384.522929 40.855534 383.608876 41.769587 
C 382.694823 42.68364 382.181242 43.923535 382.181242 45.216201 
C 382.181242 46.508866 382.694823 47.748762 383.608876 48.662815 
C 384.522929 49.576867 385.762824 50.090449 387.05549 50.090449 
z
" clip-path="url(#p994559a75b)" style="fill: #fc8d59; stroke: #000000; stroke-width: 0.886227"/>
    <path d="M 387.05549 73.905438 
C 388.348156 73.905438 389.588051 73.391857 390.502104 72.477804 
C 391.416157 71.563751 391.929738 70.323856 391.929738 69.03119 
C 391.929738 67.738524 391.416157 66.498629 390.502104 65.584576 
C 389.588051 64.670524 388.348156 64.156942 387.05549 64.156942 
C 385.762824 64.156942 384.522929 64.670524 383.608876 65.584576 
C 382.694823 66.498629 382.181242 67.738524 382.181242 69.03119 
C 382.181242 70.323856 382.694823 71.563751 383.608876 72.477804 
C 384.522929 73.391857 385.762824 73.905438 387.05549 73.905438 
z
" clip-path="url(#p994559a75b)" style="fill: #ffffbf; stroke: #000000; stroke-width: 0.886227"/>
    <path d="M 387.05549 36.509184 
C 388.348156 36.509184 389.588051 35.995603 390.502104 35.08155 
C 391.416157 34.167498 391.929738 32.927602 391.929738 31.634936 
C 391.929738 30.342271 391.416157 29.102375 390.502104 28.188322 
C 389.588051 27.27427 388.348156 26.760688 387.05549 26.760688 
C 385.762824 26.760688 384.522929 27.27427 383.608876 28.188322 
C 382.694823 29.102375 382.181242 30.342271 382.181242 31.634936 
C 382.181242 32.927602 382.694823 34.167498 383.608876 35.08155 
C 384.522929 35.995603 385.762824 36.509184 387.05549 36.509184 
z
" clip-path="url(#p994559a75b)" style="fill: #91bfdb; stroke: #000000; stroke-width: 0.886227"/>
    <path d="M 135.08305 82.469408 
C 136.375716 82.469408 137.615612 81.955827 138.529664 81.041774 
C 139.443717 80.127721 139.957298 78.887826 139.957298 77.59516 
C 139.957298 76.302495 139.443717 75.062599 138.529664 74.148546 
C 137.615612 73.234494 136.375716 72.720912 135.08305 72.720912 
C 133.790385 72.720912 132.550489 73.234494 131.636436 74.148546 
C 130.722384 75.062599 130.208802 76.302495 130.208802 77.59516 
C 130.208802 78.887826 130.722384 80.127721 131.636436 81.041774 
C 132.550489 81.955827 133.790385 82.469408 135.08305 82.469408 
z
" clip-path="url(#p994559a75b)" style="fill: #fc8d59; stroke: #000000; stroke-width: 0.886227"/>
    <path d="M 135.08305 198.464806 
C 136.375716 198.464806 137.615612 197.951224 138.529664 197.037172 
C 139.443717 196.123119 139.957298 194.883223 139.957298 193.590558 
C 139.957298 192.297892 139.443717 191.057997 138.529664 190.143944 
C 137.615612 189.229891 136.375716 188.71631 135.08305 188.71631 
C 133.790385 188.71631 132.550489 189.229891 131.636436 190.143944 
C 130.722384 191.057997 130.208802 192.297892 130.208802 193.590558 
C 130.208802 194.883223 130.722384 196.123119 131.636436 197.037172 
C 132.550489 197.951224 133.790385 198.464806 135.08305 198.464806 
z
" clip-path="url(#p994559a75b)" style="fill: #ffffbf; stroke: #000000; stroke-width: 0.886227"/>
    <path d="M 135.08305 57.263206 
C 136.375716 57.263206 137.615612 56.749625 138.529664 55.835572 
C 139.443717 54.92152 139.957298 53.681624 139.957298 52.388958 
C 139.957298 51.096293 139.443717 49.856397 138.529664 48.942344 
C 137.615612 48.028292 136.375716 47.51471 135.08305 47.51471 
C 133.790385 47.51471 132.550489 48.028292 131.636436 48.942344 
C 130.722384 49.856397 130.208802 51.096293 130.208802 52.388958 
C 130.208802 53.681624 130.722384 54.92152 131.636436 55.835572 
C 132.550489 56.749625 133.790385 57.263206 135.08305 57.263206 
z
" clip-path="url(#p994559a75b)" style="fill: #91bfdb; stroke: #000000; stroke-width: 0.886227"/>
    <path d="M 165.993968 111.15025 
C 167.286633 111.15025 168.526529 110.636668 169.440581 109.722615 
C 170.354634 108.808563 170.868216 107.568667 170.868216 106.276002 
C 170.868216 104.983336 170.354634 103.74344 169.440581 102.829388 
C 168.526529 101.915335 167.286633 101.401753 165.993968 101.401753 
C 164.701302 101.401753 163.461406 101.915335 162.547354 102.829388 
C 161.633301 103.74344 161.119719 104.983336 161.119719 106.276002 
C 161.119719 107.568667 161.633301 108.808563 162.547354 109.722615 
C 163.461406 110.636668 164.701302 111.15025 165.993968 111.15025 
z
" clip-path="url(#p994559a75b)" style="fill: #fc8d59; stroke: #000000; stroke-width: 0.886227"/>
    <path d="M 165.993968 223.754248 
C 167.286633 223.754248 168.526529 223.240667 169.440581 222.326614 
C 170.354634 221.412561 170.868216 220.172666 170.868216 218.88 
C 170.868216 217.587334 170.354634 216.347439 169.440581 215.433386 
C 168.526529 214.519333 167.286633 214.005752 165.993968 214.005752 
C 164.701302 214.005752 163.461406 214.519333 162.547354 215.433386 
C 161.633301 216.347439 161.119719 217.587334 161.119719 218.88 
C 161.119719 220.172666 161.633301 221.412561 162.547354 222.326614 
C 163.461406 223.240667 164.701302 223.754248 165.993968 223.754248 
z
" clip-path="url(#p994559a75b)" style="fill: #ffffbf; stroke: #000000; stroke-width: 0.886227"/>
    <path d="M 165.993968 77.068338 
C 167.286633 77.068338 168.526529 76.554757 169.440581 75.640704 
C 170.354634 74.726651 170.868216 73.486756 170.868216 72.19409 
C 170.868216 70.901424 170.354634 69.661529 169.440581 68.747476 
C 168.526529 67.833424 167.286633 67.319842 165.993968 67.319842 
C 164.701302 67.319842 163.461406 67.833424 162.547354 68.747476 
C 161.633301 69.661529 161.119719 70.901424 161.119719 72.19409 
C 161.119719 73.486756 161.633301 74.726651 162.547354 75.640704 
C 163.461406 76.554757 164.701302 77.068338 165.993968 77.068338 
z
" clip-path="url(#p994559a75b)" style="fill: #91bfdb; stroke: #000000; stroke-width: 0.886227"/>
    <path d="M 432.85822 37.139205 
C 434.150886 37.139205 435.390781 36.625623 436.304834 35.71157 
C 437.218886 34.797518 437.732468 33.557622 437.732468 32.264957 
C 437.732468 30.972291 437.218886 29.732395 436.304834 28.818343 
C 435.390781 27.90429 434.150886 27.390708 432.85822 27.390708 
C 431.565554 27.390708 430.325659 27.90429 429.411606 28.818343 
C 428.497553 29.732395 427.983972 30.972291 427.983972 32.264957 
C 427.983972 33.557622 428.497553 34.797518 429.411606 35.71157 
C 430.325659 36.625623 431.565554 37.139205 432.85822 37.139205 
z
" clip-path="url(#p994559a75b)" style="fill: #fc8d59; stroke: #000000; stroke-width: 0.886227"/>
    <path d="M 432.85822 59.383549 
C 434.150886 59.383549 435.390781 58.869967 436.304834 57.955914 
C 437.218886 57.041862 437.732468 55.801966 437.732468 54.5093 
C 437.732468 53.216635 437.218886 51.976739 436.304834 51.062687 
C 435.390781 50.148634 434.150886 49.635052 432.85822 49.635052 
C 431.565554 49.635052 430.325659 50.148634 429.411606 51.062687 
C 428.497553 51.976739 427.983972 53.216635 427.983972 54.5093 
C 427.983972 55.801966 428.497553 57.041862 429.411606 57.955914 
C 430.325659 58.869967 431.565554 59.383549 432.85822 59.383549 
z
" clip-path="url(#p994559a75b)" style="fill: #ffffbf; stroke: #000000; stroke-width: 0.886227"/>
    <path d="M 432.85822 29.321516 
C 434.150886 29.321516 435.390781 28.807935 436.304834 27.893882 
C 437.218886 26.979829 437.732468 25.739934 437.732468 24.447268 
C 437.732468 23.154602 437.218886 21.914707 436.304834 21.000654 
C 435.390781 20.086601 434.150886 19.57302 432.85822 19.57302 
C 431.565554 19.57302 430.325659 20.086601 429.411606 21.000654 
C 428.497553 21.914707 427.983972 23.154602 427.983972 24.447268 
C 427.983972 25.739934 428.497553 26.979829 429.411606 27.893882 
C 430.325659 28.807935 431.565554 29.321516 432.85822 29.321516 
z
" clip-path="url(#p994559a75b)" style="fill: #91bfdb; stroke: #000000; stroke-width: 0.886227"/>
    <path d="M 140.957502 93.206884 
C 142.250168 93.206884 143.490064 92.693303 144.404116 91.77925 
C 145.318169 90.865197 145.831751 89.625302 145.831751 88.332636 
C 145.831751 87.03997 145.318169 85.800075 144.404116 84.886022 
C 143.490064 83.971969 142.250168 83.458388 140.957502 83.458388 
C 139.664837 83.458388 138.424941 83.971969 137.510889 84.886022 
C 136.596836 85.800075 136.083254 87.03997 136.083254 88.332636 
C 136.083254 89.625302 136.596836 90.865197 137.510889 91.77925 
C 138.424941 92.693303 139.664837 93.206884 140.957502 93.206884 
z
" clip-path="url(#p994559a75b)" style="fill: #fc8d59; stroke: #000000; stroke-width: 0.886227"/>
    <path d="M 140.957502 193.439732 
C 142.250168 193.439732 143.490064 192.92615 144.404116 192.012097 
C 145.318169 191.098045 145.831751 189.858149 145.831751 188.565483 
C 145.831751 187.272818 145.318169 186.032922 144.404116 185.11887 
C 143.490064 184.204817 142.250168 183.691235 140.957502 183.691235 
C 139.664837 183.691235 138.424941 184.204817 137.510889 185.11887 
C 136.596836 186.032922 136.083254 187.272818 136.083254 188.565483 
C 136.083254 189.858149 136.596836 191.098045 137.510889 192.012097 
C 138.424941 192.92615 139.664837 193.439732 140.957502 193.439732 
z
" clip-path="url(#p994559a75b)" style="fill: #ffffbf; stroke: #000000; stroke-width: 0.886227"/>
    <path d="M 140.957502 47.529305 
C 142.250168 47.529305 143.490064 47.015723 144.404116 46.101671 
C 145.318169 45.187618 145.831751 43.947723 145.831751 42.655057 
C 145.831751 41.362391 145.318169 40.122496 144.404116 39.208443 
C 143.490064 38.29439 142.250168 37.780809 140.957502 37.780809 
C 139.664837 37.780809 138.424941 38.29439 137.510889 39.208443 
C 136.596836 40.122496 136.083254 41.362391 136.083254 42.655057 
C 136.083254 43.947723 136.596836 45.187618 137.510889 46.101671 
C 138.424941 47.015723 139.664837 47.529305 140.957502 47.529305 
z
" clip-path="url(#p994559a75b)" style="fill: #91bfdb; stroke: #000000; stroke-width: 0.886227"/>
    <path d="M 175.618919 116.942324 
C 176.911585 116.942324 178.151481 116.428742 179.065533 115.51469 
C 179.979586 114.600637 180.493168 113.360741 180.493168 112.068076 
C 180.493168 110.77541 179.979586 109.535514 179.065533 108.621462 
C 178.151481 107.707409 176.911585 107.193828 175.618919 107.193828 
C 174.326254 107.193828 173.086358 107.707409 172.172306 108.621462 
C 171.258253 109.535514 170.744671 110.77541 170.744671 112.068076 
C 170.744671 113.360741 171.258253 114.600637 172.172306 115.51469 
C 173.086358 116.428742 174.326254 116.942324 175.618919 116.942324 
z
" clip-path="url(#p994559a75b)" style="fill: #fc8d59; stroke: #000000; stroke-width: 0.886227"/>
    <path d="M 175.618919 217.921812 
C 176.911585 217.921812 178.151481 217.40823 179.065533 216.494177 
C 179.979586 215.580125 180.493168 214.340229 180.493168 213.047564 
C 180.493168 211.754898 179.979586 210.515002 179.065533 209.60095 
C 178.151481 208.686897 176.911585 208.173315 175.618919 208.173315 
C 174.326254 208.173315 173.086358 208.686897 172.172306 209.60095 
C 171.258253 210.515002 170.744671 211.754898 170.744671 213.047564 
C 170.744671 214.340229 171.258253 215.580125 172.172306 216.494177 
C 173.086358 217.40823 174.326254 217.921812 175.618919 217.921812 
z
" clip-path="url(#p994559a75b)" style="fill: #ffffbf; stroke: #000000; stroke-width: 0.886227"/>
    <path d="M 175.618919 55.70984 
C 176.911585 55.70984 178.151481 55.196259 179.065533 54.282206 
C 179.979586 53.368154 180.493168 52.128258 180.493168 50.835592 
C 180.493168 49.542927 179.979586 48.303031 179.065533 47.388978 
C 178.151481 46.474926 176.911585 45.961344 175.618919 45.961344 
C 174.326254 45.961344 173.086358 46.474926 172.172306 47.388978 
C 171.258253 48.303031 170.744671 49.542927 170.744671 50.835592 
C 170.744671 52.128258 171.258253 53.368154 172.172306 54.282206 
C 173.086358 55.196259 174.326254 55.70984 175.618919 55.70984 
z
" clip-path="url(#p994559a75b)" style="fill: #91bfdb; stroke: #000000; stroke-width: 0.886227"/>
    <path d="M 417.358816 41.389344 
C 418.651482 41.389344 419.891377 40.875763 420.80543 39.96171 
C 421.719482 39.047657 422.233064 37.807762 422.233064 36.515096 
C 422.233064 35.222431 421.719482 33.982535 420.80543 33.068482 
C 419.891377 32.15443 418.651482 31.640848 417.358816 31.640848 
C 416.06615 31.640848 414.826255 32.15443 413.912202 33.068482 
C 412.998149 33.982535 412.484568 35.222431 412.484568 36.515096 
C 412.484568 37.807762 412.998149 39.047657 413.912202 39.96171 
C 414.826255 40.875763 416.06615 41.389344 417.358816 41.389344 
z
" clip-path="url(#p994559a75b)" style="fill: #fc8d59; stroke: #000000; stroke-width: 0.886227"/>
    <path d="M 417.358816 63.923034 
C 418.651482 63.923034 419.891377 63.409453 420.80543 62.4954 
C 421.719482 61.581347 422.233064 60.341452 422.233064 59.048786 
C 422.233064 57.756121 421.719482 56.516225 420.80543 55.602172 
C 419.891377 54.68812 418.651482 54.174538 417.358816 54.174538 
C 416.06615 54.174538 414.826255 54.68812 413.912202 55.602172 
C 412.998149 56.516225 412.484568 57.756121 412.484568 59.048786 
C 412.484568 60.341452 412.998149 61.581347 413.912202 62.4954 
C 414.826255 63.409453 416.06615 63.923034 417.358816 63.923034 
z
" clip-path="url(#p994559a75b)" style="fill: #ffffbf; stroke: #000000; stroke-width: 0.886227"/>
    <path d="M 417.358816 26.133177 
C 418.651482 26.133177 419.891377 25.619596 420.80543 24.705543 
C 421.719482 23.79149 422.233064 22.551595 422.233064 21.258929 
C 422.233064 19.966263 421.719482 18.726368 420.80543 17.812315 
C 419.891377 16.898263 418.651482 16.384681 417.358816 16.384681 
C 416.06615 16.384681 414.826255 16.898263 413.912202 17.812315 
C 412.998149 18.726368 412.484568 19.966263 412.484568 21.258929 
C 412.484568 22.551595 412.998149 23.79149 413.912202 24.705543 
C 414.826255 25.619596 416.06615 26.133177 417.358816 26.133177 
z
" clip-path="url(#p994559a75b)" style="fill: #91bfdb; stroke: #000000; stroke-width: 0.886227"/>
    <path d="M 127.959712 101.350453 
C 129.252378 101.350453 130.492273 100.836872 131.406326 99.922819 
C 132.320379 99.008767 132.83396 97.768871 132.83396 96.476205 
C 132.83396 95.18354 132.320379 93.943644 131.406326 93.029591 
C 130.492273 92.115539 129.252378 91.601957 127.959712 91.601957 
C 126.667046 91.601957 125.427151 92.115539 124.513098 93.029591 
C 123.599045 93.943644 123.085464 95.18354 123.085464 96.476205 
C 123.085464 97.768871 123.599045 99.008767 124.513098 99.922819 
C 125.427151 100.836872 126.667046 101.350453 127.959712 101.350453 
z
" clip-path="url(#p994559a75b)" style="fill: #fc8d59; stroke: #000000; stroke-width: 0.886227"/>
    <path d="M 127.959712 193.653065 
C 129.252378 193.653065 130.492273 193.139484 131.406326 192.225431 
C 132.320379 191.311378 132.83396 190.071483 132.83396 188.778817 
C 132.83396 187.486152 132.320379 186.246256 131.406326 185.332203 
C 130.492273 184.418151 129.252378 183.904569 127.959712 183.904569 
C 126.667046 183.904569 125.427151 184.418151 124.513098 185.332203 
C 123.599045 186.246256 123.085464 187.486152 123.085464 188.778817 
C 123.085464 190.071483 123.599045 191.311378 124.513098 192.225431 
C 125.427151 193.139484 126.667046 193.653065 127.959712 193.653065 
z
" clip-path="url(#p994559a75b)" style="fill: #ffffbf; stroke: #000000; stroke-width: 0.886227"/>
    <path d="M 127.959712 55.619718 
C 129.252378 55.619718 130.492273 55.106136 131.406326 54.192084 
C 132.320379 53.278031 132.83396 52.038135 132.83396 50.74547 
C 132.83396 49.452804 132.320379 48.212909 131.406326 47.298856 
C 130.492273 46.384803 129.252378 45.871222 127.959712 45.871222 
C 126.667046 45.871222 125.427151 46.384803 124.513098 47.298856 
C 123.599045 48.212909 123.085464 49.452804 123.085464 50.74547 
C 123.085464 52.038135 123.599045 53.278031 124.513098 54.192084 
C 125.427151 55.106136 126.667046 55.619718 127.959712 55.619718 
z
" clip-path="url(#p994559a75b)" style="fill: #91bfdb; stroke: #000000; stroke-width: 0.886227"/>
    <path d="M 164.837474 125.461839 
C 166.13014 125.461839 167.370035 124.948258 168.284088 124.034205 
C 169.198141 123.120152 169.711722 121.880257 169.711722 120.587591 
C 169.711722 119.294925 169.198141 118.05503 168.284088 117.140977 
C 167.370035 116.226925 166.13014 115.713343 164.837474 115.713343 
C 163.544808 115.713343 162.304913 116.226925 161.39086 117.140977 
C 160.476807 118.05503 159.963226 119.294925 159.963226 120.587591 
C 159.963226 121.880257 160.476807 123.120152 161.39086 124.034205 
C 162.304913 124.948258 163.544808 125.461839 164.837474 125.461839 
z
" clip-path="url(#p994559a75b)" style="fill: #fc8d59; stroke: #000000; stroke-width: 0.886227"/>
    <path d="M 164.837474 218.579755 
C 166.13014 218.579755 167.370035 218.066174 168.284088 217.152121 
C 169.198141 216.238068 169.711722 214.998173 169.711722 213.705507 
C 169.711722 212.412841 169.198141 211.172946 168.284088 210.258893 
C 167.370035 209.344841 166.13014 208.831259 164.837474 208.831259 
C 163.544808 208.831259 162.304913 209.344841 161.39086 210.258893 
C 160.476807 211.172946 159.963226 212.412841 159.963226 213.705507 
C 159.963226 214.998173 160.476807 216.238068 161.39086 217.152121 
C 162.304913 218.066174 163.544808 218.579755 164.837474 218.579755 
z
" clip-path="url(#p994559a75b)" style="fill: #ffffbf; stroke: #000000; stroke-width: 0.886227"/>
    <path d="M 164.837474 69.627682 
C 166.13014 69.627682 167.370035 69.1141 168.284088 68.200047 
C 169.198141 67.285995 169.711722 66.046099 169.711722 64.753434 
C 169.711722 63.460768 169.198141 62.220872 168.284088 61.30682 
C 167.370035 60.392767 166.13014 59.879185 164.837474 59.879185 
C 163.544808 59.879185 162.304913 60.392767 161.39086 61.30682 
C 160.476807 62.220872 159.963226 63.460768 159.963226 64.753434 
C 159.963226 66.046099 160.476807 67.285995 161.39086 68.200047 
C 162.304913 69.1141 163.544808 69.627682 164.837474 69.627682 
z
" clip-path="url(#p994559a75b)" style="fill: #91bfdb; stroke: #000000; stroke-width: 0.886227"/>
    <path d="M 441.138052 38.99691 
C 442.430718 38.99691 443.670613 38.483328 444.584666 37.569275 
C 445.498718 36.655223 446.0123 35.415327 446.0123 34.122661 
C 446.0123 32.829996 445.498718 31.5901 444.584666 30.676048 
C 443.670613 29.761995 442.430718 29.248413 441.138052 29.248413 
C 439.845386 29.248413 438.605491 29.761995 437.691438 30.676048 
C 436.777385 31.5901 436.263804 32.829996 436.263804 34.122661 
C 436.263804 35.415327 436.777385 36.655223 437.691438 37.569275 
C 438.605491 38.483328 439.845386 38.99691 441.138052 38.99691 
z
" clip-path="url(#p994559a75b)" style="fill: #fc8d59; stroke: #000000; stroke-width: 0.886227"/>
    <path d="M 441.138052 56.749111 
C 442.430718 56.749111 443.670613 56.235529 444.584666 55.321476 
C 445.498718 54.407424 446.0123 53.167528 446.0123 51.874862 
C 446.0123 50.582197 445.498718 49.342301 444.584666 48.428249 
C 443.670613 47.514196 442.430718 47.000614 441.138052 47.000614 
C 439.845386 47.000614 438.605491 47.514196 437.691438 48.428249 
C 436.777385 49.342301 436.263804 50.582197 436.263804 51.874862 
C 436.263804 53.167528 436.777385 54.407424 437.691438 55.321476 
C 438.605491 56.235529 439.845386 56.749111 441.138052 56.749111 
z
" clip-path="url(#p994559a75b)" style="fill: #ffffbf; stroke: #000000; stroke-width: 0.886227"/>
    <path d="M 441.138052 26.875756 
C 442.430718 26.875756 443.670613 26.362174 444.584666 25.448121 
C 445.498718 24.534069 446.0123 23.294173 446.0123 22.001508 
C 446.0123 20.708842 445.498718 19.468946 444.584666 18.554894 
C 443.670613 17.640841 442.430718 17.127259 441.138052 17.127259 
C 439.845386 17.127259 438.605491 17.640841 437.691438 18.554894 
C 436.777385 19.468946 436.263804 20.708842 436.263804 22.001508 
C 436.263804 23.294173 436.777385 24.534069 437.691438 25.448121 
C 438.605491 26.362174 439.845386 26.875756 441.138052 26.875756 
z
" clip-path="url(#p994559a75b)" style="fill: #91bfdb; stroke: #000000; stroke-width: 0.886227"/>
    <path d="M 140.762308 85.997076 
C 142.054974 85.997076 143.29487 85.483495 144.208922 84.569442 
C 145.122975 83.655389 145.636557 82.415494 145.636557 81.122828 
C 145.636557 79.830162 145.122975 78.590267 144.208922 77.676214 
C 143.29487 76.762162 142.054974 76.24858 140.762308 76.24858 
C 139.469643 76.24858 138.229747 76.762162 137.315695 77.676214 
C 136.401642 78.590267 135.88806 79.830162 135.88806 81.122828 
C 135.88806 82.415494 136.401642 83.655389 137.315695 84.569442 
C 138.229747 85.483495 139.469643 85.997076 140.762308 85.997076 
z
" clip-path="url(#p994559a75b)" style="fill: #fc8d59; stroke: #000000; stroke-width: 0.886227"/>
    <path d="M 140.762308 198.545209 
C 142.054974 198.545209 143.29487 198.031627 144.208922 197.117574 
C 145.122975 196.203522 145.636557 194.963626 145.636557 193.67096 
C 145.636557 192.378295 145.122975 191.138399 144.208922 190.224347 
C 143.29487 189.310294 142.054974 188.796712 140.762308 188.796712 
C 139.469643 188.796712 138.229747 189.310294 137.315695 190.224347 
C 136.401642 191.138399 135.88806 192.378295 135.88806 193.67096 
C 135.88806 194.963626 136.401642 196.203522 137.315695 197.117574 
C 138.229747 198.031627 139.469643 198.545209 140.762308 198.545209 
z
" clip-path="url(#p994559a75b)" style="fill: #ffffbf; stroke: #000000; stroke-width: 0.886227"/>
    <path d="M 140.762308 50.470207 
C 142.054974 50.470207 143.29487 49.956626 144.208922 49.042573 
C 145.122975 48.128521 145.636557 46.888625 145.636557 45.595959 
C 145.636557 44.303294 145.122975 43.063398 144.208922 42.149346 
C 143.29487 41.235293 142.054974 40.721711 140.762308 40.721711 
C 139.469643 40.721711 138.229747 41.235293 137.315695 42.149346 
C 136.401642 43.063398 135.88806 44.303294 135.88806 45.595959 
C 135.88806 46.888625 136.401642 48.128521 137.315695 49.042573 
C 138.229747 49.956626 139.469643 50.470207 140.762308 50.470207 
z
" clip-path="url(#p994559a75b)" style="fill: #91bfdb; stroke: #000000; stroke-width: 0.886227"/>
    <path d="M 170.337187 113.620995 
C 171.629853 113.620995 172.869748 113.107413 173.783801 112.19336 
C 174.697854 111.279308 175.211435 110.039412 175.211435 108.746746 
C 175.211435 107.454081 174.697854 106.214185 173.783801 105.300133 
C 172.869748 104.38608 171.629853 103.872498 170.337187 103.872498 
C 169.044521 103.872498 167.804626 104.38608 166.890573 105.300133 
C 165.976521 106.214185 165.462939 107.454081 165.462939 108.746746 
C 165.462939 110.039412 165.976521 111.279308 166.890573 112.19336 
C 167.804626 113.107413 169.044521 113.620995 170.337187 113.620995 
z
" clip-path="url(#p994559a75b)" style="fill: #fc8d59; stroke: #000000; stroke-width: 0.886227"/>
    <path d="M 170.337187 220.945273 
C 171.629853 220.945273 172.869748 220.431691 173.783801 219.517639 
C 174.697854 218.603586 175.211435 217.363691 175.211435 216.071025 
C 175.211435 214.778359 174.697854 213.538464 173.783801 212.624411 
C 172.869748 211.710358 171.629853 211.196777 170.337187 211.196777 
C 169.044521 211.196777 167.804626 211.710358 166.890573 212.624411 
C 165.976521 213.538464 165.462939 214.778359 165.462939 216.071025 
C 165.462939 217.363691 165.976521 218.603586 166.890573 219.517639 
C 167.804626 220.431691 169.044521 220.945273 170.337187 220.945273 
z
" clip-path="url(#p994559a75b)" style="fill: #ffffbf; stroke: #000000; stroke-width: 0.886227"/>
    <path d="M 170.337187 65.734555 
C 171.629853 65.734555 172.869748 65.220974 173.783801 64.306921 
C 174.697854 63.392868 175.211435 62.152973 175.211435 60.860307 
C 175.211435 59.567642 174.697854 58.327746 173.783801 57.413693 
C 172.869748 56.499641 171.629853 55.986059 170.337187 55.986059 
C 169.044521 55.986059 167.804626 56.499641 166.890573 57.413693 
C 165.976521 58.327746 165.462939 59.567642 165.462939 60.860307 
C 165.462939 62.152973 165.976521 63.392868 166.890573 64.306921 
C 167.804626 65.220974 169.044521 65.734555 170.337187 65.734555 
z
" clip-path="url(#p994559a75b)" style="fill: #91bfdb; stroke: #000000; stroke-width: 0.886227"/>
    <path d="M 422.835742 39.290063 
C 424.128408 39.290063 425.368303 38.776481 426.282356 37.862429 
C 427.196409 36.948376 427.70999 35.708481 427.70999 34.415815 
C 427.70999 33.123149 427.196409 31.883254 426.282356 30.969201 
C 425.368303 30.055148 424.128408 29.541567 422.835742 29.541567 
C 421.543077 29.541567 420.303181 30.055148 419.389128 30.969201 
C 418.475076 31.883254 417.961494 33.123149 417.961494 34.415815 
C 417.961494 35.708481 418.475076 36.948376 419.389128 37.862429 
C 420.303181 38.776481 421.543077 39.290063 422.835742 39.290063 
z
" clip-path="url(#p994559a75b)" style="fill: #fc8d59; stroke: #000000; stroke-width: 0.886227"/>
    <path d="M 422.835742 62.822706 
C 424.128408 62.822706 425.368303 62.309124 426.282356 61.395071 
C 427.196409 60.481019 427.70999 59.241123 427.70999 57.948457 
C 427.70999 56.655792 427.196409 55.415896 426.282356 54.501844 
C 425.368303 53.587791 424.128408 53.074209 422.835742 53.074209 
C 421.543077 53.074209 420.303181 53.587791 419.389128 54.501844 
C 418.475076 55.415896 417.961494 56.655792 417.961494 57.948457 
C 417.961494 59.241123 418.475076 60.481019 419.389128 61.395071 
C 420.303181 62.309124 421.543077 62.822706 422.835742 62.822706 
z
" clip-path="url(#p994559a75b)" style="fill: #ffffbf; stroke: #000000; stroke-width: 0.886227"/>
    <path d="M 422.835742 27.833663 
C 424.128408 27.833663 425.368303 27.320082 426.282356 26.406029 
C 427.196409 25.491976 427.70999 24.252081 427.70999 22.959415 
C 427.70999 21.66675 427.196409 20.426854 426.282356 19.512801 
C 425.368303 18.598749 424.128408 18.085167 422.835742 18.085167 
C 421.543077 18.085167 420.303181 18.598749 419.389128 19.512801 
C 418.475076 20.426854 417.961494 21.66675 417.961494 22.959415 
C 417.961494 24.252081 418.475076 25.491976 419.389128 26.406029 
C 420.303181 27.320082 421.543077 27.833663 422.835742 27.833663 
z
" clip-path="url(#p994559a75b)" style="fill: #91bfdb; stroke: #000000; stroke-width: 0.886227"/>
    <path d="M 148.951357 83.622368 
C 150.244023 83.622368 151.483918 83.108786 152.397971 82.194734 
C 153.312023 81.280681 153.825605 80.040785 153.825605 78.74812 
C 153.825605 77.455454 153.312023 76.215559 152.397971 75.301506 
C 151.483918 74.387453 150.244023 73.873872 148.951357 73.873872 
C 147.658691 73.873872 146.418796 74.387453 145.504743 75.301506 
C 144.59069 76.215559 144.077109 77.455454 144.077109 78.74812 
C 144.077109 80.040785 144.59069 81.280681 145.504743 82.194734 
C 146.418796 83.108786 147.658691 83.622368 148.951357 83.622368 
z
" clip-path="url(#p994559a75b)" style="fill: #fc8d59; stroke: #000000; stroke-width: 0.886227"/>
    <path d="M 148.951357 190.096561 
C 150.244023 190.096561 151.483918 189.582979 152.397971 188.668926 
C 153.312023 187.754874 153.825605 186.514978 153.825605 185.222313 
C 153.825605 183.929647 153.312023 182.689751 152.397971 181.775699 
C 151.483918 180.861646 150.244023 180.348064 148.951357 180.348064 
C 147.658691 180.348064 146.418796 180.861646 145.504743 181.775699 
C 144.59069 182.689751 144.077109 183.929647 144.077109 185.222313 
C 144.077109 186.514978 144.59069 187.754874 145.504743 188.668926 
C 146.418796 189.582979 147.658691 190.096561 148.951357 190.096561 
z
" clip-path="url(#p994559a75b)" style="fill: #ffffbf; stroke: #000000; stroke-width: 0.886227"/>
    <path d="M 148.951357 33.881163 
C 150.244023 33.881163 151.483918 33.367582 152.397971 32.453529 
C 153.312023 31.539477 153.825605 30.299581 153.825605 29.006915 
C 153.825605 27.71425 153.312023 26.474354 152.397971 25.560301 
C 151.483918 24.646249 150.244023 24.132667 148.951357 24.132667 
C 147.658691 24.132667 146.418796 24.646249 145.504743 25.560301 
C 144.59069 26.474354 144.077109 27.71425 144.077109 29.006915 
C 144.077109 30.299581 144.59069 31.539477 145.504743 32.453529 
C 146.418796 33.367582 147.658691 33.881163 148.951357 33.881163 
z
" clip-path="url(#p994559a75b)" style="fill: #91bfdb; stroke: #000000; stroke-width: 0.886227"/>
    <path d="M 181.012396 107.757745 
C 182.305062 107.757745 183.544957 107.244163 184.45901 106.33011 
C 185.373062 105.416058 185.886644 104.176162 185.886644 102.883496 
C 185.886644 101.590831 185.373062 100.350935 184.45901 99.436883 
C 183.544957 98.52283 182.305062 98.009248 181.012396 98.009248 
C 179.71973 98.009248 178.479835 98.52283 177.565782 99.436883 
C 176.651729 100.350935 176.138148 101.590831 176.138148 102.883496 
C 176.138148 104.176162 176.651729 105.416058 177.565782 106.33011 
C 178.479835 107.244163 179.71973 107.757745 181.012396 107.757745 
z
" clip-path="url(#p994559a75b)" style="fill: #fc8d59; stroke: #000000; stroke-width: 0.886227"/>
    <path d="M 181.012396 216.128755 
C 182.305062 216.128755 183.544957 215.615173 184.45901 214.701121 
C 185.373062 213.787068 185.886644 212.547173 185.886644 211.254507 
C 185.886644 209.961841 185.373062 208.721946 184.45901 207.807893 
C 183.544957 206.89384 182.305062 206.380259 181.012396 206.380259 
C 179.71973 206.380259 178.479835 206.89384 177.565782 207.807893 
C 176.651729 208.721946 176.138148 209.961841 176.138148 211.254507 
C 176.138148 212.547173 176.651729 213.787068 177.565782 214.701121 
C 178.479835 215.615173 179.71973 216.128755 181.012396 216.128755 
z
" clip-path="url(#p994559a75b)" style="fill: #ffffbf; stroke: #000000; stroke-width: 0.886227"/>
    <path d="M 181.012396 41.5087 
C 182.305062 41.5087 183.544957 40.995119 184.45901 40.081066 
C 185.373062 39.167013 185.886644 37.927118 185.886644 36.634452 
C 185.886644 35.341786 185.373062 34.101891 184.45901 33.187838 
C 183.544957 32.273786 182.305062 31.760204 181.012396 31.760204 
C 179.71973 31.760204 178.479835 32.273786 177.565782 33.187838 
C 176.651729 34.101891 176.138148 35.341786 176.138148 36.634452 
C 176.138148 37.927118 176.651729 39.167013 177.565782 40.081066 
C 178.479835 40.995119 179.71973 41.5087 181.012396 41.5087 
z
" clip-path="url(#p994559a75b)" style="fill: #91bfdb; stroke: #000000; stroke-width: 0.886227"/>
    <path d="M 403.971485 40.440379 
C 405.264151 40.440379 406.504046 39.926797 407.418099 39.012745 
C 408.332152 38.098692 408.845733 36.858797 408.845733 35.566131 
C 408.845733 34.273465 408.332152 33.03357 407.418099 32.119517 
C 406.504046 31.205464 405.264151 30.691883 403.971485 30.691883 
C 402.678819 30.691883 401.438924 31.205464 400.524871 32.119517 
C 399.610819 33.03357 399.097237 34.273465 399.097237 35.566131 
C 399.097237 36.858797 399.610819 38.098692 400.524871 39.012745 
C 401.438924 39.926797 402.678819 40.440379 403.971485 40.440379 
z
" clip-path="url(#p994559a75b)" style="fill: #fc8d59; stroke: #000000; stroke-width: 0.886227"/>
    <path d="M 403.971485 67.750931 
C 405.264151 67.750931 406.504046 67.23735 407.418099 66.323297 
C 408.332152 65.409244 408.845733 64.169349 408.845733 62.876683 
C 408.845733 61.584018 408.332152 60.344122 407.418099 59.430069 
C 406.504046 58.516017 405.264151 58.002435 403.971485 58.002435 
C 402.678819 58.002435 401.438924 58.516017 400.524871 59.430069 
C 399.610819 60.344122 399.097237 61.584018 399.097237 62.876683 
C 399.097237 64.169349 399.610819 65.409244 400.524871 66.323297 
C 401.438924 67.23735 402.678819 67.750931 403.971485 67.750931 
z
" clip-path="url(#p994559a75b)" style="fill: #ffffbf; stroke: #000000; stroke-width: 0.886227"/>
    <path d="M 403.971485 22.154248 
C 405.264151 22.154248 406.504046 21.640667 407.418099 20.726614 
C 408.332152 19.812561 408.845733 18.572666 408.845733 17.28 
C 408.845733 15.987334 408.332152 14.747439 407.418099 13.833386 
C 406.504046 12.919333 405.264151 12.405752 403.971485 12.405752 
C 402.678819 12.405752 401.438924 12.919333 400.524871 13.833386 
C 399.610819 14.747439 399.097237 15.987334 399.097237 17.28 
C 399.097237 18.572666 399.610819 19.812561 400.524871 20.726614 
C 401.438924 21.640667 402.678819 22.154248 403.971485 22.154248 
z
" clip-path="url(#p994559a75b)" style="fill: #91bfdb; stroke: #000000; stroke-width: 0.886227"/>
    <path d="M 95.873097 107.01275 
C 97.165762 107.01275 98.405658 106.499168 99.31971 105.585115 
C 100.233763 104.671063 100.747345 103.431167 100.747345 102.138502 
C 100.747345 100.845836 100.233763 99.60594 99.31971 98.691888 
C 98.405658 97.777835 97.165762 97.264253 95.873097 97.264253 
C 94.580431 97.264253 93.340535 97.777835 92.426483 98.691888 
C 91.51243 99.60594 90.998849 100.845836 90.998849 102.138502 
C 90.998849 103.431167 91.51243 104.671063 92.426483 105.585115 
C 93.340535 106.499168 94.580431 107.01275 95.873097 107.01275 
z
" clip-path="url(#p994559a75b)" style="fill: #fc8d59; stroke: #000000; stroke-width: 0.886227"/>
    <path d="M 95.873097 191.464784 
C 97.165762 191.464784 98.405658 190.951203 99.31971 190.03715 
C 100.233763 189.123097 100.747345 187.883202 100.747345 186.590536 
C 100.747345 185.297871 100.233763 184.057975 99.31971 183.143922 
C 98.405658 182.22987 97.165762 181.716288 95.873097 181.716288 
C 94.580431 181.716288 93.340535 182.22987 92.426483 183.143922 
C 91.51243 184.057975 90.998849 185.297871 90.998849 186.590536 
C 90.998849 187.883202 91.51243 189.123097 92.426483 190.03715 
C 93.340535 190.951203 94.580431 191.464784 95.873097 191.464784 
z
" clip-path="url(#p994559a75b)" style="fill: #ffffbf; stroke: #000000; stroke-width: 0.886227"/>
    <path d="M 95.873097 71.974302 
C 97.165762 71.974302 98.405658 71.46072 99.31971 70.546667 
C 100.233763 69.632615 100.747345 68.392719 100.747345 67.100053 
C 100.747345 65.807388 100.233763 64.567492 99.31971 63.65344 
C 98.405658 62.739387 97.165762 62.225805 95.873097 62.225805 
C 94.580431 62.225805 93.340535 62.739387 92.426483 63.65344 
C 91.51243 64.567492 90.998849 65.807388 90.998849 67.100053 
C 90.998849 68.392719 91.51243 69.632615 92.426483 70.546667 
C 93.340535 71.46072 94.580431 71.974302 95.873097 71.974302 
z
" clip-path="url(#p994559a75b)" style="fill: #91bfdb; stroke: #000000; stroke-width: 0.886227"/>
    <path d="M 136.370863 154.39112 
C 137.663529 154.39112 138.903424 153.877539 139.817477 152.963486 
C 140.731529 152.049433 141.245111 150.809538 141.245111 149.516872 
C 141.245111 148.224206 140.731529 146.984311 139.817477 146.070258 
C 138.903424 145.156205 137.663529 144.642624 136.370863 144.642624 
C 135.078197 144.642624 133.838302 145.156205 132.924249 146.070258 
C 132.010196 146.984311 131.496615 148.224206 131.496615 149.516872 
C 131.496615 150.809538 132.010196 152.049433 132.924249 152.963486 
C 133.838302 153.877539 135.078197 154.39112 136.370863 154.39112 
z
" clip-path="url(#p994559a75b)" style="fill: #fc8d59; stroke: #000000; stroke-width: 0.886227"/>
    <path d="M 136.370863 212.606816 
C 137.663529 212.606816 138.903424 212.093235 139.817477 211.179182 
C 140.731529 210.265129 141.245111 209.025234 141.245111 207.732568 
C 141.245111 206.439903 140.731529 205.200007 139.817477 204.285954 
C 138.903424 203.371902 137.663529 202.85832 136.370863 202.85832 
C 135.078197 202.85832 133.838302 203.371902 132.924249 204.285954 
C 132.010196 205.200007 131.496615 206.439903 131.496615 207.732568 
C 131.496615 209.025234 132.010196 210.265129 132.924249 211.179182 
C 133.838302 212.093235 135.078197 212.606816 136.370863 212.606816 
z
" clip-path="url(#p994559a75b)" style="fill: #ffffbf; stroke: #000000; stroke-width: 0.886227"/>
    <path d="M 136.370863 92.870712 
C 137.663529 92.870712 138.903424 92.357131 139.817477 91.443078 
C 140.731529 90.529025 141.245111 89.28913 141.245111 87.996464 
C 141.245111 86.703798 140.731529 85.463903 139.817477 84.54985 
C 138.903424 83.635797 137.663529 83.122216 136.370863 83.122216 
C 135.078197 83.122216 133.838302 83.635797 132.924249 84.54985 
C 132.010196 85.463903 131.496615 86.703798 131.496615 87.996464 
C 131.496615 89.28913 132.010196 90.529025 132.924249 91.443078 
C 133.838302 92.357131 135.078197 92.870712 136.370863 92.870712 
z
" clip-path="url(#p994559a75b)" style="fill: #91bfdb; stroke: #000000; stroke-width: 0.886227"/>
    <path d="M 501.691278 31.698137 
C 502.983944 31.698137 504.22384 31.184555 505.137892 30.270503 
C 506.051945 29.35645 506.565526 28.116555 506.565526 26.823889 
C 506.565526 25.531223 506.051945 24.291328 505.137892 23.377275 
C 504.22384 22.463222 502.983944 21.949641 501.691278 21.949641 
C 500.398613 21.949641 499.158717 22.463222 498.244665 23.377275 
C 497.330612 24.291328 496.81703 25.531223 496.81703 26.823889 
C 496.81703 28.116555 497.330612 29.35645 498.244665 30.270503 
C 499.158717 31.184555 500.398613 31.698137 501.691278 31.698137 
z
" clip-path="url(#p994559a75b)" style="fill: #fc8d59; stroke: #000000; stroke-width: 0.886227"/>
    <path d="M 501.691278 39.842913 
C 502.983944 39.842913 504.22384 39.329331 505.137892 38.415279 
C 506.051945 37.501226 506.565526 36.26133 506.565526 34.968665 
C 506.565526 33.675999 506.051945 32.436104 505.137892 31.522051 
C 504.22384 30.607998 502.983944 30.094417 501.691278 30.094417 
C 500.398613 30.094417 499.158717 30.607998 498.244665 31.522051 
C 497.330612 32.436104 496.81703 33.675999 496.81703 34.968665 
C 496.81703 36.26133 497.330612 37.501226 498.244665 38.415279 
C 499.158717 39.329331 500.398613 39.842913 501.691278 39.842913 
z
" clip-path="url(#p994559a75b)" style="fill: #ffffbf; stroke: #000000; stroke-width: 0.886227"/>
    <path d="M 501.691278 24.607858 
C 502.983944 24.607858 504.22384 24.094276 505.137892 23.180223 
C 506.051945 22.266171 506.565526 21.026275 506.565526 19.73361 
C 506.565526 18.440944 506.051945 17.201048 505.137892 16.286996 
C 504.22384 15.372943 502.983944 14.859361 501.691278 14.859361 
C 500.398613 14.859361 499.158717 15.372943 498.244665 16.286996 
C 497.330612 17.201048 496.81703 18.440944 496.81703 19.73361 
C 496.81703 21.026275 497.330612 22.266171 498.244665 23.180223 
C 499.158717 24.094276 500.398613 24.607858 501.691278 24.607858 
z
" clip-path="url(#p994559a75b)" style="fill: #91bfdb; stroke: #000000; stroke-width: 0.886227"/>
    <path d="M 121.641309 82.346317 
C 122.933975 82.346317 124.17387 81.832736 125.087923 80.918683 
C 126.001976 80.00463 126.515557 78.764735 126.515557 77.472069 
C 126.515557 76.179403 126.001976 74.939508 125.087923 74.025455 
C 124.17387 73.111402 122.933975 72.597821 121.641309 72.597821 
C 120.348643 72.597821 119.108748 73.111402 118.194695 74.025455 
C 117.280642 74.939508 116.767061 76.179403 116.767061 77.472069 
C 116.767061 78.764735 117.280642 80.00463 118.194695 80.918683 
C 119.108748 81.832736 120.348643 82.346317 121.641309 82.346317 
z
" clip-path="url(#p994559a75b)" style="fill: #fc8d59; stroke: #000000; stroke-width: 0.886227"/>
    <path d="M 121.641309 204.449811 
C 122.933975 204.449811 124.17387 203.936229 125.087923 203.022176 
C 126.001976 202.108124 126.515557 200.868228 126.515557 199.575562 
C 126.515557 198.282897 126.001976 197.043001 125.087923 196.128949 
C 124.17387 195.214896 122.933975 194.701314 121.641309 194.701314 
C 120.348643 194.701314 119.108748 195.214896 118.194695 196.128949 
C 117.280642 197.043001 116.767061 198.282897 116.767061 199.575562 
C 116.767061 200.868228 117.280642 202.108124 118.194695 203.022176 
C 119.108748 203.936229 120.348643 204.449811 121.641309 204.449811 
z
" clip-path="url(#p994559a75b)" style="fill: #ffffbf; stroke: #000000; stroke-width: 0.886227"/>
    <path d="M 121.641309 48.643533 
C 122.933975 48.643533 124.17387 48.129952 125.087923 47.215899 
C 126.001976 46.301846 126.515557 45.061951 126.515557 43.769285 
C 126.515557 42.476619 126.001976 41.236724 125.087923 40.322671 
C 124.17387 39.408618 122.933975 38.895037 121.641309 38.895037 
C 120.348643 38.895037 119.108748 39.408618 118.194695 40.322671 
C 117.280642 41.236724 116.767061 42.476619 116.767061 43.769285 
C 116.767061 45.061951 117.280642 46.301846 118.194695 47.215899 
C 119.108748 48.129952 120.348643 48.643533 121.641309 48.643533 
z
" clip-path="url(#p994559a75b)" style="fill: #91bfdb; stroke: #000000; stroke-width: 0.886227"/>
    <path d="M 158.843985 106.318377 
C 160.136651 106.318377 161.376546 105.804796 162.290599 104.890743 
C 163.204652 103.97669 163.718233 102.736795 163.718233 101.444129 
C 163.718233 100.151464 163.204652 98.911568 162.290599 97.997515 
C 161.376546 97.083463 160.136651 96.569881 158.843985 96.569881 
C 157.551319 96.569881 156.311424 97.083463 155.397371 97.997515 
C 154.483319 98.911568 153.969737 100.151464 153.969737 101.444129 
C 153.969737 102.736795 154.483319 103.97669 155.397371 104.890743 
C 156.311424 105.804796 157.551319 106.318377 158.843985 106.318377 
z
" clip-path="url(#p994559a75b)" style="fill: #fc8d59; stroke: #000000; stroke-width: 0.886227"/>
    <path d="M 158.843985 220.241827 
C 160.136651 220.241827 161.376546 219.728245 162.290599 218.814193 
C 163.204652 217.90014 163.718233 216.660244 163.718233 215.367579 
C 163.718233 214.074913 163.204652 212.835018 162.290599 211.920965 
C 161.376546 211.006912 160.136651 210.493331 158.843985 210.493331 
C 157.551319 210.493331 156.311424 211.006912 155.397371 211.920965 
C 154.483319 212.835018 153.969737 214.074913 153.969737 215.367579 
C 153.969737 216.660244 154.483319 217.90014 155.397371 218.814193 
C 156.311424 219.728245 157.551319 220.241827 158.843985 220.241827 
z
" clip-path="url(#p994559a75b)" style="fill: #ffffbf; stroke: #000000; stroke-width: 0.886227"/>
    <path d="M 158.843985 64.361424 
C 160.136651 64.361424 161.376546 63.847842 162.290599 62.93379 
C 163.204652 62.019737 163.718233 60.779842 163.718233 59.487176 
C 163.718233 58.19451 163.204652 56.954615 162.290599 56.040562 
C 161.376546 55.126509 160.136651 54.612928 158.843985 54.612928 
C 157.551319 54.612928 156.311424 55.126509 155.397371 56.040562 
C 154.483319 56.954615 153.969737 58.19451 153.969737 59.487176 
C 153.969737 60.779842 154.483319 62.019737 155.397371 62.93379 
C 156.311424 63.847842 157.551319 64.361424 158.843985 64.361424 
z
" clip-path="url(#p994559a75b)" style="fill: #91bfdb; stroke: #000000; stroke-width: 0.886227"/>
    <path d="M 453.449944 31.935989 
C 454.742609 31.935989 455.982505 31.422407 456.896558 30.508354 
C 457.81061 29.594302 458.324192 28.354406 458.324192 27.061741 
C 458.324192 25.769075 457.81061 24.529179 456.896558 23.615127 
C 455.982505 22.701074 454.742609 22.187492 453.449944 22.187492 
C 452.157278 22.187492 450.917382 22.701074 450.00333 23.615127 
C 449.089277 24.529179 448.575696 25.769075 448.575696 27.061741 
C 448.575696 28.354406 449.089277 29.594302 450.00333 30.508354 
C 450.917382 31.422407 452.157278 31.935989 453.449944 31.935989 
z
" clip-path="url(#p994559a75b)" style="fill: #fc8d59; stroke: #000000; stroke-width: 0.886227"/>
    <path d="M 453.449944 53.764056 
C 454.742609 53.764056 455.982505 53.250474 456.896558 52.336421 
C 457.81061 51.422369 458.324192 50.182473 458.324192 48.889807 
C 458.324192 47.597142 457.81061 46.357246 456.896558 45.443194 
C 455.982505 44.529141 454.742609 44.015559 453.449944 44.015559 
C 452.157278 44.015559 450.917382 44.529141 450.00333 45.443194 
C 449.089277 46.357246 448.575696 47.597142 448.575696 48.889807 
C 448.575696 50.182473 449.089277 51.422369 450.00333 52.336421 
C 450.917382 53.250474 452.157278 53.764056 453.449944 53.764056 
z
" clip-path="url(#p994559a75b)" style="fill: #ffffbf; stroke: #000000; stroke-width: 0.886227"/>
    <path d="M 453.449944 23.591683 
C 454.742609 23.591683 455.982505 23.078102 456.896558 22.164049 
C 457.81061 21.249997 458.324192 20.010101 458.324192 18.717435 
C 458.324192 17.42477 457.81061 16.184874 456.896558 15.270821 
C 455.982505 14.356769 454.742609 13.843187 453.449944 13.843187 
C 452.157278 13.843187 450.917382 14.356769 450.00333 15.270821 
C 449.089277 16.184874 448.575696 17.42477 448.575696 18.717435 
C 448.575696 20.010101 449.089277 21.249997 450.00333 22.164049 
C 450.917382 23.078102 452.157278 23.591683 453.449944 23.591683 
z
" clip-path="url(#p994559a75b)" style="fill: #91bfdb; stroke: #000000; stroke-width: 0.886227"/>
    <path d="M 97.578077 101.782335 
C 98.870742 101.782335 100.110638 101.268753 101.024691 100.354701 
C 101.938743 99.440648 102.452325 98.200753 102.452325 96.908087 
C 102.452325 95.615421 101.938743 94.375526 101.024691 93.461473 
C 100.110638 92.54742 98.870742 92.033839 97.578077 92.033839 
C 96.285411 92.033839 95.045515 92.54742 94.131463 93.461473 
C 93.21741 94.375526 92.703829 95.615421 92.703829 96.908087 
C 92.703829 98.200753 93.21741 99.440648 94.131463 100.354701 
C 95.045515 101.268753 96.285411 101.782335 97.578077 101.782335 
z
" clip-path="url(#p994559a75b)" style="fill: #fc8d59; stroke: #000000; stroke-width: 0.886227"/>
    <path d="M 97.578077 202.741314 
C 98.870742 202.741314 100.110638 202.227733 101.024691 201.31368 
C 101.938743 200.399627 102.452325 199.159732 102.452325 197.867066 
C 102.452325 196.574401 101.938743 195.334505 101.024691 194.420452 
C 100.110638 193.5064 98.870742 192.992818 97.578077 192.992818 
C 96.285411 192.992818 95.045515 193.5064 94.131463 194.420452 
C 93.21741 195.334505 92.703829 196.574401 92.703829 197.867066 
C 92.703829 199.159732 93.21741 200.399627 94.131463 201.31368 
C 95.045515 202.227733 96.285411 202.741314 97.578077 202.741314 
z
" clip-path="url(#p994559a75b)" style="fill: #ffffbf; stroke: #000000; stroke-width: 0.886227"/>
    <path d="M 97.578077 58.64011 
C 98.870742 58.64011 100.110638 58.126529 101.024691 57.212476 
C 101.938743 56.298423 102.452325 55.058528 102.452325 53.765862 
C 102.452325 52.473196 101.938743 51.233301 101.024691 50.319248 
C 100.110638 49.405196 98.870742 48.891614 97.578077 48.891614 
C 96.285411 48.891614 95.045515 49.405196 94.131463 50.319248 
C 93.21741 51.233301 92.703829 52.473196 92.703829 53.765862 
C 92.703829 55.058528 93.21741 56.298423 94.131463 57.212476 
C 95.045515 58.126529 96.285411 58.64011 97.578077 58.64011 
z
" clip-path="url(#p994559a75b)" style="fill: #91bfdb; stroke: #000000; stroke-width: 0.886227"/>
    <path d="M 135.582501 146.957174 
C 136.875166 146.957174 138.115062 146.443592 139.029114 145.52954 
C 139.943167 144.615487 140.456749 143.375592 140.456749 142.082926 
C 140.456749 140.79026 139.943167 139.550365 139.029114 138.636312 
C 138.115062 137.722259 136.875166 137.208678 135.582501 137.208678 
C 134.289835 137.208678 133.049939 137.722259 132.135887 138.636312 
C 131.221834 139.550365 130.708253 140.79026 130.708253 142.082926 
C 130.708253 143.375592 131.221834 144.615487 132.135887 145.52954 
C 133.049939 146.443592 134.289835 146.957174 135.582501 146.957174 
z
" clip-path="url(#p994559a75b)" style="fill: #fc8d59; stroke: #000000; stroke-width: 0.886227"/>
    <path d="M 135.582501 213.397468 
C 136.875166 213.397468 138.115062 212.883886 139.029114 211.969833 
C 139.943167 211.055781 140.456749 209.815885 140.456749 208.523219 
C 140.456749 207.230554 139.943167 205.990658 139.029114 205.076606 
C 138.115062 204.162553 136.875166 203.648971 135.582501 203.648971 
C 134.289835 203.648971 133.049939 204.162553 132.135887 205.076606 
C 131.221834 205.990658 130.708253 207.230554 130.708253 208.523219 
C 130.708253 209.815885 131.221834 211.055781 132.135887 211.969833 
C 133.049939 212.883886 134.289835 213.397468 135.582501 213.397468 
z
" clip-path="url(#p994559a75b)" style="fill: #ffffbf; stroke: #000000; stroke-width: 0.886227"/>
    <path d="M 135.582501 74.603926 
C 136.875166 74.603926 138.115062 74.090344 139.029114 73.176292 
C 139.943167 72.262239 140.456749 71.022344 140.456749 69.729678 
C 140.456749 68.437012 139.943167 67.197117 139.029114 66.283064 
C 138.115062 65.369011 136.875166 64.85543 135.582501 64.85543 
C 134.289835 64.85543 133.049939 65.369011 132.135887 66.283064 
C 131.221834 67.197117 130.708253 68.437012 130.708253 69.729678 
C 130.708253 71.022344 131.221834 72.262239 132.135887 73.176292 
C 133.049939 74.090344 134.289835 74.603926 135.582501 74.603926 
z
" clip-path="url(#p994559a75b)" style="fill: #91bfdb; stroke: #000000; stroke-width: 0.886227"/>
    <path d="M 500.774661 30.086189 
C 502.067326 30.086189 503.307222 29.572607 504.221274 28.658554 
C 505.135327 27.744502 505.648909 26.504606 505.648909 25.211941 
C 505.648909 23.919275 505.135327 22.679379 504.221274 21.765327 
C 503.307222 20.851274 502.067326 20.337692 500.774661 20.337692 
C 499.481995 20.337692 498.242099 20.851274 497.328047 21.765327 
C 496.413994 22.679379 495.900412 23.919275 495.900412 25.211941 
C 495.900412 26.504606 496.413994 27.744502 497.328047 28.658554 
C 498.242099 29.572607 499.481995 30.086189 500.774661 30.086189 
z
" clip-path="url(#p994559a75b)" style="fill: #fc8d59; stroke: #000000; stroke-width: 0.886227"/>
    <path d="M 500.774661 40.375639 
C 502.067326 40.375639 503.307222 39.862057 504.221274 38.948005 
C 505.135327 38.033952 505.648909 36.794056 505.648909 35.501391 
C 505.648909 34.208725 505.135327 32.968829 504.221274 32.054777 
C 503.307222 31.140724 502.067326 30.627143 500.774661 30.627143 
C 499.481995 30.627143 498.242099 31.140724 497.328047 32.054777 
C 496.413994 32.968829 495.900412 34.208725 495.900412 35.501391 
C 495.900412 36.794056 496.413994 38.033952 497.328047 38.948005 
C 498.242099 39.862057 499.481995 40.375639 500.774661 40.375639 
z
" clip-path="url(#p994559a75b)" style="fill: #ffffbf; stroke: #000000; stroke-width: 0.886227"/>
    <path d="M 500.774661 22.317532 
C 502.067326 22.317532 503.307222 21.803951 504.221274 20.889898 
C 505.135327 19.975846 505.648909 18.73595 505.648909 17.443284 
C 505.648909 16.150619 505.135327 14.910723 504.221274 13.99667 
C 503.307222 13.082618 502.067326 12.569036 500.774661 12.569036 
C 499.481995 12.569036 498.242099 13.082618 497.328047 13.99667 
C 496.413994 14.910723 495.900412 16.150619 495.900412 17.443284 
C 495.900412 18.73595 496.413994 19.975846 497.328047 20.889898 
C 498.242099 21.803951 499.481995 22.317532 500.774661 22.317532 
z
" clip-path="url(#p994559a75b)" style="fill: #91bfdb; stroke: #000000; stroke-width: 0.886227"/>
   </g>
   <g id="patch_3">
    <path d="M 529.182188 186.474219 
L 706.253188 186.474219 
L 706.253188 46.805781 
L 529.182188 46.805781 
z
" style="fill: #ffffff"/>
   </g>
   <g id="text_9">
    <!-- configuration -->
    <g transform="translate(542.982188 80.285625) scale(0.19 -0.19)">
     <defs>
      <path id="DejaVuSans-6e" d="M 3513 2113 
L 3513 0 
L 2938 0 
L 2938 2094 
Q 2938 2591 2744 2837 
Q 2550 3084 2163 3084 
Q 1697 3084 1428 2787 
Q 1159 2491 1159 1978 
L 1159 0 
L 581 0 
L 581 3500 
L 1159 3500 
L 1159 2956 
Q 1366 3272 1645 3428 
Q 1925 3584 2291 3584 
Q 2894 3584 3203 3211 
Q 3513 2838 3513 2113 
z
" transform="scale(0.015625)"/>
      <path id="DejaVuSans-66" d="M 2375 4863 
L 2375 4384 
L 1825 4384 
Q 1516 4384 1395 4259 
Q 1275 4134 1275 3809 
L 1275 3500 
L 2222 3500 
L 2222 3053 
L 1275 3053 
L 1275 0 
L 697 0 
L 697 3053 
L 147 3053 
L 147 3500 
L 697 3500 
L 697 3744 
Q 697 4328 969 4595 
Q 1241 4863 1831 4863 
L 2375 4863 
z
" transform="scale(0.015625)"/>
     </defs>
     <use xlink:href="#DejaVuSans-63"/>
     <use xlink:href="#DejaVuSans-6f" x="54.980469"/>
     <use xlink:href="#DejaVuSans-6e" x="116.162109"/>
     <use xlink:href="#DejaVuSans-66" x="179.541016"/>
     <use xlink:href="#DejaVuSans-69" x="214.746094"/>
     <use xlink:href="#DejaVuSans-67" x="242.529297"/>
     <use xlink:href="#DejaVuSans-75" x="306.005859"/>
     <use xlink:href="#DejaVuSans-72" x="369.384766"/>
     <use xlink:href="#DejaVuSans-61" x="410.498047"/>
     <use xlink:href="#DejaVuSans-74" x="471.777344"/>
     <use xlink:href="#DejaVuSans-69" x="510.986328"/>
     <use xlink:href="#DejaVuSans-6f" x="538.769531"/>
     <use xlink:href="#DejaVuSans-6e" x="599.951172"/>
    </g>
   </g>
   <g id="patch_4">
    <path d="M 542.982188 113.954219 
L 570.342188 113.954219 
L 570.342188 86.594219 
L 542.982188 86.594219 
z
" clip-path="url(#pc2543e47e6)" style="fill: #f2f2f2; stroke: #cccccc; stroke-linejoin: miter"/>
   </g>
   <g id="line2d_21">
    <path d="M 556.662187 100.274219 
" clip-path="url(#pc2543e47e6)" style="fill: none; stroke: #1f77b4; stroke-width: 1.5; stroke-linecap: square"/>
    <defs>
     <path id="m861ef19019" d="M 0 4.874248 
C 1.292666 4.874248 2.532561 4.360667 3.446614 3.446614 
C 4.360667 2.532561 4.874248 1.292666 4.874248 0 
C 4.874248 -1.292666 4.360667 -2.532561 3.446614 -3.446614 
C 2.532561 -4.360667 1.292666 -4.874248 0 -4.874248 
C -1.292666 -4.874248 -2.532561 -4.360667 -3.446614 -3.446614 
C -4.360667 -2.532561 -4.874248 -1.292666 -4.874248 0 
C -4.874248 1.292666 -4.360667 2.532561 -3.446614 3.446614 
C -2.532561 4.360667 -1.292666 4.874248 0 4.874248 
z
" style="stroke: #000000; stroke-width: 0.886227"/>
    </defs>
    <g clip-path="url(#pc2543e47e6)">
     <use xlink:href="#m861ef19019" x="556.662187" y="100.274219" style="fill: #fc8d59; stroke: #000000; stroke-width: 0.886227"/>
    </g>
   </g>
   <g id="text_10">
    <!-- node2vec -->
    <g transform="translate(573.342188 104.468469) scale(0.152 -0.152)">
     <defs>
      <path id="DejaVuSans-64" d="M 2906 2969 
L 2906 4863 
L 3481 4863 
L 3481 0 
L 2906 0 
L 2906 525 
Q 2725 213 2448 61 
Q 2172 -91 1784 -91 
Q 1150 -91 751 415 
Q 353 922 353 1747 
Q 353 2572 751 3078 
Q 1150 3584 1784 3584 
Q 2172 3584 2448 3432 
Q 2725 3281 2906 2969 
z
M 947 1747 
Q 947 1113 1208 752 
Q 1469 391 1925 391 
Q 2381 391 2643 752 
Q 2906 1113 2906 1747 
Q 2906 2381 2643 2742 
Q 2381 3103 1925 3103 
Q 1469 3103 1208 2742 
Q 947 2381 947 1747 
z
" transform="scale(0.015625)"/>
     </defs>
     <use xlink:href="#DejaVuSans-6e"/>
     <use xlink:href="#DejaVuSans-6f" x="63.378906"/>
     <use xlink:href="#DejaVuSans-64" x="124.560547"/>
     <use xlink:href="#DejaVuSans-65" x="188.037109"/>
     <use xlink:href="#DejaVuSans-32" x="249.560547"/>
     <use xlink:href="#DejaVuSans-76" x="313.183594"/>
     <use xlink:href="#DejaVuSans-65" x="372.363281"/>
     <use xlink:href="#DejaVuSans-63" x="433.886719"/>
    </g>
   </g>
   <g id="patch_5">
    <path d="M 542.982188 143.314219 
L 570.342188 143.314219 
L 570.342188 115.954219 
L 542.982188 115.954219 
z
" clip-path="url(#p81c843e854)" style="fill: #f2f2f2; stroke: #cccccc; stroke-linejoin: miter"/>
   </g>
   <g id="line2d_22">
    <path d="M 556.662187 129.634219 
" clip-path="url(#p81c843e854)" style="fill: none; stroke: #1f77b4; stroke-width: 1.5; stroke-linecap: square"/>
    <defs>
     <path id="md4a4c70752" d="M 0 4.874248 
C 1.292666 4.874248 2.532561 4.360667 3.446614 3.446614 
C 4.360667 2.532561 4.874248 1.292666 4.874248 0 
C 4.874248 -1.292666 4.360667 -2.532561 3.446614 -3.446614 
C 2.532561 -4.360667 1.292666 -4.874248 0 -4.874248 
C -1.292666 -4.874248 -2.532561 -4.360667 -3.446614 -3.446614 
C -4.360667 -2.532561 -4.874248 -1.292666 -4.874248 0 
C -4.874248 1.292666 -4.360667 2.532561 -3.446614 3.446614 
C -2.532561 4.360667 -1.292666 4.874248 0 4.874248 
z
" style="stroke: #000000; stroke-width: 0.886227"/>
    </defs>
    <g clip-path="url(#p81c843e854)">
     <use xlink:href="#md4a4c70752" x="556.662187" y="129.634219" style="fill: #ffffbf; stroke: #000000; stroke-width: 0.886227"/>
    </g>
   </g>
   <g id="text_11">
    <!-- low awareness -->
    <g transform="translate(573.342188 133.828469) scale(0.152 -0.152)">
     <defs>
      <path id="DejaVuSans-77" d="M 269 3500 
L 844 3500 
L 1563 769 
L 2278 3500 
L 2956 3500 
L 3675 769 
L 4391 3500 
L 4966 3500 
L 4050 0 
L 3372 0 
L 2619 2869 
L 1863 0 
L 1184 0 
L 269 3500 
z
" transform="scale(0.015625)"/>
     </defs>
     <use xlink:href="#DejaVuSans-6c"/>
     <use xlink:href="#DejaVuSans-6f" x="27.783203"/>
     <use xlink:href="#DejaVuSans-77" x="88.964844"/>
     <use xlink:href="#DejaVuSans-20" x="170.751953"/>
     <use xlink:href="#DejaVuSans-61" x="202.539062"/>
     <use xlink:href="#DejaVuSans-77" x="263.818359"/>
     <use xlink:href="#DejaVuSans-61" x="345.605469"/>
     <use xlink:href="#DejaVuSans-72" x="406.884766"/>
     <use xlink:href="#DejaVuSans-65" x="445.748047"/>
     <use xlink:href="#DejaVuSans-6e" x="507.271484"/>
     <use xlink:href="#DejaVuSans-65" x="570.650391"/>
     <use xlink:href="#DejaVuSans-73" x="632.173828"/>
     <use xlink:href="#DejaVuSans-73" x="684.273438"/>
    </g>
   </g>
   <g id="patch_6">
    <path d="M 542.982188 172.674219 
L 570.342188 172.674219 
L 570.342188 145.314219 
L 542.982188 145.314219 
z
" clip-path="url(#p961fa473b1)" style="fill: #f2f2f2; stroke: #cccccc; stroke-linejoin: miter"/>
   </g>
   <g id="line2d_23">
    <path d="M 556.662187 158.994219 
" clip-path="url(#p961fa473b1)" style="fill: none; stroke: #1f77b4; stroke-width: 1.5; stroke-linecap: square"/>
    <defs>
     <path id="m457290ffc1" d="M 0 4.874248 
C 1.292666 4.874248 2.532561 4.360667 3.446614 3.446614 
C 4.360667 2.532561 4.874248 1.292666 4.874248 0 
C 4.874248 -1.292666 4.360667 -2.532561 3.446614 -3.446614 
C 2.532561 -4.360667 1.292666 -4.874248 0 -4.874248 
C -1.292666 -4.874248 -2.532561 -4.360667 -3.446614 -3.446614 
C -4.360667 -2.532561 -4.874248 -1.292666 -4.874248 0 
C -4.874248 1.292666 -4.360667 2.532561 -3.446614 3.446614 
C -2.532561 4.360667 -1.292666 4.874248 0 4.874248 
z
" style="stroke: #000000; stroke-width: 0.886227"/>
    </defs>
    <g clip-path="url(#p961fa473b1)">
     <use xlink:href="#m457290ffc1" x="556.662187" y="158.994219" style="fill: #91bfdb; stroke: #000000; stroke-width: 0.886227"/>
    </g>
   </g>
   <g id="text_12">
    <!-- high awareness -->
    <g transform="translate(573.342188 163.188469) scale(0.152 -0.152)">
     <defs>
      <path id="DejaVuSans-68" d="M 3513 2113 
L 3513 0 
L 2938 0 
L 2938 2094 
Q 2938 2591 2744 2837 
Q 2550 3084 2163 3084 
Q 1697 3084 1428 2787 
Q 1159 2491 1159 1978 
L 1159 0 
L 581 0 
L 581 4863 
L 1159 4863 
L 1159 2956 
Q 1366 3272 1645 3428 
Q 1925 3584 2291 3584 
Q 2894 3584 3203 3211 
Q 3513 2838 3513 2113 
z
" transform="scale(0.015625)"/>
     </defs>
     <use xlink:href="#DejaVuSans-68"/>
     <use xlink:href="#DejaVuSans-69" x="63.378906"/>
     <use xlink:href="#DejaVuSans-67" x="91.162109"/>
     <use xlink:href="#DejaVuSans-68" x="154.638672"/>
     <use xlink:href="#DejaVuSans-20" x="218.017578"/>
     <use xlink:href="#DejaVuSans-61" x="249.804688"/>
     <use xlink:href="#DejaVuSans-77" x="311.083984"/>
     <use xlink:href="#DejaVuSans-61" x="392.871094"/>
     <use xlink:href="#DejaVuSans-72" x="454.150391"/>
     <use xlink:href="#DejaVuSans-65" x="493.013672"/>
     <use xlink:href="#DejaVuSans-6e" x="554.537109"/>
     <use xlink:href="#DejaVuSans-65" x="617.916016"/>
     <use xlink:href="#DejaVuSans-73" x="679.439453"/>
     <use xlink:href="#DejaVuSans-73" x="731.539062"/>
    </g>
   </g>
  </g>
 </g>
 <defs>
  <clipPath id="p994559a75b">
   <rect x="75.582188" y="7.2" width="446.4" height="221.76"/>
  </clipPath>
  <clipPath id="pc2543e47e6">
   <path d="M 542.982188 113.954219 
L 542.982188 86.594219 
L 570.342188 86.594219 
L 570.342188 113.954219 
"/>
  </clipPath>
  <clipPath id="p81c843e854">
   <path d="M 542.982188 143.314219 
L 542.982188 115.954219 
L 570.342188 115.954219 
L 570.342188 143.314219 
"/>
  </clipPath>
  <clipPath id="p961fa473b1">
   <path d="M 542.982188 172.674219 
L 542.982188 145.314219 
L 570.342188 145.314219 
L 570.342188 172.674219 
"/>
  </clipPath>
 </defs>
</svg>
