<?xml version="1.0" encoding="utf-8" standalone="no"?>
<!DOCTYPE svg PUBLIC "-//W3C//DTD SVG 1.1//EN"
  "http://www.w3.org/Graphics/SVG/1.1/DTD/svg11.dtd">
<svg xmlns:xlink="http://www.w3.org/1999/xlink" width="723.124188pt" height="285.409187pt" viewBox="0 0 723.124188 285.409187" xmlns="http://www.w3.org/2000/svg" version="1.1">
 <metadata>
  <rdf:RDF xmlns:dc="http://purl.org/dc/elements/1.1/" xmlns:cc="http://creativecommons.org/ns#" xmlns:rdf="http://www.w3.org/1999/02/22-rdf-syntax-ns#">
   <cc:Work>
    <dc:type rdf:resource="http://purl.org/dc/dcmitype/StillImage"/>
    <dc:date>2024-07-21T16:40:04.968532</dc:date>
    <dc:format>image/svg+xml</dc:format>
    <dc:creator>
     <cc:Agent>
      <dc:title>Matplotlib v3.6.2, https://matplotlib.org/</dc:title>
     </cc:Agent>
    </dc:creator>
   </cc:Work>
  </rdf:RDF>
 </metadata>
 <defs>
  <style type="text/css">*{stroke-linejoin: round; stroke-linecap: butt}</style>
 </defs>
 <g id="figure_1">
  <g id="patch_1">
   <path d="M 0 285.409187 
L 723.124188 285.409187 
L 723.124188 0 
L 0 0 
z
" style="fill: #ffffff; stroke: #ffffff; stroke-linejoin: miter"/>
  </g>
  <g id="axes_1">
   <g id="patch_2">
    <path d="M 85.253188 228.96 
L 531.653187 228.96 
L 531.653187 7.2 
L 85.253188 7.2 
z
" style="fill: #ebebeb"/>
   </g>
   <g id="matplotlib.axis_1">
    <g id="xtick_1">
     <g id="line2d_1">
      <path d="M 168.953187 228.96 
L 168.953187 7.2 
" clip-path="url(#p13b6a049c2)" style="fill: none; stroke: #ffffff"/>
     </g>
     <g id="line2d_2">
      <path d="M 168.953187 228.96 
" style="fill: none; stroke: #000000; stroke-width: 1.5"/>
      <defs>
       <path id="md76d71f3c5" d="M 0 0 
L 0 4.75 
" style="stroke: #333333"/>
      </defs>
      <g>
       <use xlink:href="#md76d71f3c5" x="168.953187" y="228.96" style="stroke: #333333"/>
      </g>
     </g>
     <g id="text_1">
      <!-- distinct -->
      <g style="fill: #4d4d4d" transform="translate(140.992312 249.059625) scale(0.152 -0.152)">
       <defs>
        <path id="DejaVuSans-64" d="M 2906 2969 
L 2906 4863 
L 3481 4863 
L 3481 0 
L 2906 0 
L 2906 525 
Q 2725 213 2448 61 
Q 2172 -91 1784 -91 
Q 1150 -91 751 415 
Q 353 922 353 1747 
Q 353 2572 751 3078 
Q 1150 3584 1784 3584 
Q 2172 3584 2448 3432 
Q 2725 3281 2906 2969 
z
M 947 1747 
Q 947 1113 1208 752 
Q 1469 391 1925 391 
Q 2381 391 2643 752 
Q 2906 1113 2906 1747 
Q 2906 2381 2643 2742 
Q 2381 3103 1925 3103 
Q 1469 3103 1208 2742 
Q 947 2381 947 1747 
z
" transform="scale(0.015625)"/>
        <path id="DejaVuSans-69" d="M 603 3500 
L 1178 3500 
L 1178 0 
L 603 0 
L 603 3500 
z
M 603 4863 
L 1178 4863 
L 1178 4134 
L 603 4134 
L 603 4863 
z
" transform="scale(0.015625)"/>
        <path id="DejaVuSans-73" d="M 2834 3397 
L 2834 2853 
Q 2591 2978 2328 3040 
Q 2066 3103 1784 3103 
Q 1356 3103 1142 2972 
Q 928 2841 928 2578 
Q 928 2378 1081 2264 
Q 1234 2150 1697 2047 
L 1894 2003 
Q 2506 1872 2764 1633 
Q 3022 1394 3022 966 
Q 3022 478 2636 193 
Q 2250 -91 1575 -91 
Q 1294 -91 989 -36 
Q 684 19 347 128 
L 347 722 
Q 666 556 975 473 
Q 1284 391 1588 391 
Q 1994 391 2212 530 
Q 2431 669 2431 922 
Q 2431 1156 2273 1281 
Q 2116 1406 1581 1522 
L 1381 1569 
Q 847 1681 609 1914 
Q 372 2147 372 2553 
Q 372 3047 722 3315 
Q 1072 3584 1716 3584 
Q 2034 3584 2315 3537 
Q 2597 3491 2834 3397 
z
" transform="scale(0.015625)"/>
        <path id="DejaVuSans-74" d="M 1172 4494 
L 1172 3500 
L 2356 3500 
L 2356 3053 
L 1172 3053 
L 1172 1153 
Q 1172 725 1289 603 
Q 1406 481 1766 481 
L 2356 481 
L 2356 0 
L 1766 0 
Q 1100 0 847 248 
Q 594 497 594 1153 
L 594 3053 
L 172 3053 
L 172 3500 
L 594 3500 
L 594 4494 
L 1172 4494 
z
" transform="scale(0.015625)"/>
        <path id="DejaVuSans-6e" d="M 3513 2113 
L 3513 0 
L 2938 0 
L 2938 2094 
Q 2938 2591 2744 2837 
Q 2550 3084 2163 3084 
Q 1697 3084 1428 2787 
Q 1159 2491 1159 1978 
L 1159 0 
L 581 0 
L 581 3500 
L 1159 3500 
L 1159 2956 
Q 1366 3272 1645 3428 
Q 1925 3584 2291 3584 
Q 2894 3584 3203 3211 
Q 3513 2838 3513 2113 
z
" transform="scale(0.015625)"/>
        <path id="DejaVuSans-63" d="M 3122 3366 
L 3122 2828 
Q 2878 2963 2633 3030 
Q 2388 3097 2138 3097 
Q 1578 3097 1268 2742 
Q 959 2388 959 1747 
Q 959 1106 1268 751 
Q 1578 397 2138 397 
Q 2388 397 2633 464 
Q 2878 531 3122 666 
L 3122 134 
Q 2881 22 2623 -34 
Q 2366 -91 2075 -91 
Q 1284 -91 818 406 
Q 353 903 353 1747 
Q 353 2603 823 3093 
Q 1294 3584 2113 3584 
Q 2378 3584 2631 3529 
Q 2884 3475 3122 3366 
z
" transform="scale(0.015625)"/>
       </defs>
       <use xlink:href="#DejaVuSans-64"/>
       <use xlink:href="#DejaVuSans-69" x="63.476562"/>
       <use xlink:href="#DejaVuSans-73" x="91.259766"/>
       <use xlink:href="#DejaVuSans-74" x="143.359375"/>
       <use xlink:href="#DejaVuSans-69" x="182.568359"/>
       <use xlink:href="#DejaVuSans-6e" x="210.351562"/>
       <use xlink:href="#DejaVuSans-63" x="273.730469"/>
       <use xlink:href="#DejaVuSans-74" x="328.710938"/>
      </g>
     </g>
    </g>
    <g id="xtick_2">
     <g id="line2d_3">
      <path d="M 308.453187 228.96 
L 308.453187 7.2 
" clip-path="url(#p13b6a049c2)" style="fill: none; stroke: #ffffff"/>
     </g>
     <g id="line2d_4">
      <path d="M 308.453187 228.96 
" style="fill: none; stroke: #000000; stroke-width: 1.5"/>
      <g>
       <use xlink:href="#md76d71f3c5" x="308.453187" y="228.96" style="stroke: #333333"/>
      </g>
     </g>
     <g id="text_2">
      <!-- semi -->
      <g style="fill: #4d4d4d" transform="translate(290.303437 249.059625) scale(0.152 -0.152)">
       <defs>
        <path id="DejaVuSans-65" d="M 3597 1894 
L 3597 1613 
L 953 1613 
Q 991 1019 1311 708 
Q 1631 397 2203 397 
Q 2534 397 2845 478 
Q 3156 559 3463 722 
L 3463 178 
Q 3153 47 2828 -22 
Q 2503 -91 2169 -91 
Q 1331 -91 842 396 
Q 353 884 353 1716 
Q 353 2575 817 3079 
Q 1281 3584 2069 3584 
Q 2775 3584 3186 3129 
Q 3597 2675 3597 1894 
z
M 3022 2063 
Q 3016 2534 2758 2815 
Q 2500 3097 2075 3097 
Q 1594 3097 1305 2825 
Q 1016 2553 972 2059 
L 3022 2063 
z
" transform="scale(0.015625)"/>
        <path id="DejaVuSans-6d" d="M 3328 2828 
Q 3544 3216 3844 3400 
Q 4144 3584 4550 3584 
Q 5097 3584 5394 3201 
Q 5691 2819 5691 2113 
L 5691 0 
L 5113 0 
L 5113 2094 
Q 5113 2597 4934 2840 
Q 4756 3084 4391 3084 
Q 3944 3084 3684 2787 
Q 3425 2491 3425 1978 
L 3425 0 
L 2847 0 
L 2847 2094 
Q 2847 2600 2669 2842 
Q 2491 3084 2119 3084 
Q 1678 3084 1418 2786 
Q 1159 2488 1159 1978 
L 1159 0 
L 581 0 
L 581 3500 
L 1159 3500 
L 1159 2956 
Q 1356 3278 1631 3431 
Q 1906 3584 2284 3584 
Q 2666 3584 2933 3390 
Q 3200 3197 3328 2828 
z
" transform="scale(0.015625)"/>
       </defs>
       <use xlink:href="#DejaVuSans-73"/>
       <use xlink:href="#DejaVuSans-65" x="52.099609"/>
       <use xlink:href="#DejaVuSans-6d" x="113.623047"/>
       <use xlink:href="#DejaVuSans-69" x="211.035156"/>
      </g>
     </g>
    </g>
    <g id="xtick_3">
     <g id="line2d_5">
      <path d="M 447.953187 228.96 
L 447.953187 7.2 
" clip-path="url(#p13b6a049c2)" style="fill: none; stroke: #ffffff"/>
     </g>
     <g id="line2d_6">
      <path d="M 447.953187 228.96 
" style="fill: none; stroke: #000000; stroke-width: 1.5"/>
      <g>
       <use xlink:href="#md76d71f3c5" x="447.953187" y="228.96" style="stroke: #333333"/>
      </g>
     </g>
     <g id="text_3">
      <!-- mixed -->
      <g style="fill: #4d4d4d" transform="translate(424.677 249.059625) scale(0.152 -0.152)">
       <defs>
        <path id="DejaVuSans-78" d="M 3513 3500 
L 2247 1797 
L 3578 0 
L 2900 0 
L 1881 1375 
L 863 0 
L 184 0 
L 1544 1831 
L 300 3500 
L 978 3500 
L 1906 2253 
L 2834 3500 
L 3513 3500 
z
" transform="scale(0.015625)"/>
       </defs>
       <use xlink:href="#DejaVuSans-6d"/>
       <use xlink:href="#DejaVuSans-69" x="97.412109"/>
       <use xlink:href="#DejaVuSans-78" x="125.195312"/>
       <use xlink:href="#DejaVuSans-65" x="181.25"/>
       <use xlink:href="#DejaVuSans-64" x="242.773438"/>
      </g>
     </g>
    </g>
    <g id="text_4">
     <!-- Graph Type -->
     <g transform="translate(247.276859 274.257781) scale(0.19 -0.19)">
      <defs>
       <path id="DejaVuSans-47" d="M 3809 666 
L 3809 1919 
L 2778 1919 
L 2778 2438 
L 4434 2438 
L 4434 434 
Q 4069 175 3628 42 
Q 3188 -91 2688 -91 
Q 1594 -91 976 548 
Q 359 1188 359 2328 
Q 359 3472 976 4111 
Q 1594 4750 2688 4750 
Q 3144 4750 3555 4637 
Q 3966 4525 4313 4306 
L 4313 3634 
Q 3963 3931 3569 4081 
Q 3175 4231 2741 4231 
Q 1884 4231 1454 3753 
Q 1025 3275 1025 2328 
Q 1025 1384 1454 906 
Q 1884 428 2741 428 
Q 3075 428 3337 486 
Q 3600 544 3809 666 
z
" transform="scale(0.015625)"/>
       <path id="DejaVuSans-72" d="M 2631 2963 
Q 2534 3019 2420 3045 
Q 2306 3072 2169 3072 
Q 1681 3072 1420 2755 
Q 1159 2438 1159 1844 
L 1159 0 
L 581 0 
L 581 3500 
L 1159 3500 
L 1159 2956 
Q 1341 3275 1631 3429 
Q 1922 3584 2338 3584 
Q 2397 3584 2469 3576 
Q 2541 3569 2628 3553 
L 2631 2963 
z
" transform="scale(0.015625)"/>
       <path id="DejaVuSans-61" d="M 2194 1759 
Q 1497 1759 1228 1600 
Q 959 1441 959 1056 
Q 959 750 1161 570 
Q 1363 391 1709 391 
Q 2188 391 2477 730 
Q 2766 1069 2766 1631 
L 2766 1759 
L 2194 1759 
z
M 3341 1997 
L 3341 0 
L 2766 0 
L 2766 531 
Q 2569 213 2275 61 
Q 1981 -91 1556 -91 
Q 1019 -91 701 211 
Q 384 513 384 1019 
Q 384 1609 779 1909 
Q 1175 2209 1959 2209 
L 2766 2209 
L 2766 2266 
Q 2766 2663 2505 2880 
Q 2244 3097 1772 3097 
Q 1472 3097 1187 3025 
Q 903 2953 641 2809 
L 641 3341 
Q 956 3463 1253 3523 
Q 1550 3584 1831 3584 
Q 2591 3584 2966 3190 
Q 3341 2797 3341 1997 
z
" transform="scale(0.015625)"/>
       <path id="DejaVuSans-70" d="M 1159 525 
L 1159 -1331 
L 581 -1331 
L 581 3500 
L 1159 3500 
L 1159 2969 
Q 1341 3281 1617 3432 
Q 1894 3584 2278 3584 
Q 2916 3584 3314 3078 
Q 3713 2572 3713 1747 
Q 3713 922 3314 415 
Q 2916 -91 2278 -91 
Q 1894 -91 1617 61 
Q 1341 213 1159 525 
z
M 3116 1747 
Q 3116 2381 2855 2742 
Q 2594 3103 2138 3103 
Q 1681 3103 1420 2742 
Q 1159 2381 1159 1747 
Q 1159 1113 1420 752 
Q 1681 391 2138 391 
Q 2594 391 2855 752 
Q 3116 1113 3116 1747 
z
" transform="scale(0.015625)"/>
       <path id="DejaVuSans-68" d="M 3513 2113 
L 3513 0 
L 2938 0 
L 2938 2094 
Q 2938 2591 2744 2837 
Q 2550 3084 2163 3084 
Q 1697 3084 1428 2787 
Q 1159 2491 1159 1978 
L 1159 0 
L 581 0 
L 581 4863 
L 1159 4863 
L 1159 2956 
Q 1366 3272 1645 3428 
Q 1925 3584 2291 3584 
Q 2894 3584 3203 3211 
Q 3513 2838 3513 2113 
z
" transform="scale(0.015625)"/>
       <path id="DejaVuSans-20" transform="scale(0.015625)"/>
       <path id="DejaVuSans-54" d="M -19 4666 
L 3928 4666 
L 3928 4134 
L 2272 4134 
L 2272 0 
L 1638 0 
L 1638 4134 
L -19 4134 
L -19 4666 
z
" transform="scale(0.015625)"/>
       <path id="DejaVuSans-79" d="M 2059 -325 
Q 1816 -950 1584 -1140 
Q 1353 -1331 966 -1331 
L 506 -1331 
L 506 -850 
L 844 -850 
Q 1081 -850 1212 -737 
Q 1344 -625 1503 -206 
L 1606 56 
L 191 3500 
L 800 3500 
L 1894 763 
L 2988 3500 
L 3597 3500 
L 2059 -325 
z
" transform="scale(0.015625)"/>
      </defs>
      <use xlink:href="#DejaVuSans-47"/>
      <use xlink:href="#DejaVuSans-72" x="77.490234"/>
      <use xlink:href="#DejaVuSans-61" x="118.603516"/>
      <use xlink:href="#DejaVuSans-70" x="179.882812"/>
      <use xlink:href="#DejaVuSans-68" x="243.359375"/>
      <use xlink:href="#DejaVuSans-20" x="306.738281"/>
      <use xlink:href="#DejaVuSans-54" x="338.525391"/>
      <use xlink:href="#DejaVuSans-79" x="383.984375"/>
      <use xlink:href="#DejaVuSans-70" x="443.164062"/>
      <use xlink:href="#DejaVuSans-65" x="506.640625"/>
     </g>
    </g>
   </g>
   <g id="matplotlib.axis_2">
    <g id="ytick_1">
     <g id="line2d_7">
      <path d="M 85.253188 218.88 
L 531.653187 218.88 
" clip-path="url(#p13b6a049c2)" style="fill: none; stroke: #ffffff"/>
     </g>
     <g id="line2d_8">
      <path d="M 85.253188 218.88 
" style="fill: none; stroke: #000000; stroke-width: 1.5"/>
      <defs>
       <path id="m408043d864" d="M 0 0 
L -4.75 0 
" style="stroke: #333333"/>
      </defs>
      <g>
       <use xlink:href="#m408043d864" x="85.253188" y="218.88" style="stroke: #333333"/>
      </g>
     </g>
     <g id="text_5">
      <!-- 0 -->
      <g style="fill: #4d4d4d" transform="translate(67.032188 223.07425) scale(0.152 -0.152)">
       <defs>
        <path id="DejaVuSans-30" d="M 2034 4250 
Q 1547 4250 1301 3770 
Q 1056 3291 1056 2328 
Q 1056 1369 1301 889 
Q 1547 409 2034 409 
Q 2525 409 2770 889 
Q 3016 1369 3016 2328 
Q 3016 3291 2770 3770 
Q 2525 4250 2034 4250 
z
M 2034 4750 
Q 2819 4750 3233 4129 
Q 3647 3509 3647 2328 
Q 3647 1150 3233 529 
Q 2819 -91 2034 -91 
Q 1250 -91 836 529 
Q 422 1150 422 2328 
Q 422 3509 836 4129 
Q 1250 4750 2034 4750 
z
" transform="scale(0.015625)"/>
       </defs>
       <use xlink:href="#DejaVuSans-30"/>
      </g>
     </g>
    </g>
    <g id="ytick_2">
     <g id="line2d_9">
      <path d="M 85.253188 168.45812 
L 531.653187 168.45812 
" clip-path="url(#p13b6a049c2)" style="fill: none; stroke: #ffffff"/>
     </g>
     <g id="line2d_10">
      <path d="M 85.253188 168.45812 
" style="fill: none; stroke: #000000; stroke-width: 1.5"/>
      <g>
       <use xlink:href="#m408043d864" x="85.253188" y="168.45812" style="stroke: #333333"/>
      </g>
     </g>
     <g id="text_6">
      <!-- 0.002 -->
      <g style="fill: #4d4d4d" transform="translate(33.188438 172.65237) scale(0.152 -0.152)">
       <defs>
        <path id="DejaVuSans-2e" d="M 684 794 
L 1344 794 
L 1344 0 
L 684 0 
L 684 794 
z
" transform="scale(0.015625)"/>
        <path id="DejaVuSans-32" d="M 1228 531 
L 3431 531 
L 3431 0 
L 469 0 
L 469 531 
Q 828 903 1448 1529 
Q 2069 2156 2228 2338 
Q 2531 2678 2651 2914 
Q 2772 3150 2772 3378 
Q 2772 3750 2511 3984 
Q 2250 4219 1831 4219 
Q 1534 4219 1204 4116 
Q 875 4013 500 3803 
L 500 4441 
Q 881 4594 1212 4672 
Q 1544 4750 1819 4750 
Q 2544 4750 2975 4387 
Q 3406 4025 3406 3419 
Q 3406 3131 3298 2873 
Q 3191 2616 2906 2266 
Q 2828 2175 2409 1742 
Q 1991 1309 1228 531 
z
" transform="scale(0.015625)"/>
       </defs>
       <use xlink:href="#DejaVuSans-30"/>
       <use xlink:href="#DejaVuSans-2e" x="63.623047"/>
       <use xlink:href="#DejaVuSans-30" x="95.410156"/>
       <use xlink:href="#DejaVuSans-30" x="159.033203"/>
       <use xlink:href="#DejaVuSans-32" x="222.65625"/>
      </g>
     </g>
    </g>
    <g id="ytick_3">
     <g id="line2d_11">
      <path d="M 85.253188 118.03624 
L 531.653187 118.03624 
" clip-path="url(#p13b6a049c2)" style="fill: none; stroke: #ffffff"/>
     </g>
     <g id="line2d_12">
      <path d="M 85.253188 118.03624 
" style="fill: none; stroke: #000000; stroke-width: 1.5"/>
      <g>
       <use xlink:href="#m408043d864" x="85.253188" y="118.03624" style="stroke: #333333"/>
      </g>
     </g>
     <g id="text_7">
      <!-- 0.004 -->
      <g style="fill: #4d4d4d" transform="translate(33.188438 122.23049) scale(0.152 -0.152)">
       <defs>
        <path id="DejaVuSans-34" d="M 2419 4116 
L 825 1625 
L 2419 1625 
L 2419 4116 
z
M 2253 4666 
L 3047 4666 
L 3047 1625 
L 3713 1625 
L 3713 1100 
L 3047 1100 
L 3047 0 
L 2419 0 
L 2419 1100 
L 313 1100 
L 313 1709 
L 2253 4666 
z
" transform="scale(0.015625)"/>
       </defs>
       <use xlink:href="#DejaVuSans-30"/>
       <use xlink:href="#DejaVuSans-2e" x="63.623047"/>
       <use xlink:href="#DejaVuSans-30" x="95.410156"/>
       <use xlink:href="#DejaVuSans-30" x="159.033203"/>
       <use xlink:href="#DejaVuSans-34" x="222.65625"/>
      </g>
     </g>
    </g>
    <g id="ytick_4">
     <g id="line2d_13">
      <path d="M 85.253188 67.614361 
L 531.653187 67.614361 
" clip-path="url(#p13b6a049c2)" style="fill: none; stroke: #ffffff"/>
     </g>
     <g id="line2d_14">
      <path d="M 85.253188 67.614361 
" style="fill: none; stroke: #000000; stroke-width: 1.5"/>
      <g>
       <use xlink:href="#m408043d864" x="85.253188" y="67.614361" style="stroke: #333333"/>
      </g>
     </g>
     <g id="text_8">
      <!-- 0.006 -->
      <g style="fill: #4d4d4d" transform="translate(33.188438 71.808611) scale(0.152 -0.152)">
       <defs>
        <path id="DejaVuSans-36" d="M 2113 2584 
Q 1688 2584 1439 2293 
Q 1191 2003 1191 1497 
Q 1191 994 1439 701 
Q 1688 409 2113 409 
Q 2538 409 2786 701 
Q 3034 994 3034 1497 
Q 3034 2003 2786 2293 
Q 2538 2584 2113 2584 
z
M 3366 4563 
L 3366 3988 
Q 3128 4100 2886 4159 
Q 2644 4219 2406 4219 
Q 1781 4219 1451 3797 
Q 1122 3375 1075 2522 
Q 1259 2794 1537 2939 
Q 1816 3084 2150 3084 
Q 2853 3084 3261 2657 
Q 3669 2231 3669 1497 
Q 3669 778 3244 343 
Q 2819 -91 2113 -91 
Q 1303 -91 875 529 
Q 447 1150 447 2328 
Q 447 3434 972 4092 
Q 1497 4750 2381 4750 
Q 2619 4750 2861 4703 
Q 3103 4656 3366 4563 
z
" transform="scale(0.015625)"/>
       </defs>
       <use xlink:href="#DejaVuSans-30"/>
       <use xlink:href="#DejaVuSans-2e" x="63.623047"/>
       <use xlink:href="#DejaVuSans-30" x="95.410156"/>
       <use xlink:href="#DejaVuSans-30" x="159.033203"/>
       <use xlink:href="#DejaVuSans-36" x="222.65625"/>
      </g>
     </g>
    </g>
    <g id="ytick_5">
     <g id="line2d_15">
      <path d="M 85.253188 17.192481 
L 531.653187 17.192481 
" clip-path="url(#p13b6a049c2)" style="fill: none; stroke: #ffffff"/>
     </g>
     <g id="line2d_16">
      <path d="M 85.253188 17.192481 
" style="fill: none; stroke: #000000; stroke-width: 1.5"/>
      <g>
       <use xlink:href="#m408043d864" x="85.253188" y="17.192481" style="stroke: #333333"/>
      </g>
     </g>
     <g id="text_9">
      <!-- 0.008 -->
      <g style="fill: #4d4d4d" transform="translate(33.188438 21.386731) scale(0.152 -0.152)">
       <defs>
        <path id="DejaVuSans-38" d="M 2034 2216 
Q 1584 2216 1326 1975 
Q 1069 1734 1069 1313 
Q 1069 891 1326 650 
Q 1584 409 2034 409 
Q 2484 409 2743 651 
Q 3003 894 3003 1313 
Q 3003 1734 2745 1975 
Q 2488 2216 2034 2216 
z
M 1403 2484 
Q 997 2584 770 2862 
Q 544 3141 544 3541 
Q 544 4100 942 4425 
Q 1341 4750 2034 4750 
Q 2731 4750 3128 4425 
Q 3525 4100 3525 3541 
Q 3525 3141 3298 2862 
Q 3072 2584 2669 2484 
Q 3125 2378 3379 2068 
Q 3634 1759 3634 1313 
Q 3634 634 3220 271 
Q 2806 -91 2034 -91 
Q 1263 -91 848 271 
Q 434 634 434 1313 
Q 434 1759 690 2068 
Q 947 2378 1403 2484 
z
M 1172 3481 
Q 1172 3119 1398 2916 
Q 1625 2713 2034 2713 
Q 2441 2713 2670 2916 
Q 2900 3119 2900 3481 
Q 2900 3844 2670 4047 
Q 2441 4250 2034 4250 
Q 1625 4250 1398 4047 
Q 1172 3844 1172 3481 
z
" transform="scale(0.015625)"/>
       </defs>
       <use xlink:href="#DejaVuSans-30"/>
       <use xlink:href="#DejaVuSans-2e" x="63.623047"/>
       <use xlink:href="#DejaVuSans-30" x="95.410156"/>
       <use xlink:href="#DejaVuSans-30" x="159.033203"/>
       <use xlink:href="#DejaVuSans-38" x="222.65625"/>
      </g>
     </g>
    </g>
    <g id="ytick_6">
     <g id="line2d_17">
      <path d="M 85.253188 193.66906 
L 531.653187 193.66906 
" clip-path="url(#p13b6a049c2)" style="fill: none; stroke: #ffffff; stroke-width: 0.5"/>
     </g>
    </g>
    <g id="ytick_7">
     <g id="line2d_18">
      <path d="M 85.253188 143.24718 
L 531.653187 143.24718 
" clip-path="url(#p13b6a049c2)" style="fill: none; stroke: #ffffff; stroke-width: 0.5"/>
     </g>
    </g>
    <g id="ytick_8">
     <g id="line2d_19">
      <path d="M 85.253188 92.825301 
L 531.653187 92.825301 
" clip-path="url(#p13b6a049c2)" style="fill: none; stroke: #ffffff; stroke-width: 0.5"/>
     </g>
    </g>
    <g id="ytick_9">
     <g id="line2d_20">
      <path d="M 85.253188 42.403421 
L 531.653187 42.403421 
" clip-path="url(#p13b6a049c2)" style="fill: none; stroke: #ffffff; stroke-width: 0.5"/>
     </g>
    </g>
    <g id="text_10">
     <!-- disparity -->
     <g transform="translate(21.637031 158.003594) rotate(-90) scale(0.19 -0.19)">
      <use xlink:href="#DejaVuSans-64"/>
      <use xlink:href="#DejaVuSans-69" x="63.476562"/>
      <use xlink:href="#DejaVuSans-73" x="91.259766"/>
      <use xlink:href="#DejaVuSans-70" x="143.359375"/>
      <use xlink:href="#DejaVuSans-61" x="206.835938"/>
      <use xlink:href="#DejaVuSans-72" x="268.115234"/>
      <use xlink:href="#DejaVuSans-69" x="309.228516"/>
      <use xlink:href="#DejaVuSans-74" x="337.011719"/>
      <use xlink:href="#DejaVuSans-79" x="376.220703"/>
     </g>
    </g>
   </g>
   <g id="PolyCollection_1">
    <path d="M 189.878187 218.88 
L 189.878187 85.140347 
L 231.728187 85.140347 
L 231.728187 218.88 
z
" clip-path="url(#p13b6a049c2)" style="fill: #91bfdb; stroke: #000000; stroke-width: 0.886227"/>
    <path d="M 148.028188 218.88 
L 148.028188 157.549887 
L 189.878187 157.549887 
L 189.878187 218.88 
z
" clip-path="url(#p13b6a049c2)" style="fill: #ffffbf; stroke: #000000; stroke-width: 0.886227"/>
    <path d="M 106.178188 218.88 
L 106.178188 40.567888 
L 148.028188 40.567888 
L 148.028188 218.88 
z
" clip-path="url(#p13b6a049c2)" style="fill: #fc8d59; stroke: #000000; stroke-width: 0.886227"/>
    <path d="M 329.378187 218.88 
L 329.378187 138.887019 
L 371.228187 138.887019 
L 371.228187 218.88 
z
" clip-path="url(#p13b6a049c2)" style="fill: #91bfdb; stroke: #000000; stroke-width: 0.886227"/>
    <path d="M 287.528187 218.88 
L 287.528187 197.518114 
L 329.378187 197.518114 
L 329.378187 218.88 
z
" clip-path="url(#p13b6a049c2)" style="fill: #ffffbf; stroke: #000000; stroke-width: 0.886227"/>
    <path d="M 245.678187 218.88 
L 245.678187 150.301465 
L 287.528187 150.301465 
L 287.528187 218.88 
z
" clip-path="url(#p13b6a049c2)" style="fill: #fc8d59; stroke: #000000; stroke-width: 0.886227"/>
    <path d="M 468.878187 218.88 
L 468.878187 184.617271 
L 510.728187 184.617271 
L 510.728187 218.88 
z
" clip-path="url(#p13b6a049c2)" style="fill: #91bfdb; stroke: #000000; stroke-width: 0.886227"/>
    <path d="M 427.028187 218.88 
L 427.028187 209.259601 
L 468.878187 209.259601 
L 468.878187 218.88 
z
" clip-path="url(#p13b6a049c2)" style="fill: #ffffbf; stroke: #000000; stroke-width: 0.886227"/>
    <path d="M 385.178187 218.88 
L 385.178187 195.579791 
L 427.028187 195.579791 
L 427.028187 218.88 
z
" clip-path="url(#p13b6a049c2)" style="fill: #fc8d59; stroke: #000000; stroke-width: 0.886227"/>
   </g>
   <g id="LineCollection_1">
    <path d="M 108.270688 87.347094 
L 145.935688 87.347094 
" clip-path="url(#p13b6a049c2)" style="fill: none; stroke: #000000; stroke-width: 0.886227"/>
    <path d="M 150.120688 173.518584 
L 187.785687 173.518584 
" clip-path="url(#p13b6a049c2)" style="fill: none; stroke: #000000; stroke-width: 0.886227"/>
    <path d="M 191.970688 121.76807 
L 229.635688 121.76807 
" clip-path="url(#p13b6a049c2)" style="fill: none; stroke: #000000; stroke-width: 0.886227"/>
    <path d="M 108.270688 17.28 
L 145.935688 17.28 
" clip-path="url(#p13b6a049c2)" style="fill: none; stroke: #000000; stroke-width: 0.886227"/>
    <path d="M 150.120688 136.197859 
L 187.785687 136.197859 
" clip-path="url(#p13b6a049c2)" style="fill: none; stroke: #000000; stroke-width: 0.886227"/>
    <path d="M 191.970688 47.891308 
L 229.635688 47.891308 
" clip-path="url(#p13b6a049c2)" style="fill: none; stroke: #000000; stroke-width: 0.886227"/>
    <path d="M 127.103188 17.28 
L 127.103188 87.347094 
" clip-path="url(#p13b6a049c2)" style="fill: none; stroke: #000000; stroke-width: 0.886227"/>
    <path d="M 168.953187 136.197859 
L 168.953187 173.518584 
" clip-path="url(#p13b6a049c2)" style="fill: none; stroke: #000000; stroke-width: 0.886227"/>
    <path d="M 210.803188 47.891308 
L 210.803188 121.76807 
" clip-path="url(#p13b6a049c2)" style="fill: none; stroke: #000000; stroke-width: 0.886227"/>
   </g>
   <g id="LineCollection_2">
    <path d="M 247.770687 159.155918 
L 285.435687 159.155918 
" clip-path="url(#p13b6a049c2)" style="fill: none; stroke: #000000; stroke-width: 0.886227"/>
    <path d="M 289.620687 201.244374 
L 327.285687 201.244374 
" clip-path="url(#p13b6a049c2)" style="fill: none; stroke: #000000; stroke-width: 0.886227"/>
    <path d="M 331.470687 161.193835 
L 369.135687 161.193835 
" clip-path="url(#p13b6a049c2)" style="fill: none; stroke: #000000; stroke-width: 0.886227"/>
    <path d="M 247.770687 142.607636 
L 285.435687 142.607636 
" clip-path="url(#p13b6a049c2)" style="fill: none; stroke: #000000; stroke-width: 0.886227"/>
    <path d="M 289.620687 193.321698 
L 327.285687 193.321698 
" clip-path="url(#p13b6a049c2)" style="fill: none; stroke: #000000; stroke-width: 0.886227"/>
    <path d="M 331.470687 124.187852 
L 369.135687 124.187852 
" clip-path="url(#p13b6a049c2)" style="fill: none; stroke: #000000; stroke-width: 0.886227"/>
    <path d="M 266.603187 142.607636 
L 266.603187 159.155918 
" clip-path="url(#p13b6a049c2)" style="fill: none; stroke: #000000; stroke-width: 0.886227"/>
    <path d="M 308.453187 193.321698 
L 308.453187 201.244374 
" clip-path="url(#p13b6a049c2)" style="fill: none; stroke: #000000; stroke-width: 0.886227"/>
    <path d="M 350.303187 124.187852 
L 350.303187 161.193835 
" clip-path="url(#p13b6a049c2)" style="fill: none; stroke: #000000; stroke-width: 0.886227"/>
   </g>
   <g id="LineCollection_3">
    <path d="M 387.270687 200.360898 
L 424.935687 200.360898 
" clip-path="url(#p13b6a049c2)" style="fill: none; stroke: #000000; stroke-width: 0.886227"/>
    <path d="M 429.120687 211.66869 
L 466.785687 211.66869 
" clip-path="url(#p13b6a049c2)" style="fill: none; stroke: #000000; stroke-width: 0.886227"/>
    <path d="M 470.970687 194.736166 
L 508.635688 194.736166 
" clip-path="url(#p13b6a049c2)" style="fill: none; stroke: #000000; stroke-width: 0.886227"/>
    <path d="M 387.270687 193.643538 
L 424.935687 193.643538 
" clip-path="url(#p13b6a049c2)" style="fill: none; stroke: #000000; stroke-width: 0.886227"/>
    <path d="M 429.120687 207.422517 
L 466.785687 207.422517 
" clip-path="url(#p13b6a049c2)" style="fill: none; stroke: #000000; stroke-width: 0.886227"/>
    <path d="M 470.970687 176.126618 
L 508.635688 176.126618 
" clip-path="url(#p13b6a049c2)" style="fill: none; stroke: #000000; stroke-width: 0.886227"/>
    <path d="M 406.103187 193.643538 
L 406.103187 200.360898 
" clip-path="url(#p13b6a049c2)" style="fill: none; stroke: #000000; stroke-width: 0.886227"/>
    <path d="M 447.953187 207.422517 
L 447.953187 211.66869 
" clip-path="url(#p13b6a049c2)" style="fill: none; stroke: #000000; stroke-width: 0.886227"/>
    <path d="M 489.803188 176.126618 
L 489.803188 194.736166 
" clip-path="url(#p13b6a049c2)" style="fill: none; stroke: #000000; stroke-width: 0.886227"/>
   </g>
   <g id="patch_3">
    <path d="M 538.853187 186.474219 
L 715.924188 186.474219 
L 715.924188 46.805781 
L 538.853187 46.805781 
z
" style="fill: #ffffff"/>
   </g>
   <g id="text_11">
    <!-- configuration -->
    <g transform="translate(552.653187 80.285625) scale(0.19 -0.19)">
     <defs>
      <path id="DejaVuSans-6f" d="M 1959 3097 
Q 1497 3097 1228 2736 
Q 959 2375 959 1747 
Q 959 1119 1226 758 
Q 1494 397 1959 397 
Q 2419 397 2687 759 
Q 2956 1122 2956 1747 
Q 2956 2369 2687 2733 
Q 2419 3097 1959 3097 
z
M 1959 3584 
Q 2709 3584 3137 3096 
Q 3566 2609 3566 1747 
Q 3566 888 3137 398 
Q 2709 -91 1959 -91 
Q 1206 -91 779 398 
Q 353 888 353 1747 
Q 353 2609 779 3096 
Q 1206 3584 1959 3584 
z
" transform="scale(0.015625)"/>
      <path id="DejaVuSans-66" d="M 2375 4863 
L 2375 4384 
L 1825 4384 
Q 1516 4384 1395 4259 
Q 1275 4134 1275 3809 
L 1275 3500 
L 2222 3500 
L 2222 3053 
L 1275 3053 
L 1275 0 
L 697 0 
L 697 3053 
L 147 3053 
L 147 3500 
L 697 3500 
L 697 3744 
Q 697 4328 969 4595 
Q 1241 4863 1831 4863 
L 2375 4863 
z
" transform="scale(0.015625)"/>
      <path id="DejaVuSans-67" d="M 2906 1791 
Q 2906 2416 2648 2759 
Q 2391 3103 1925 3103 
Q 1463 3103 1205 2759 
Q 947 2416 947 1791 
Q 947 1169 1205 825 
Q 1463 481 1925 481 
Q 2391 481 2648 825 
Q 2906 1169 2906 1791 
z
M 3481 434 
Q 3481 -459 3084 -895 
Q 2688 -1331 1869 -1331 
Q 1566 -1331 1297 -1286 
Q 1028 -1241 775 -1147 
L 775 -588 
Q 1028 -725 1275 -790 
Q 1522 -856 1778 -856 
Q 2344 -856 2625 -561 
Q 2906 -266 2906 331 
L 2906 616 
Q 2728 306 2450 153 
Q 2172 0 1784 0 
Q 1141 0 747 490 
Q 353 981 353 1791 
Q 353 2603 747 3093 
Q 1141 3584 1784 3584 
Q 2172 3584 2450 3431 
Q 2728 3278 2906 2969 
L 2906 3500 
L 3481 3500 
L 3481 434 
z
" transform="scale(0.015625)"/>
      <path id="DejaVuSans-75" d="M 544 1381 
L 544 3500 
L 1119 3500 
L 1119 1403 
Q 1119 906 1312 657 
Q 1506 409 1894 409 
Q 2359 409 2629 706 
Q 2900 1003 2900 1516 
L 2900 3500 
L 3475 3500 
L 3475 0 
L 2900 0 
L 2900 538 
Q 2691 219 2414 64 
Q 2138 -91 1772 -91 
Q 1169 -91 856 284 
Q 544 659 544 1381 
z
M 1991 3584 
L 1991 3584 
z
" transform="scale(0.015625)"/>
     </defs>
     <use xlink:href="#DejaVuSans-63"/>
     <use xlink:href="#DejaVuSans-6f" x="54.980469"/>
     <use xlink:href="#DejaVuSans-6e" x="116.162109"/>
     <use xlink:href="#DejaVuSans-66" x="179.541016"/>
     <use xlink:href="#DejaVuSans-69" x="214.746094"/>
     <use xlink:href="#DejaVuSans-67" x="242.529297"/>
     <use xlink:href="#DejaVuSans-75" x="306.005859"/>
     <use xlink:href="#DejaVuSans-72" x="369.384766"/>
     <use xlink:href="#DejaVuSans-61" x="410.498047"/>
     <use xlink:href="#DejaVuSans-74" x="471.777344"/>
     <use xlink:href="#DejaVuSans-69" x="510.986328"/>
     <use xlink:href="#DejaVuSans-6f" x="538.769531"/>
     <use xlink:href="#DejaVuSans-6e" x="599.951172"/>
    </g>
   </g>
   <g id="patch_4">
    <path d="M 552.653187 113.954219 
L 580.013187 113.954219 
L 580.013187 86.594219 
L 552.653187 86.594219 
z
" clip-path="url(#p356edbd0be)" style="fill: #f2f2f2"/>
   </g>
   <g id="patch_5">
    <path d="M 553.096301 113.511105 
L 579.570074 113.511105 
L 579.570074 87.037332 
L 553.096301 87.037332 
z
" clip-path="url(#p356edbd0be)" style="fill: #fc8d59; stroke: #000000; stroke-width: 0.886227; stroke-linejoin: miter; stroke-linecap: square"/>
   </g>
   <g id="text_12">
    <!-- node2vec -->
    <g transform="translate(583.013187 104.468469) scale(0.152 -0.152)">
     <defs>
      <path id="DejaVuSans-76" d="M 191 3500 
L 800 3500 
L 1894 563 
L 2988 3500 
L 3597 3500 
L 2284 0 
L 1503 0 
L 191 3500 
z
" transform="scale(0.015625)"/>
     </defs>
     <use xlink:href="#DejaVuSans-6e"/>
     <use xlink:href="#DejaVuSans-6f" x="63.378906"/>
     <use xlink:href="#DejaVuSans-64" x="124.560547"/>
     <use xlink:href="#DejaVuSans-65" x="188.037109"/>
     <use xlink:href="#DejaVuSans-32" x="249.560547"/>
     <use xlink:href="#DejaVuSans-76" x="313.183594"/>
     <use xlink:href="#DejaVuSans-65" x="372.363281"/>
     <use xlink:href="#DejaVuSans-63" x="433.886719"/>
    </g>
   </g>
   <g id="patch_6">
    <path d="M 552.653187 143.314219 
L 580.013187 143.314219 
L 580.013187 115.954219 
L 552.653187 115.954219 
z
" clip-path="url(#p0608756140)" style="fill: #f2f2f2"/>
   </g>
   <g id="patch_7">
    <path d="M 553.096301 142.871105 
L 579.570074 142.871105 
L 579.570074 116.397332 
L 553.096301 116.397332 
z
" clip-path="url(#p0608756140)" style="fill: #ffffbf; stroke: #000000; stroke-width: 0.886227; stroke-linejoin: miter; stroke-linecap: square"/>
   </g>
   <g id="text_13">
    <!-- low awareness -->
    <g transform="translate(583.013187 133.828469) scale(0.152 -0.152)">
     <defs>
      <path id="DejaVuSans-6c" d="M 603 4863 
L 1178 4863 
L 1178 0 
L 603 0 
L 603 4863 
z
" transform="scale(0.015625)"/>
      <path id="DejaVuSans-77" d="M 269 3500 
L 844 3500 
L 1563 769 
L 2278 3500 
L 2956 3500 
L 3675 769 
L 4391 3500 
L 4966 3500 
L 4050 0 
L 3372 0 
L 2619 2869 
L 1863 0 
L 1184 0 
L 269 3500 
z
" transform="scale(0.015625)"/>
     </defs>
     <use xlink:href="#DejaVuSans-6c"/>
     <use xlink:href="#DejaVuSans-6f" x="27.783203"/>
     <use xlink:href="#DejaVuSans-77" x="88.964844"/>
     <use xlink:href="#DejaVuSans-20" x="170.751953"/>
     <use xlink:href="#DejaVuSans-61" x="202.539062"/>
     <use xlink:href="#DejaVuSans-77" x="263.818359"/>
     <use xlink:href="#DejaVuSans-61" x="345.605469"/>
     <use xlink:href="#DejaVuSans-72" x="406.884766"/>
     <use xlink:href="#DejaVuSans-65" x="445.748047"/>
     <use xlink:href="#DejaVuSans-6e" x="507.271484"/>
     <use xlink:href="#DejaVuSans-65" x="570.650391"/>
     <use xlink:href="#DejaVuSans-73" x="632.173828"/>
     <use xlink:href="#DejaVuSans-73" x="684.273438"/>
    </g>
   </g>
   <g id="patch_8">
    <path d="M 552.653187 172.674219 
L 580.013187 172.674219 
L 580.013187 145.314219 
L 552.653187 145.314219 
z
" clip-path="url(#p23a1cffdec)" style="fill: #f2f2f2"/>
   </g>
   <g id="patch_9">
    <path d="M 553.096301 172.231105 
L 579.570074 172.231105 
L 579.570074 145.757332 
L 553.096301 145.757332 
z
" clip-path="url(#p23a1cffdec)" style="fill: #91bfdb; stroke: #000000; stroke-width: 0.886227; stroke-linejoin: miter; stroke-linecap: square"/>
   </g>
   <g id="text_14">
    <!-- high awareness -->
    <g transform="translate(583.013187 163.188469) scale(0.152 -0.152)">
     <use xlink:href="#DejaVuSans-68"/>
     <use xlink:href="#DejaVuSans-69" x="63.378906"/>
     <use xlink:href="#DejaVuSans-67" x="91.162109"/>
     <use xlink:href="#DejaVuSans-68" x="154.638672"/>
     <use xlink:href="#DejaVuSans-20" x="218.017578"/>
     <use xlink:href="#DejaVuSans-61" x="249.804688"/>
     <use xlink:href="#DejaVuSans-77" x="311.083984"/>
     <use xlink:href="#DejaVuSans-61" x="392.871094"/>
     <use xlink:href="#DejaVuSans-72" x="454.150391"/>
     <use xlink:href="#DejaVuSans-65" x="493.013672"/>
     <use xlink:href="#DejaVuSans-6e" x="554.537109"/>
     <use xlink:href="#DejaVuSans-65" x="617.916016"/>
     <use xlink:href="#DejaVuSans-73" x="679.439453"/>
     <use xlink:href="#DejaVuSans-73" x="731.539062"/>
    </g>
   </g>
  </g>
 </g>
 <defs>
  <clipPath id="p13b6a049c2">
   <rect x="85.253188" y="7.2" width="446.4" height="221.76"/>
  </clipPath>
  <clipPath id="p356edbd0be">
   <path d="M 552.653187 113.954219 
L 552.653187 86.594219 
L 580.013187 86.594219 
L 580.013187 113.954219 
"/>
  </clipPath>
  <clipPath id="p0608756140">
   <path d="M 552.653187 143.314219 
L 552.653187 115.954219 
L 580.013187 115.954219 
L 580.013187 143.314219 
"/>
  </clipPath>
  <clipPath id="p23a1cffdec">
   <path d="M 552.653187 172.674219 
L 552.653187 145.314219 
L 580.013187 145.314219 
L 580.013187 172.674219 
"/>
  </clipPath>
 </defs>
</svg>
