<?xml version="1.0" encoding="utf-8" standalone="no"?>
<!DOCTYPE svg PUBLIC "-//W3C//DTD SVG 1.1//EN"
  "http://www.w3.org/Graphics/SVG/1.1/DTD/svg11.dtd">
<svg xmlns:xlink="http://www.w3.org/1999/xlink" width="519.511187pt" height="396.289188pt" viewBox="0 0 519.511187 396.289188" xmlns="http://www.w3.org/2000/svg" version="1.1">
 <metadata>
  <rdf:RDF xmlns:dc="http://purl.org/dc/elements/1.1/" xmlns:cc="http://creativecommons.org/ns#" xmlns:rdf="http://www.w3.org/1999/02/22-rdf-syntax-ns#">
   <cc:Work>
    <dc:type rdf:resource="http://purl.org/dc/dcmitype/StillImage"/>
    <dc:date>2024-07-21T16:38:21.166026</dc:date>
    <dc:format>image/svg+xml</dc:format>
    <dc:creator>
     <cc:Agent>
      <dc:title>Matplotlib v3.6.2, https://matplotlib.org/</dc:title>
     </cc:Agent>
    </dc:creator>
   </cc:Work>
  </rdf:RDF>
 </metadata>
 <defs>
  <style type="text/css">*{stroke-linejoin: round; stroke-linecap: butt}</style>
 </defs>
 <g id="figure_1">
  <g id="patch_1">
   <path d="M 0 396.289188 
L 519.511187 396.289188 
L 519.511187 0 
L 0 0 
z
" style="fill: #ffffff; stroke: #ffffff; stroke-linejoin: miter"/>
  </g>
  <g id="axes_1">
   <g id="patch_2">
    <path d="M 65.911188 339.84 
L 512.311187 339.84 
L 512.311187 7.2 
L 65.911188 7.2 
z
" style="fill: #ffffff; stroke: #7f7f7f; stroke-linejoin: miter"/>
   </g>
   <g id="matplotlib.axis_1">
    <g id="xtick_1">
     <g id="line2d_1">
      <path d="M 77.636444 339.84 
L 77.636444 7.2 
" clip-path="url(#p0deb0ce34b)" style="fill: none; stroke: #e5e5e5; stroke-width: 0.8"/>
     </g>
     <g id="line2d_2">
      <path d="M 77.636444 339.84 
" style="fill: none; stroke: #000000; stroke-width: 1.5"/>
      <defs>
       <path id="meb0db5a49f" d="M 0 0 
L 0 4.75 
" style="stroke: #333333"/>
      </defs>
      <g>
       <use xlink:href="#meb0db5a49f" x="77.636444" y="339.84" style="stroke: #333333"/>
      </g>
     </g>
     <g id="text_1">
      <!-- 0 -->
      <g style="fill: #4d4d4d" transform="translate(72.800944 359.939625) scale(0.152 -0.152)">
       <defs>
        <path id="DejaVuSans-30" d="M 2034 4250 
Q 1547 4250 1301 3770 
Q 1056 3291 1056 2328 
Q 1056 1369 1301 889 
Q 1547 409 2034 409 
Q 2525 409 2770 889 
Q 3016 1369 3016 2328 
Q 3016 3291 2770 3770 
Q 2525 4250 2034 4250 
z
M 2034 4750 
Q 2819 4750 3233 4129 
Q 3647 3509 3647 2328 
Q 3647 1150 3233 529 
Q 2819 -91 2034 -91 
Q 1250 -91 836 529 
Q 422 1150 422 2328 
Q 422 3509 836 4129 
Q 1250 4750 2034 4750 
z
" transform="scale(0.015625)"/>
       </defs>
       <use xlink:href="#DejaVuSans-30"/>
      </g>
     </g>
    </g>
    <g id="xtick_2">
     <g id="line2d_3">
      <path d="M 159.596722 339.84 
L 159.596722 7.2 
" clip-path="url(#p0deb0ce34b)" style="fill: none; stroke: #e5e5e5; stroke-width: 0.8"/>
     </g>
     <g id="line2d_4">
      <path d="M 159.596722 339.84 
" style="fill: none; stroke: #000000; stroke-width: 1.5"/>
      <g>
       <use xlink:href="#meb0db5a49f" x="159.596722" y="339.84" style="stroke: #333333"/>
      </g>
     </g>
     <g id="text_2">
      <!-- 0.1 -->
      <g style="fill: #4d4d4d" transform="translate(147.510347 359.939625) scale(0.152 -0.152)">
       <defs>
        <path id="DejaVuSans-2e" d="M 684 794 
L 1344 794 
L 1344 0 
L 684 0 
L 684 794 
z
" transform="scale(0.015625)"/>
        <path id="DejaVuSans-31" d="M 794 531 
L 1825 531 
L 1825 4091 
L 703 3866 
L 703 4441 
L 1819 4666 
L 2450 4666 
L 2450 531 
L 3481 531 
L 3481 0 
L 794 0 
L 794 531 
z
" transform="scale(0.015625)"/>
       </defs>
       <use xlink:href="#DejaVuSans-30"/>
       <use xlink:href="#DejaVuSans-2e" x="63.623047"/>
       <use xlink:href="#DejaVuSans-31" x="95.410156"/>
      </g>
     </g>
    </g>
    <g id="xtick_3">
     <g id="line2d_5">
      <path d="M 241.557 339.84 
L 241.557 7.2 
" clip-path="url(#p0deb0ce34b)" style="fill: none; stroke: #e5e5e5; stroke-width: 0.8"/>
     </g>
     <g id="line2d_6">
      <path d="M 241.557 339.84 
" style="fill: none; stroke: #000000; stroke-width: 1.5"/>
      <g>
       <use xlink:href="#meb0db5a49f" x="241.557" y="339.84" style="stroke: #333333"/>
      </g>
     </g>
     <g id="text_3">
      <!-- 0.2 -->
      <g style="fill: #4d4d4d" transform="translate(229.470625 359.939625) scale(0.152 -0.152)">
       <defs>
        <path id="DejaVuSans-32" d="M 1228 531 
L 3431 531 
L 3431 0 
L 469 0 
L 469 531 
Q 828 903 1448 1529 
Q 2069 2156 2228 2338 
Q 2531 2678 2651 2914 
Q 2772 3150 2772 3378 
Q 2772 3750 2511 3984 
Q 2250 4219 1831 4219 
Q 1534 4219 1204 4116 
Q 875 4013 500 3803 
L 500 4441 
Q 881 4594 1212 4672 
Q 1544 4750 1819 4750 
Q 2544 4750 2975 4387 
Q 3406 4025 3406 3419 
Q 3406 3131 3298 2873 
Q 3191 2616 2906 2266 
Q 2828 2175 2409 1742 
Q 1991 1309 1228 531 
z
" transform="scale(0.015625)"/>
       </defs>
       <use xlink:href="#DejaVuSans-30"/>
       <use xlink:href="#DejaVuSans-2e" x="63.623047"/>
       <use xlink:href="#DejaVuSans-32" x="95.410156"/>
      </g>
     </g>
    </g>
    <g id="xtick_4">
     <g id="line2d_7">
      <path d="M 323.517278 339.84 
L 323.517278 7.2 
" clip-path="url(#p0deb0ce34b)" style="fill: none; stroke: #e5e5e5; stroke-width: 0.8"/>
     </g>
     <g id="line2d_8">
      <path d="M 323.517278 339.84 
" style="fill: none; stroke: #000000; stroke-width: 1.5"/>
      <g>
       <use xlink:href="#meb0db5a49f" x="323.517278" y="339.84" style="stroke: #333333"/>
      </g>
     </g>
     <g id="text_4">
      <!-- 0.3 -->
      <g style="fill: #4d4d4d" transform="translate(311.430903 359.939625) scale(0.152 -0.152)">
       <defs>
        <path id="DejaVuSans-33" d="M 2597 2516 
Q 3050 2419 3304 2112 
Q 3559 1806 3559 1356 
Q 3559 666 3084 287 
Q 2609 -91 1734 -91 
Q 1441 -91 1130 -33 
Q 819 25 488 141 
L 488 750 
Q 750 597 1062 519 
Q 1375 441 1716 441 
Q 2309 441 2620 675 
Q 2931 909 2931 1356 
Q 2931 1769 2642 2001 
Q 2353 2234 1838 2234 
L 1294 2234 
L 1294 2753 
L 1863 2753 
Q 2328 2753 2575 2939 
Q 2822 3125 2822 3475 
Q 2822 3834 2567 4026 
Q 2313 4219 1838 4219 
Q 1578 4219 1281 4162 
Q 984 4106 628 3988 
L 628 4550 
Q 988 4650 1302 4700 
Q 1616 4750 1894 4750 
Q 2613 4750 3031 4423 
Q 3450 4097 3450 3541 
Q 3450 3153 3228 2886 
Q 3006 2619 2597 2516 
z
" transform="scale(0.015625)"/>
       </defs>
       <use xlink:href="#DejaVuSans-30"/>
       <use xlink:href="#DejaVuSans-2e" x="63.623047"/>
       <use xlink:href="#DejaVuSans-33" x="95.410156"/>
      </g>
     </g>
    </g>
    <g id="xtick_5">
     <g id="line2d_9">
      <path d="M 405.477557 339.84 
L 405.477557 7.2 
" clip-path="url(#p0deb0ce34b)" style="fill: none; stroke: #e5e5e5; stroke-width: 0.8"/>
     </g>
     <g id="line2d_10">
      <path d="M 405.477557 339.84 
" style="fill: none; stroke: #000000; stroke-width: 1.5"/>
      <g>
       <use xlink:href="#meb0db5a49f" x="405.477557" y="339.84" style="stroke: #333333"/>
      </g>
     </g>
     <g id="text_5">
      <!-- 0.4 -->
      <g style="fill: #4d4d4d" transform="translate(393.391182 359.939625) scale(0.152 -0.152)">
       <defs>
        <path id="DejaVuSans-34" d="M 2419 4116 
L 825 1625 
L 2419 1625 
L 2419 4116 
z
M 2253 4666 
L 3047 4666 
L 3047 1625 
L 3713 1625 
L 3713 1100 
L 3047 1100 
L 3047 0 
L 2419 0 
L 2419 1100 
L 313 1100 
L 313 1709 
L 2253 4666 
z
" transform="scale(0.015625)"/>
       </defs>
       <use xlink:href="#DejaVuSans-30"/>
       <use xlink:href="#DejaVuSans-2e" x="63.623047"/>
       <use xlink:href="#DejaVuSans-34" x="95.410156"/>
      </g>
     </g>
    </g>
    <g id="xtick_6">
     <g id="line2d_11">
      <path d="M 487.437835 339.84 
L 487.437835 7.2 
" clip-path="url(#p0deb0ce34b)" style="fill: none; stroke: #e5e5e5; stroke-width: 0.8"/>
     </g>
     <g id="line2d_12">
      <path d="M 487.437835 339.84 
" style="fill: none; stroke: #000000; stroke-width: 1.5"/>
      <g>
       <use xlink:href="#meb0db5a49f" x="487.437835" y="339.84" style="stroke: #333333"/>
      </g>
     </g>
     <g id="text_6">
      <!-- 0.5 -->
      <g style="fill: #4d4d4d" transform="translate(475.35146 359.939625) scale(0.152 -0.152)">
       <defs>
        <path id="DejaVuSans-35" d="M 691 4666 
L 3169 4666 
L 3169 4134 
L 1269 4134 
L 1269 2991 
Q 1406 3038 1543 3061 
Q 1681 3084 1819 3084 
Q 2600 3084 3056 2656 
Q 3513 2228 3513 1497 
Q 3513 744 3044 326 
Q 2575 -91 1722 -91 
Q 1428 -91 1123 -41 
Q 819 9 494 109 
L 494 744 
Q 775 591 1075 516 
Q 1375 441 1709 441 
Q 2250 441 2565 725 
Q 2881 1009 2881 1497 
Q 2881 1984 2565 2268 
Q 2250 2553 1709 2553 
Q 1456 2553 1204 2497 
Q 953 2441 691 2322 
L 691 4666 
z
" transform="scale(0.015625)"/>
       </defs>
       <use xlink:href="#DejaVuSans-30"/>
       <use xlink:href="#DejaVuSans-2e" x="63.623047"/>
       <use xlink:href="#DejaVuSans-35" x="95.410156"/>
      </g>
     </g>
    </g>
    <g id="xtick_7">
     <g id="line2d_13">
      <path d="M 118.616583 339.84 
L 118.616583 7.2 
" clip-path="url(#p0deb0ce34b)" style="fill: none; stroke: #fafafa"/>
     </g>
    </g>
    <g id="xtick_8">
     <g id="line2d_14">
      <path d="M 200.576861 339.84 
L 200.576861 7.2 
" clip-path="url(#p0deb0ce34b)" style="fill: none; stroke: #fafafa"/>
     </g>
    </g>
    <g id="xtick_9">
     <g id="line2d_15">
      <path d="M 282.537139 339.84 
L 282.537139 7.2 
" clip-path="url(#p0deb0ce34b)" style="fill: none; stroke: #fafafa"/>
     </g>
    </g>
    <g id="xtick_10">
     <g id="line2d_16">
      <path d="M 364.497418 339.84 
L 364.497418 7.2 
" clip-path="url(#p0deb0ce34b)" style="fill: none; stroke: #fafafa"/>
     </g>
    </g>
    <g id="xtick_11">
     <g id="line2d_17">
      <path d="M 446.457696 339.84 
L 446.457696 7.2 
" clip-path="url(#p0deb0ce34b)" style="fill: none; stroke: #fafafa"/>
     </g>
    </g>
    <g id="text_7">
     <!-- relative group size -->
     <g transform="translate(194.036188 385.137781) scale(0.19 -0.19)">
      <defs>
       <path id="DejaVuSans-72" d="M 2631 2963 
Q 2534 3019 2420 3045 
Q 2306 3072 2169 3072 
Q 1681 3072 1420 2755 
Q 1159 2438 1159 1844 
L 1159 0 
L 581 0 
L 581 3500 
L 1159 3500 
L 1159 2956 
Q 1341 3275 1631 3429 
Q 1922 3584 2338 3584 
Q 2397 3584 2469 3576 
Q 2541 3569 2628 3553 
L 2631 2963 
z
" transform="scale(0.015625)"/>
       <path id="DejaVuSans-65" d="M 3597 1894 
L 3597 1613 
L 953 1613 
Q 991 1019 1311 708 
Q 1631 397 2203 397 
Q 2534 397 2845 478 
Q 3156 559 3463 722 
L 3463 178 
Q 3153 47 2828 -22 
Q 2503 -91 2169 -91 
Q 1331 -91 842 396 
Q 353 884 353 1716 
Q 353 2575 817 3079 
Q 1281 3584 2069 3584 
Q 2775 3584 3186 3129 
Q 3597 2675 3597 1894 
z
M 3022 2063 
Q 3016 2534 2758 2815 
Q 2500 3097 2075 3097 
Q 1594 3097 1305 2825 
Q 1016 2553 972 2059 
L 3022 2063 
z
" transform="scale(0.015625)"/>
       <path id="DejaVuSans-6c" d="M 603 4863 
L 1178 4863 
L 1178 0 
L 603 0 
L 603 4863 
z
" transform="scale(0.015625)"/>
       <path id="DejaVuSans-61" d="M 2194 1759 
Q 1497 1759 1228 1600 
Q 959 1441 959 1056 
Q 959 750 1161 570 
Q 1363 391 1709 391 
Q 2188 391 2477 730 
Q 2766 1069 2766 1631 
L 2766 1759 
L 2194 1759 
z
M 3341 1997 
L 3341 0 
L 2766 0 
L 2766 531 
Q 2569 213 2275 61 
Q 1981 -91 1556 -91 
Q 1019 -91 701 211 
Q 384 513 384 1019 
Q 384 1609 779 1909 
Q 1175 2209 1959 2209 
L 2766 2209 
L 2766 2266 
Q 2766 2663 2505 2880 
Q 2244 3097 1772 3097 
Q 1472 3097 1187 3025 
Q 903 2953 641 2809 
L 641 3341 
Q 956 3463 1253 3523 
Q 1550 3584 1831 3584 
Q 2591 3584 2966 3190 
Q 3341 2797 3341 1997 
z
" transform="scale(0.015625)"/>
       <path id="DejaVuSans-74" d="M 1172 4494 
L 1172 3500 
L 2356 3500 
L 2356 3053 
L 1172 3053 
L 1172 1153 
Q 1172 725 1289 603 
Q 1406 481 1766 481 
L 2356 481 
L 2356 0 
L 1766 0 
Q 1100 0 847 248 
Q 594 497 594 1153 
L 594 3053 
L 172 3053 
L 172 3500 
L 594 3500 
L 594 4494 
L 1172 4494 
z
" transform="scale(0.015625)"/>
       <path id="DejaVuSans-69" d="M 603 3500 
L 1178 3500 
L 1178 0 
L 603 0 
L 603 3500 
z
M 603 4863 
L 1178 4863 
L 1178 4134 
L 603 4134 
L 603 4863 
z
" transform="scale(0.015625)"/>
       <path id="DejaVuSans-76" d="M 191 3500 
L 800 3500 
L 1894 563 
L 2988 3500 
L 3597 3500 
L 2284 0 
L 1503 0 
L 191 3500 
z
" transform="scale(0.015625)"/>
       <path id="DejaVuSans-20" transform="scale(0.015625)"/>
       <path id="DejaVuSans-67" d="M 2906 1791 
Q 2906 2416 2648 2759 
Q 2391 3103 1925 3103 
Q 1463 3103 1205 2759 
Q 947 2416 947 1791 
Q 947 1169 1205 825 
Q 1463 481 1925 481 
Q 2391 481 2648 825 
Q 2906 1169 2906 1791 
z
M 3481 434 
Q 3481 -459 3084 -895 
Q 2688 -1331 1869 -1331 
Q 1566 -1331 1297 -1286 
Q 1028 -1241 775 -1147 
L 775 -588 
Q 1028 -725 1275 -790 
Q 1522 -856 1778 -856 
Q 2344 -856 2625 -561 
Q 2906 -266 2906 331 
L 2906 616 
Q 2728 306 2450 153 
Q 2172 0 1784 0 
Q 1141 0 747 490 
Q 353 981 353 1791 
Q 353 2603 747 3093 
Q 1141 3584 1784 3584 
Q 2172 3584 2450 3431 
Q 2728 3278 2906 2969 
L 2906 3500 
L 3481 3500 
L 3481 434 
z
" transform="scale(0.015625)"/>
       <path id="DejaVuSans-6f" d="M 1959 3097 
Q 1497 3097 1228 2736 
Q 959 2375 959 1747 
Q 959 1119 1226 758 
Q 1494 397 1959 397 
Q 2419 397 2687 759 
Q 2956 1122 2956 1747 
Q 2956 2369 2687 2733 
Q 2419 3097 1959 3097 
z
M 1959 3584 
Q 2709 3584 3137 3096 
Q 3566 2609 3566 1747 
Q 3566 888 3137 398 
Q 2709 -91 1959 -91 
Q 1206 -91 779 398 
Q 353 888 353 1747 
Q 353 2609 779 3096 
Q 1206 3584 1959 3584 
z
" transform="scale(0.015625)"/>
       <path id="DejaVuSans-75" d="M 544 1381 
L 544 3500 
L 1119 3500 
L 1119 1403 
Q 1119 906 1312 657 
Q 1506 409 1894 409 
Q 2359 409 2629 706 
Q 2900 1003 2900 1516 
L 2900 3500 
L 3475 3500 
L 3475 0 
L 2900 0 
L 2900 538 
Q 2691 219 2414 64 
Q 2138 -91 1772 -91 
Q 1169 -91 856 284 
Q 544 659 544 1381 
z
M 1991 3584 
L 1991 3584 
z
" transform="scale(0.015625)"/>
       <path id="DejaVuSans-70" d="M 1159 525 
L 1159 -1331 
L 581 -1331 
L 581 3500 
L 1159 3500 
L 1159 2969 
Q 1341 3281 1617 3432 
Q 1894 3584 2278 3584 
Q 2916 3584 3314 3078 
Q 3713 2572 3713 1747 
Q 3713 922 3314 415 
Q 2916 -91 2278 -91 
Q 1894 -91 1617 61 
Q 1341 213 1159 525 
z
M 3116 1747 
Q 3116 2381 2855 2742 
Q 2594 3103 2138 3103 
Q 1681 3103 1420 2742 
Q 1159 2381 1159 1747 
Q 1159 1113 1420 752 
Q 1681 391 2138 391 
Q 2594 391 2855 752 
Q 3116 1113 3116 1747 
z
" transform="scale(0.015625)"/>
       <path id="DejaVuSans-73" d="M 2834 3397 
L 2834 2853 
Q 2591 2978 2328 3040 
Q 2066 3103 1784 3103 
Q 1356 3103 1142 2972 
Q 928 2841 928 2578 
Q 928 2378 1081 2264 
Q 1234 2150 1697 2047 
L 1894 2003 
Q 2506 1872 2764 1633 
Q 3022 1394 3022 966 
Q 3022 478 2636 193 
Q 2250 -91 1575 -91 
Q 1294 -91 989 -36 
Q 684 19 347 128 
L 347 722 
Q 666 556 975 473 
Q 1284 391 1588 391 
Q 1994 391 2212 530 
Q 2431 669 2431 922 
Q 2431 1156 2273 1281 
Q 2116 1406 1581 1522 
L 1381 1569 
Q 847 1681 609 1914 
Q 372 2147 372 2553 
Q 372 3047 722 3315 
Q 1072 3584 1716 3584 
Q 2034 3584 2315 3537 
Q 2597 3491 2834 3397 
z
" transform="scale(0.015625)"/>
       <path id="DejaVuSans-7a" d="M 353 3500 
L 3084 3500 
L 3084 2975 
L 922 459 
L 3084 459 
L 3084 0 
L 275 0 
L 275 525 
L 2438 3041 
L 353 3041 
L 353 3500 
z
" transform="scale(0.015625)"/>
      </defs>
      <use xlink:href="#DejaVuSans-72"/>
      <use xlink:href="#DejaVuSans-65" x="38.863281"/>
      <use xlink:href="#DejaVuSans-6c" x="100.386719"/>
      <use xlink:href="#DejaVuSans-61" x="128.169922"/>
      <use xlink:href="#DejaVuSans-74" x="189.449219"/>
      <use xlink:href="#DejaVuSans-69" x="228.658203"/>
      <use xlink:href="#DejaVuSans-76" x="256.441406"/>
      <use xlink:href="#DejaVuSans-65" x="315.621094"/>
      <use xlink:href="#DejaVuSans-20" x="377.144531"/>
      <use xlink:href="#DejaVuSans-67" x="408.931641"/>
      <use xlink:href="#DejaVuSans-72" x="472.408203"/>
      <use xlink:href="#DejaVuSans-6f" x="511.271484"/>
      <use xlink:href="#DejaVuSans-75" x="572.453125"/>
      <use xlink:href="#DejaVuSans-70" x="635.832031"/>
      <use xlink:href="#DejaVuSans-20" x="699.308594"/>
      <use xlink:href="#DejaVuSans-73" x="731.095703"/>
      <use xlink:href="#DejaVuSans-69" x="783.195312"/>
      <use xlink:href="#DejaVuSans-7a" x="810.978516"/>
      <use xlink:href="#DejaVuSans-65" x="863.46875"/>
     </g>
    </g>
   </g>
   <g id="matplotlib.axis_2">
    <g id="ytick_1">
     <g id="line2d_18">
      <path d="M 65.911188 327.93221 
L 512.311187 327.93221 
" clip-path="url(#p0deb0ce34b)" style="fill: none; stroke: #e5e5e5; stroke-width: 0.8"/>
     </g>
     <g id="line2d_19">
      <path d="M 65.911188 327.93221 
" style="fill: none; stroke: #000000; stroke-width: 1.5"/>
      <defs>
       <path id="mb7b04a8260" d="M 0 0 
L -4.75 0 
" style="stroke: #333333"/>
      </defs>
      <g>
       <use xlink:href="#mb7b04a8260" x="65.911188" y="327.93221" style="stroke: #333333"/>
      </g>
     </g>
     <g id="text_8">
      <!-- 0 -->
      <g style="fill: #4d4d4d" transform="translate(47.690188 332.12646) scale(0.152 -0.152)">
       <use xlink:href="#DejaVuSans-30"/>
      </g>
     </g>
    </g>
    <g id="ytick_2">
     <g id="line2d_20">
      <path d="M 65.911188 244.500996 
L 512.311187 244.500996 
" clip-path="url(#p0deb0ce34b)" style="fill: none; stroke: #e5e5e5; stroke-width: 0.8"/>
     </g>
     <g id="line2d_21">
      <path d="M 65.911188 244.500996 
" style="fill: none; stroke: #000000; stroke-width: 1.5"/>
      <g>
       <use xlink:href="#mb7b04a8260" x="65.911188" y="244.500996" style="stroke: #333333"/>
      </g>
     </g>
     <g id="text_9">
      <!-- 0.2 -->
      <g style="fill: #4d4d4d" transform="translate(33.188438 248.695246) scale(0.152 -0.152)">
       <use xlink:href="#DejaVuSans-30"/>
       <use xlink:href="#DejaVuSans-2e" x="63.623047"/>
       <use xlink:href="#DejaVuSans-32" x="95.410156"/>
      </g>
     </g>
    </g>
    <g id="ytick_3">
     <g id="line2d_22">
      <path d="M 65.911188 161.069782 
L 512.311187 161.069782 
" clip-path="url(#p0deb0ce34b)" style="fill: none; stroke: #e5e5e5; stroke-width: 0.8"/>
     </g>
     <g id="line2d_23">
      <path d="M 65.911188 161.069782 
" style="fill: none; stroke: #000000; stroke-width: 1.5"/>
      <g>
       <use xlink:href="#mb7b04a8260" x="65.911188" y="161.069782" style="stroke: #333333"/>
      </g>
     </g>
     <g id="text_10">
      <!-- 0.4 -->
      <g style="fill: #4d4d4d" transform="translate(33.188438 165.264032) scale(0.152 -0.152)">
       <use xlink:href="#DejaVuSans-30"/>
       <use xlink:href="#DejaVuSans-2e" x="63.623047"/>
       <use xlink:href="#DejaVuSans-34" x="95.410156"/>
      </g>
     </g>
    </g>
    <g id="ytick_4">
     <g id="line2d_24">
      <path d="M 65.911188 77.638568 
L 512.311187 77.638568 
" clip-path="url(#p0deb0ce34b)" style="fill: none; stroke: #e5e5e5; stroke-width: 0.8"/>
     </g>
     <g id="line2d_25">
      <path d="M 65.911188 77.638568 
" style="fill: none; stroke: #000000; stroke-width: 1.5"/>
      <g>
       <use xlink:href="#mb7b04a8260" x="65.911188" y="77.638568" style="stroke: #333333"/>
      </g>
     </g>
     <g id="text_11">
      <!-- 0.6 -->
      <g style="fill: #4d4d4d" transform="translate(33.188438 81.832818) scale(0.152 -0.152)">
       <defs>
        <path id="DejaVuSans-36" d="M 2113 2584 
Q 1688 2584 1439 2293 
Q 1191 2003 1191 1497 
Q 1191 994 1439 701 
Q 1688 409 2113 409 
Q 2538 409 2786 701 
Q 3034 994 3034 1497 
Q 3034 2003 2786 2293 
Q 2538 2584 2113 2584 
z
M 3366 4563 
L 3366 3988 
Q 3128 4100 2886 4159 
Q 2644 4219 2406 4219 
Q 1781 4219 1451 3797 
Q 1122 3375 1075 2522 
Q 1259 2794 1537 2939 
Q 1816 3084 2150 3084 
Q 2853 3084 3261 2657 
Q 3669 2231 3669 1497 
Q 3669 778 3244 343 
Q 2819 -91 2113 -91 
Q 1303 -91 875 529 
Q 447 1150 447 2328 
Q 447 3434 972 4092 
Q 1497 4750 2381 4750 
Q 2619 4750 2861 4703 
Q 3103 4656 3366 4563 
z
" transform="scale(0.015625)"/>
       </defs>
       <use xlink:href="#DejaVuSans-30"/>
       <use xlink:href="#DejaVuSans-2e" x="63.623047"/>
       <use xlink:href="#DejaVuSans-36" x="95.410156"/>
      </g>
     </g>
    </g>
    <g id="ytick_5">
     <g id="line2d_26">
      <path d="M 65.911188 286.216603 
L 512.311187 286.216603 
" clip-path="url(#p0deb0ce34b)" style="fill: none; stroke: #fafafa"/>
     </g>
    </g>
    <g id="ytick_6">
     <g id="line2d_27">
      <path d="M 65.911188 202.785389 
L 512.311187 202.785389 
" clip-path="url(#p0deb0ce34b)" style="fill: none; stroke: #fafafa"/>
     </g>
    </g>
    <g id="ytick_7">
     <g id="line2d_28">
      <path d="M 65.911188 119.354175 
L 512.311187 119.354175 
" clip-path="url(#p0deb0ce34b)" style="fill: none; stroke: #fafafa"/>
     </g>
    </g>
    <g id="ytick_8">
     <g id="line2d_29">
      <path d="M 65.911188 35.922961 
L 512.311187 35.922961 
" clip-path="url(#p0deb0ce34b)" style="fill: none; stroke: #fafafa"/>
     </g>
    </g>
    <g id="text_12">
     <!-- performance change (absolute) -->
     <g transform="translate(21.637031 321.461484) rotate(-90) scale(0.19 -0.19)">
      <defs>
       <path id="DejaVuSans-66" d="M 2375 4863 
L 2375 4384 
L 1825 4384 
Q 1516 4384 1395 4259 
Q 1275 4134 1275 3809 
L 1275 3500 
L 2222 3500 
L 2222 3053 
L 1275 3053 
L 1275 0 
L 697 0 
L 697 3053 
L 147 3053 
L 147 3500 
L 697 3500 
L 697 3744 
Q 697 4328 969 4595 
Q 1241 4863 1831 4863 
L 2375 4863 
z
" transform="scale(0.015625)"/>
       <path id="DejaVuSans-6d" d="M 3328 2828 
Q 3544 3216 3844 3400 
Q 4144 3584 4550 3584 
Q 5097 3584 5394 3201 
Q 5691 2819 5691 2113 
L 5691 0 
L 5113 0 
L 5113 2094 
Q 5113 2597 4934 2840 
Q 4756 3084 4391 3084 
Q 3944 3084 3684 2787 
Q 3425 2491 3425 1978 
L 3425 0 
L 2847 0 
L 2847 2094 
Q 2847 2600 2669 2842 
Q 2491 3084 2119 3084 
Q 1678 3084 1418 2786 
Q 1159 2488 1159 1978 
L 1159 0 
L 581 0 
L 581 3500 
L 1159 3500 
L 1159 2956 
Q 1356 3278 1631 3431 
Q 1906 3584 2284 3584 
Q 2666 3584 2933 3390 
Q 3200 3197 3328 2828 
z
" transform="scale(0.015625)"/>
       <path id="DejaVuSans-6e" d="M 3513 2113 
L 3513 0 
L 2938 0 
L 2938 2094 
Q 2938 2591 2744 2837 
Q 2550 3084 2163 3084 
Q 1697 3084 1428 2787 
Q 1159 2491 1159 1978 
L 1159 0 
L 581 0 
L 581 3500 
L 1159 3500 
L 1159 2956 
Q 1366 3272 1645 3428 
Q 1925 3584 2291 3584 
Q 2894 3584 3203 3211 
Q 3513 2838 3513 2113 
z
" transform="scale(0.015625)"/>
       <path id="DejaVuSans-63" d="M 3122 3366 
L 3122 2828 
Q 2878 2963 2633 3030 
Q 2388 3097 2138 3097 
Q 1578 3097 1268 2742 
Q 959 2388 959 1747 
Q 959 1106 1268 751 
Q 1578 397 2138 397 
Q 2388 397 2633 464 
Q 2878 531 3122 666 
L 3122 134 
Q 2881 22 2623 -34 
Q 2366 -91 2075 -91 
Q 1284 -91 818 406 
Q 353 903 353 1747 
Q 353 2603 823 3093 
Q 1294 3584 2113 3584 
Q 2378 3584 2631 3529 
Q 2884 3475 3122 3366 
z
" transform="scale(0.015625)"/>
       <path id="DejaVuSans-68" d="M 3513 2113 
L 3513 0 
L 2938 0 
L 2938 2094 
Q 2938 2591 2744 2837 
Q 2550 3084 2163 3084 
Q 1697 3084 1428 2787 
Q 1159 2491 1159 1978 
L 1159 0 
L 581 0 
L 581 4863 
L 1159 4863 
L 1159 2956 
Q 1366 3272 1645 3428 
Q 1925 3584 2291 3584 
Q 2894 3584 3203 3211 
Q 3513 2838 3513 2113 
z
" transform="scale(0.015625)"/>
       <path id="DejaVuSans-28" d="M 1984 4856 
Q 1566 4138 1362 3434 
Q 1159 2731 1159 2009 
Q 1159 1288 1364 580 
Q 1569 -128 1984 -844 
L 1484 -844 
Q 1016 -109 783 600 
Q 550 1309 550 2009 
Q 550 2706 781 3412 
Q 1013 4119 1484 4856 
L 1984 4856 
z
" transform="scale(0.015625)"/>
       <path id="DejaVuSans-62" d="M 3116 1747 
Q 3116 2381 2855 2742 
Q 2594 3103 2138 3103 
Q 1681 3103 1420 2742 
Q 1159 2381 1159 1747 
Q 1159 1113 1420 752 
Q 1681 391 2138 391 
Q 2594 391 2855 752 
Q 3116 1113 3116 1747 
z
M 1159 2969 
Q 1341 3281 1617 3432 
Q 1894 3584 2278 3584 
Q 2916 3584 3314 3078 
Q 3713 2572 3713 1747 
Q 3713 922 3314 415 
Q 2916 -91 2278 -91 
Q 1894 -91 1617 61 
Q 1341 213 1159 525 
L 1159 0 
L 581 0 
L 581 4863 
L 1159 4863 
L 1159 2969 
z
" transform="scale(0.015625)"/>
       <path id="DejaVuSans-29" d="M 513 4856 
L 1013 4856 
Q 1481 4119 1714 3412 
Q 1947 2706 1947 2009 
Q 1947 1309 1714 600 
Q 1481 -109 1013 -844 
L 513 -844 
Q 928 -128 1133 580 
Q 1338 1288 1338 2009 
Q 1338 2731 1133 3434 
Q 928 4138 513 4856 
z
" transform="scale(0.015625)"/>
      </defs>
      <use xlink:href="#DejaVuSans-70"/>
      <use xlink:href="#DejaVuSans-65" x="63.476562"/>
      <use xlink:href="#DejaVuSans-72" x="125"/>
      <use xlink:href="#DejaVuSans-66" x="166.113281"/>
      <use xlink:href="#DejaVuSans-6f" x="201.318359"/>
      <use xlink:href="#DejaVuSans-72" x="262.5"/>
      <use xlink:href="#DejaVuSans-6d" x="301.863281"/>
      <use xlink:href="#DejaVuSans-61" x="399.275391"/>
      <use xlink:href="#DejaVuSans-6e" x="460.554688"/>
      <use xlink:href="#DejaVuSans-63" x="523.933594"/>
      <use xlink:href="#DejaVuSans-65" x="578.914062"/>
      <use xlink:href="#DejaVuSans-20" x="640.4375"/>
      <use xlink:href="#DejaVuSans-63" x="672.224609"/>
      <use xlink:href="#DejaVuSans-68" x="727.205078"/>
      <use xlink:href="#DejaVuSans-61" x="790.583984"/>
      <use xlink:href="#DejaVuSans-6e" x="851.863281"/>
      <use xlink:href="#DejaVuSans-67" x="915.242188"/>
      <use xlink:href="#DejaVuSans-65" x="978.71875"/>
      <use xlink:href="#DejaVuSans-20" x="1040.242188"/>
      <use xlink:href="#DejaVuSans-28" x="1072.029297"/>
      <use xlink:href="#DejaVuSans-61" x="1111.042969"/>
      <use xlink:href="#DejaVuSans-62" x="1172.322266"/>
      <use xlink:href="#DejaVuSans-73" x="1235.798828"/>
      <use xlink:href="#DejaVuSans-6f" x="1287.898438"/>
      <use xlink:href="#DejaVuSans-6c" x="1349.080078"/>
      <use xlink:href="#DejaVuSans-75" x="1376.863281"/>
      <use xlink:href="#DejaVuSans-74" x="1440.242188"/>
      <use xlink:href="#DejaVuSans-65" x="1479.451172"/>
      <use xlink:href="#DejaVuSans-29" x="1540.974609"/>
     </g>
    </g>
   </g>
   <g id="PathCollection_1">
    <path d="M 199.398519 329.594248 
C 200.691184 329.594248 201.93108 329.080667 202.845132 328.166614 
C 203.759185 327.252561 204.272767 326.012666 204.272767 324.72 
C 204.272767 323.427334 203.759185 322.187439 202.845132 321.273386 
C 201.93108 320.359333 200.691184 319.845752 199.398519 319.845752 
C 198.105853 319.845752 196.865957 320.359333 195.951905 321.273386 
C 195.037852 322.187439 194.52427 323.427334 194.52427 324.72 
C 194.52427 326.012666 195.037852 327.252561 195.951905 328.166614 
C 196.865957 329.080667 198.105853 329.594248 199.398519 329.594248 
z
" clip-path="url(#p0deb0ce34b)" style="stroke: #000000; stroke-width: 0.886227"/>
    <path d="M 492.020278 291.855655 
C 493.312944 291.855655 494.55284 291.342073 495.466892 290.42802 
C 496.380945 289.513968 496.894526 288.274072 496.894526 286.981407 
C 496.894526 285.688741 496.380945 284.448845 495.466892 283.534793 
C 494.55284 282.62074 493.312944 282.107158 492.020278 282.107158 
C 490.727613 282.107158 489.487717 282.62074 488.573665 283.534793 
C 487.659612 284.448845 487.14603 285.688741 487.14603 286.981407 
C 487.14603 288.274072 487.659612 289.513968 488.573665 290.42802 
C 489.487717 291.342073 490.727613 291.855655 492.020278 291.855655 
z
" clip-path="url(#p0deb0ce34b)" style="stroke: #000000; stroke-width: 0.886227"/>
    <path d="M 361.093317 270.029374 
C 362.385982 270.029374 363.625878 269.515793 364.53993 268.60174 
C 365.453983 267.687687 365.967565 266.447792 365.967565 265.155126 
C 365.967565 263.86246 365.453983 262.622565 364.53993 261.708512 
C 363.625878 260.79446 362.385982 260.280878 361.093317 260.280878 
C 359.800651 260.280878 358.560755 260.79446 357.646703 261.708512 
C 356.73265 262.622565 356.219068 263.86246 356.219068 265.155126 
C 356.219068 266.447792 356.73265 267.687687 357.646703 268.60174 
C 358.560755 269.515793 359.800651 270.029374 361.093317 270.029374 
z
" clip-path="url(#p0deb0ce34b)" style="stroke: #000000; stroke-width: 0.886227"/>
    <path d="M 362.194634 192.075024 
C 363.4873 192.075024 364.727196 191.561443 365.641248 190.64739 
C 366.555301 189.733337 367.068883 188.493442 367.068883 187.200776 
C 367.068883 185.90811 366.555301 184.668215 365.641248 183.754162 
C 364.727196 182.84011 363.4873 182.326528 362.194634 182.326528 
C 360.901969 182.326528 359.662073 182.84011 358.748021 183.754162 
C 357.833968 184.668215 357.320386 185.90811 357.320386 187.200776 
C 357.320386 188.493442 357.833968 189.733337 358.748021 190.64739 
C 359.662073 191.561443 360.901969 192.075024 362.194634 192.075024 
z
" clip-path="url(#p0deb0ce34b)" style="stroke: #000000; stroke-width: 0.886227"/>
    <path d="M 175.543886 254.742621 
C 176.836552 254.742621 178.076448 254.22904 178.9905 253.314987 
C 179.904553 252.400935 180.418134 251.161039 180.418134 249.868373 
C 180.418134 248.575708 179.904553 247.335812 178.9905 246.42176 
C 178.076448 245.507707 176.836552 244.994125 175.543886 244.994125 
C 174.251221 244.994125 173.011325 245.507707 172.097272 246.42176 
C 171.18322 247.335812 170.669638 248.575708 170.669638 249.868373 
C 170.669638 251.161039 171.18322 252.400935 172.097272 253.314987 
C 173.011325 254.22904 174.251221 254.742621 175.543886 254.742621 
z
" clip-path="url(#p0deb0ce34b)" style="stroke: #000000; stroke-width: 0.886227"/>
    <path d="M 388.433829 201.050524 
C 389.726495 201.050524 390.96639 200.536943 391.880443 199.62289 
C 392.794496 198.708837 393.308077 197.468942 393.308077 196.176276 
C 393.308077 194.88361 392.794496 193.643715 391.880443 192.729662 
C 390.96639 191.81561 389.726495 191.302028 388.433829 191.302028 
C 387.141163 191.302028 385.901268 191.81561 384.987215 192.729662 
C 384.073162 193.643715 383.559581 194.88361 383.559581 196.176276 
C 383.559581 197.468942 384.073162 198.708837 384.987215 199.62289 
C 385.901268 200.536943 387.141163 201.050524 388.433829 201.050524 
z
" clip-path="url(#p0deb0ce34b)" style="stroke: #000000; stroke-width: 0.886227"/>
    <path d="M 203.976208 269.600452 
C 205.268873 269.600452 206.508769 269.086871 207.422821 268.172818 
C 208.336874 267.258765 208.850456 266.01887 208.850456 264.726204 
C 208.850456 263.433538 208.336874 262.193643 207.422821 261.27959 
C 206.508769 260.365538 205.268873 259.851956 203.976208 259.851956 
C 202.683542 259.851956 201.443646 260.365538 200.529594 261.27959 
C 199.615541 262.193643 199.10196 263.433538 199.10196 264.726204 
C 199.10196 266.01887 199.615541 267.258765 200.529594 268.172818 
C 201.443646 269.086871 202.683542 269.600452 203.976208 269.600452 
z
" clip-path="url(#p0deb0ce34b)" style="stroke: #000000; stroke-width: 0.886227"/>
    <path d="M 371.946507 255.13107 
C 373.239172 255.13107 374.479068 254.617489 375.393121 253.703436 
C 376.307173 252.789383 376.820755 251.549488 376.820755 250.256822 
C 376.820755 248.964157 376.307173 247.724261 375.393121 246.810208 
C 374.479068 245.896156 373.239172 245.382574 371.946507 245.382574 
C 370.653841 245.382574 369.413945 245.896156 368.499893 246.810208 
C 367.58584 247.724261 367.072259 248.964157 367.072259 250.256822 
C 367.072259 251.549488 367.58584 252.789383 368.499893 253.703436 
C 369.413945 254.617489 370.653841 255.13107 371.946507 255.13107 
z
" clip-path="url(#p0deb0ce34b)" style="stroke: #000000; stroke-width: 0.886227"/>
    <path d="M 93.265323 51.998655 
C 94.557989 51.998655 95.797884 51.485073 96.711937 50.571021 
C 97.62599 49.656968 98.139571 48.417073 98.139571 47.124407 
C 98.139571 45.831741 97.62599 44.591846 96.711937 43.677793 
C 95.797884 42.76374 94.557989 42.250159 93.265323 42.250159 
C 91.972657 42.250159 90.732762 42.76374 89.818709 43.677793 
C 88.904657 44.591846 88.391075 45.831741 88.391075 47.124407 
C 88.391075 48.417073 88.904657 49.656968 89.818709 50.571021 
C 90.732762 51.485073 91.972657 51.998655 93.265323 51.998655 
z
" clip-path="url(#p0deb0ce34b)" style="stroke: #000000; stroke-width: 0.886227"/>
    <path d="M 158.595391 179.877857 
C 159.888057 179.877857 161.127953 179.364275 162.042005 178.450223 
C 162.956058 177.53617 163.469639 176.296275 163.469639 175.003609 
C 163.469639 173.710943 162.956058 172.471048 162.042005 171.556995 
C 161.127953 170.642942 159.888057 170.129361 158.595391 170.129361 
C 157.302726 170.129361 156.06283 170.642942 155.148777 171.556995 
C 154.234725 172.471048 153.721143 173.710943 153.721143 175.003609 
C 153.721143 176.296275 154.234725 177.53617 155.148777 178.450223 
C 156.06283 179.364275 157.302726 179.877857 158.595391 179.877857 
z
" clip-path="url(#p0deb0ce34b)" style="stroke: #000000; stroke-width: 0.886227"/>
    <path d="M 107.635773 136.74488 
C 108.928439 136.74488 110.168334 136.231298 111.082387 135.317245 
C 111.99644 134.403193 112.510021 133.163297 112.510021 131.870632 
C 112.510021 130.577966 111.99644 129.33807 111.082387 128.424018 
C 110.168334 127.509965 108.928439 126.996383 107.635773 126.996383 
C 106.343107 126.996383 105.103212 127.509965 104.189159 128.424018 
C 103.275107 129.33807 102.761525 130.577966 102.761525 131.870632 
C 102.761525 133.163297 103.275107 134.403193 104.189159 135.317245 
C 105.103212 136.231298 106.343107 136.74488 107.635773 136.74488 
z
" clip-path="url(#p0deb0ce34b)" style="stroke: #000000; stroke-width: 0.886227"/>
    <path d="M 275.642842 252.49443 
C 276.935507 252.49443 278.175403 251.980848 279.089455 251.066796 
C 280.003508 250.152743 280.51709 248.912848 280.51709 247.620182 
C 280.51709 246.327516 280.003508 245.087621 279.089455 244.173568 
C 278.175403 243.259515 276.935507 242.745934 275.642842 242.745934 
C 274.350176 242.745934 273.11028 243.259515 272.196228 244.173568 
C 271.282175 245.087621 270.768593 246.327516 270.768593 247.620182 
C 270.768593 248.912848 271.282175 250.152743 272.196228 251.066796 
C 273.11028 251.980848 274.350176 252.49443 275.642842 252.49443 
z
" clip-path="url(#p0deb0ce34b)" style="stroke: #000000; stroke-width: 0.886227"/>
    <path d="M 94.391144 140.508476 
C 95.683809 140.508476 96.923705 139.994895 97.837758 139.080842 
C 98.75181 138.166789 99.265392 136.926894 99.265392 135.634228 
C 99.265392 134.341562 98.75181 133.101667 97.837758 132.187614 
C 96.923705 131.273561 95.683809 130.75998 94.391144 130.75998 
C 93.098478 130.75998 91.858583 131.273561 90.94453 132.187614 
C 90.030477 133.101667 89.516896 134.341562 89.516896 135.634228 
C 89.516896 136.926894 90.030477 138.166789 90.94453 139.080842 
C 91.858583 139.994895 93.098478 140.508476 94.391144 140.508476 
z
" clip-path="url(#p0deb0ce34b)" style="stroke: #000000; stroke-width: 0.886227"/>
    <path d="M 164.42476 242.10818 
C 165.717426 242.10818 166.957322 241.594598 167.871374 240.680546 
C 168.785427 239.766493 169.299008 238.526598 169.299008 237.233932 
C 169.299008 235.941266 168.785427 234.701371 167.871374 233.787318 
C 166.957322 232.873265 165.717426 232.359684 164.42476 232.359684 
C 163.132095 232.359684 161.892199 232.873265 160.978146 233.787318 
C 160.064094 234.701371 159.550512 235.941266 159.550512 237.233932 
C 159.550512 238.526598 160.064094 239.766493 160.978146 240.680546 
C 161.892199 241.594598 163.132095 242.10818 164.42476 242.10818 
z
" clip-path="url(#p0deb0ce34b)" style="stroke: #000000; stroke-width: 0.886227"/>
    <path d="M 174.792593 155.512984 
C 176.085259 155.512984 177.325155 154.999402 178.239207 154.085349 
C 179.15326 153.171297 179.666842 151.931401 179.666842 150.638735 
C 179.666842 149.34607 179.15326 148.106174 178.239207 147.192122 
C 177.325155 146.278069 176.085259 145.764487 174.792593 145.764487 
C 173.499928 145.764487 172.260032 146.278069 171.34598 147.192122 
C 170.431927 148.106174 169.918345 149.34607 169.918345 150.638735 
C 169.918345 151.931401 170.431927 153.171297 171.34598 154.085349 
C 172.260032 154.999402 173.499928 155.512984 174.792593 155.512984 
z
" clip-path="url(#p0deb0ce34b)" style="stroke: #000000; stroke-width: 0.886227"/>
    <path d="M 356.159467 222.531497 
C 357.452133 222.531497 358.692028 222.017916 359.606081 221.103863 
C 360.520134 220.189811 361.033715 218.949915 361.033715 217.657249 
C 361.033715 216.364584 360.520134 215.124688 359.606081 214.210636 
C 358.692028 213.296583 357.452133 212.783001 356.159467 212.783001 
C 354.866801 212.783001 353.626906 213.296583 352.712853 214.210636 
C 351.798801 215.124688 351.285219 216.364584 351.285219 217.657249 
C 351.285219 218.949915 351.798801 220.189811 352.712853 221.103863 
C 353.626906 222.017916 354.866801 222.531497 356.159467 222.531497 
z
" clip-path="url(#p0deb0ce34b)" style="stroke: #000000; stroke-width: 0.886227"/>
    <path d="M 340.803446 213.148695 
C 342.096112 213.148695 343.336007 212.635114 344.25006 211.721061 
C 345.164113 210.807008 345.677694 209.567113 345.677694 208.274447 
C 345.677694 206.981781 345.164113 205.741886 344.25006 204.827833 
C 343.336007 203.91378 342.096112 203.400199 340.803446 203.400199 
C 339.51078 203.400199 338.270885 203.91378 337.356832 204.827833 
C 336.44278 205.741886 335.929198 206.981781 335.929198 208.274447 
C 335.929198 209.567113 336.44278 210.807008 337.356832 211.721061 
C 338.270885 212.635114 339.51078 213.148695 340.803446 213.148695 
z
" clip-path="url(#p0deb0ce34b)" style="stroke: #000000; stroke-width: 0.886227"/>
    <path d="M 285.730397 267.620529 
C 287.023063 267.620529 288.262958 267.106947 289.177011 266.192895 
C 290.091064 265.278842 290.604645 264.038946 290.604645 262.746281 
C 290.604645 261.453615 290.091064 260.213719 289.177011 259.299667 
C 288.262958 258.385614 287.023063 257.872033 285.730397 257.872033 
C 284.437731 257.872033 283.197836 258.385614 282.283783 259.299667 
C 281.36973 260.213719 280.856149 261.453615 280.856149 262.746281 
C 280.856149 264.038946 281.36973 265.278842 282.283783 266.192895 
C 283.197836 267.106947 284.437731 267.620529 285.730397 267.620529 
z
" clip-path="url(#p0deb0ce34b)" style="stroke: #000000; stroke-width: 0.886227"/>
    <path d="M 147.455247 27.194248 
C 148.747913 27.194248 149.987808 26.680667 150.901861 25.766614 
C 151.815914 24.852561 152.329495 23.612666 152.329495 22.32 
C 152.329495 21.027334 151.815914 19.787439 150.901861 18.873386 
C 149.987808 17.959333 148.747913 17.445752 147.455247 17.445752 
C 146.162581 17.445752 144.922686 17.959333 144.008633 18.873386 
C 143.094581 19.787439 142.580999 21.027334 142.580999 22.32 
C 142.580999 23.612666 143.094581 24.852561 144.008633 25.766614 
C 144.922686 26.680667 146.162581 27.194248 147.455247 27.194248 
z
" clip-path="url(#p0deb0ce34b)" style="stroke: #000000; stroke-width: 0.886227"/>
    <path d="M 263.632037 177.294548 
C 264.924703 177.294548 266.164598 176.780966 267.078651 175.866913 
C 267.992704 174.952861 268.506285 173.712965 268.506285 172.420299 
C 268.506285 171.127634 267.992704 169.887738 267.078651 168.973686 
C 266.164598 168.059633 264.924703 167.546051 263.632037 167.546051 
C 262.339371 167.546051 261.099476 168.059633 260.185423 168.973686 
C 259.27137 169.887738 258.757789 171.127634 258.757789 172.420299 
C 258.757789 173.712965 259.27137 174.952861 260.185423 175.866913 
C 261.099476 176.780966 262.339371 177.294548 263.632037 177.294548 
z
" clip-path="url(#p0deb0ce34b)" style="stroke: #000000; stroke-width: 0.886227"/>
    <path d="M 107.089915 56.378174 
C 108.38258 56.378174 109.622476 55.864592 110.536528 54.95054 
C 111.450581 54.036487 111.964163 52.796591 111.964163 51.503926 
C 111.964163 50.21126 111.450581 48.971365 110.536528 48.057312 
C 109.622476 47.143259 108.38258 46.629678 107.089915 46.629678 
C 105.797249 46.629678 104.557353 47.143259 103.643301 48.057312 
C 102.729248 48.971365 102.215666 50.21126 102.215666 51.503926 
C 102.215666 52.796591 102.729248 54.036487 103.643301 54.95054 
C 104.557353 55.864592 105.797249 56.378174 107.089915 56.378174 
z
" clip-path="url(#p0deb0ce34b)" style="stroke: #000000; stroke-width: 0.886227"/>
    <path d="M 127.738682 104.455678 
C 129.031347 104.455678 130.271243 103.942097 131.185296 103.028044 
C 132.099348 102.113991 132.61293 100.874096 132.61293 99.58143 
C 132.61293 98.288764 132.099348 97.048869 131.185296 96.134816 
C 130.271243 95.220763 129.031347 94.707182 127.738682 94.707182 
C 126.446016 94.707182 125.20612 95.220763 124.292068 96.134816 
C 123.378015 97.048869 122.864434 98.288764 122.864434 99.58143 
C 122.864434 100.874096 123.378015 102.113991 124.292068 103.028044 
C 125.20612 103.942097 126.446016 104.455678 127.738682 104.455678 
z
" clip-path="url(#p0deb0ce34b)" style="stroke: #000000; stroke-width: 0.886227"/>
    <path d="M 150.104999 225.55914 
C 151.397664 225.55914 152.63756 225.045559 153.551613 224.131506 
C 154.465665 223.217453 154.979247 221.977558 154.979247 220.684892 
C 154.979247 219.392226 154.465665 218.152331 153.551613 217.238278 
C 152.63756 216.324225 151.397664 215.810644 150.104999 215.810644 
C 148.812333 215.810644 147.572438 216.324225 146.658385 217.238278 
C 145.744332 218.152331 145.230751 219.392226 145.230751 220.684892 
C 145.230751 221.977558 145.744332 223.217453 146.658385 224.131506 
C 147.572438 225.045559 148.812333 225.55914 150.104999 225.55914 
z
" clip-path="url(#p0deb0ce34b)" style="stroke: #000000; stroke-width: 0.886227"/>
    <path d="M 115.267863 159.106058 
C 116.560529 159.106058 117.800424 158.592476 118.714477 157.678423 
C 119.628529 156.764371 120.142111 155.524475 120.142111 154.231809 
C 120.142111 152.939144 119.628529 151.699248 118.714477 150.785196 
C 117.800424 149.871143 116.560529 149.357561 115.267863 149.357561 
C 113.975197 149.357561 112.735302 149.871143 111.821249 150.785196 
C 110.907196 151.699248 110.393615 152.939144 110.393615 154.231809 
C 110.393615 155.524475 110.907196 156.764371 111.821249 157.678423 
C 112.735302 158.592476 113.975197 159.106058 115.267863 159.106058 
z
" clip-path="url(#p0deb0ce34b)" style="stroke: #000000; stroke-width: 0.886227"/>
    <path d="M 86.202097 200.216428 
C 87.494762 200.216428 88.734658 199.702847 89.64871 198.788794 
C 90.562763 197.874741 91.076345 196.634846 91.076345 195.34218 
C 91.076345 194.049514 90.562763 192.809619 89.64871 191.895566 
C 88.734658 190.981514 87.494762 190.467932 86.202097 190.467932 
C 84.909431 190.467932 83.669535 190.981514 82.755483 191.895566 
C 81.84143 192.809619 81.327849 194.049514 81.327849 195.34218 
C 81.327849 196.634846 81.84143 197.874741 82.755483 198.788794 
C 83.669535 199.702847 84.909431 200.216428 86.202097 200.216428 
z
" clip-path="url(#p0deb0ce34b)" style="stroke: #000000; stroke-width: 0.886227"/>
    <path d="M 279.102039 191.501566 
C 280.394705 191.501566 281.634601 190.987984 282.548653 190.073931 
C 283.462706 189.159879 283.976288 187.919983 283.976288 186.627318 
C 283.976288 185.334652 283.462706 184.094756 282.548653 183.180704 
C 281.634601 182.266651 280.394705 181.753069 279.102039 181.753069 
C 277.809374 181.753069 276.569478 182.266651 275.655426 183.180704 
C 274.741373 184.094756 274.227791 185.334652 274.227791 186.627318 
C 274.227791 187.919983 274.741373 189.159879 275.655426 190.073931 
C 276.569478 190.987984 277.809374 191.501566 279.102039 191.501566 
z
" clip-path="url(#p0deb0ce34b)" style="stroke: #000000; stroke-width: 0.886227"/>
    <path d="M 117.561947 29.69968 
C 118.854613 29.69968 120.094508 29.186099 121.008561 28.272046 
C 121.922614 27.357993 122.436195 26.118098 122.436195 24.825432 
C 122.436195 23.532766 121.922614 22.292871 121.008561 21.378818 
C 120.094508 20.464765 118.854613 19.951184 117.561947 19.951184 
C 116.269281 19.951184 115.029386 20.464765 114.115333 21.378818 
C 113.201281 22.292871 112.687699 23.532766 112.687699 24.825432 
C 112.687699 26.118098 113.201281 27.357993 114.115333 28.272046 
C 115.029386 29.186099 116.269281 29.69968 117.561947 29.69968 
z
" clip-path="url(#p0deb0ce34b)" style="stroke: #000000; stroke-width: 0.886227"/>
    <path d="M 116.581638 90.308699 
C 117.874304 90.308699 119.114199 89.795118 120.028252 88.881065 
C 120.942304 87.967013 121.455886 86.727117 121.455886 85.434451 
C 121.455886 84.141786 120.942304 82.90189 120.028252 81.987837 
C 119.114199 81.073785 117.874304 80.560203 116.581638 80.560203 
C 115.288972 80.560203 114.049077 81.073785 113.135024 81.987837 
C 112.220971 82.90189 111.70739 84.141786 111.70739 85.434451 
C 111.70739 86.727117 112.220971 87.967013 113.135024 88.881065 
C 114.049077 89.795118 115.288972 90.308699 116.581638 90.308699 
z
" clip-path="url(#p0deb0ce34b)" style="stroke: #000000; stroke-width: 0.886227"/>
    <path d="M 175.333899 243.04834 
C 176.626565 243.04834 177.86646 242.534759 178.780513 241.620706 
C 179.694566 240.706654 180.208147 239.466758 180.208147 238.174092 
C 180.208147 236.881427 179.694566 235.641531 178.780513 234.727479 
C 177.86646 233.813426 176.626565 233.299844 175.333899 233.299844 
C 174.041233 233.299844 172.801338 233.813426 171.887285 234.727479 
C 170.973233 235.641531 170.459651 236.881427 170.459651 238.174092 
C 170.459651 239.466758 170.973233 240.706654 171.887285 241.620706 
C 172.801338 242.534759 174.041233 243.04834 175.333899 243.04834 
z
" clip-path="url(#p0deb0ce34b)" style="stroke: #000000; stroke-width: 0.886227"/>
    <path d="M 284.931521 205.077984 
C 286.224187 205.077984 287.464083 204.564403 288.378135 203.65035 
C 289.292188 202.736297 289.805769 201.496402 289.805769 200.203736 
C 289.805769 198.911071 289.292188 197.671175 288.378135 196.757122 
C 287.464083 195.84307 286.224187 195.329488 284.931521 195.329488 
C 283.638856 195.329488 282.39896 195.84307 281.484907 196.757122 
C 280.570855 197.671175 280.057273 198.911071 280.057273 200.203736 
C 280.057273 201.496402 280.570855 202.736297 281.484907 203.65035 
C 282.39896 204.564403 283.638856 205.077984 284.931521 205.077984 
z
" clip-path="url(#p0deb0ce34b)" style="stroke: #000000; stroke-width: 0.886227"/>
    <path d="M 181.073744 88.145127 
C 182.36641 88.145127 183.606305 87.631545 184.520358 86.717492 
C 185.434411 85.80344 185.947992 84.563544 185.947992 83.270878 
C 185.947992 81.978213 185.434411 80.738317 184.520358 79.824265 
C 183.606305 78.910212 182.36641 78.39663 181.073744 78.39663 
C 179.781079 78.39663 178.541183 78.910212 177.62713 79.824265 
C 176.713078 80.738317 176.199496 81.978213 176.199496 83.270878 
C 176.199496 84.563544 176.713078 85.80344 177.62713 86.717492 
C 178.541183 87.631545 179.781079 88.145127 181.073744 88.145127 
z
" clip-path="url(#p0deb0ce34b)" style="stroke: #000000; stroke-width: 0.886227"/>
    <path d="M 89.176197 60.320609 
C 90.468863 60.320609 91.708758 59.807027 92.622811 58.892975 
C 93.536864 57.978922 94.050445 56.739027 94.050445 55.446361 
C 94.050445 54.153695 93.536864 52.9138 92.622811 51.999747 
C 91.708758 51.085694 90.468863 50.572113 89.176197 50.572113 
C 87.883531 50.572113 86.643636 51.085694 85.729583 51.999747 
C 84.81553 52.9138 84.301949 54.153695 84.301949 55.446361 
C 84.301949 56.739027 84.81553 57.978922 85.729583 58.892975 
C 86.643636 59.807027 87.883531 60.320609 89.176197 60.320609 
z
" clip-path="url(#p0deb0ce34b)" style="stroke: #000000; stroke-width: 0.886227"/>
    <path d="M 184.998195 276.001222 
C 186.29086 276.001222 187.530756 275.48764 188.444809 274.573587 
C 189.358861 273.659535 189.872443 272.419639 189.872443 271.126974 
C 189.872443 269.834308 189.358861 268.594412 188.444809 267.68036 
C 187.530756 266.766307 186.29086 266.252725 184.998195 266.252725 
C 183.705529 266.252725 182.465633 266.766307 181.551581 267.68036 
C 180.637528 268.594412 180.123947 269.834308 180.123947 271.126974 
C 180.123947 272.419639 180.637528 273.659535 181.551581 274.573587 
C 182.465633 275.48764 183.705529 276.001222 184.998195 276.001222 
z
" clip-path="url(#p0deb0ce34b)" style="stroke: #000000; stroke-width: 0.886227"/>
    <path d="M 132.952507 208.23938 
C 134.245173 208.23938 135.485068 207.725799 136.399121 206.811746 
C 137.313174 205.897693 137.826755 204.657798 137.826755 203.365132 
C 137.826755 202.072466 137.313174 200.832571 136.399121 199.918518 
C 135.485068 199.004465 134.245173 198.490884 132.952507 198.490884 
C 131.659841 198.490884 130.419946 199.004465 129.505893 199.918518 
C 128.59184 200.832571 128.078259 202.072466 128.078259 203.365132 
C 128.078259 204.657798 128.59184 205.897693 129.505893 206.811746 
C 130.419946 207.725799 131.659841 208.23938 132.952507 208.23938 
z
" clip-path="url(#p0deb0ce34b)" style="stroke: #000000; stroke-width: 0.886227"/>
    <path d="M 96.542951 31.122622 
C 97.835617 31.122622 99.075512 30.609041 99.989565 29.694988 
C 100.903618 28.780936 101.417199 27.54104 101.417199 26.248374 
C 101.417199 24.955709 100.903618 23.715813 99.989565 22.80176 
C 99.075512 21.887708 97.835617 21.374126 96.542951 21.374126 
C 95.250285 21.374126 94.01039 21.887708 93.096337 22.80176 
C 92.182285 23.715813 91.668703 24.955709 91.668703 26.248374 
C 91.668703 27.54104 92.182285 28.780936 93.096337 29.694988 
C 94.01039 30.609041 95.250285 31.122622 96.542951 31.122622 
z
" clip-path="url(#p0deb0ce34b)" style="stroke: #000000; stroke-width: 0.886227"/>
    <path d="M 133.498192 206.014521 
C 134.790858 206.014521 136.030754 205.50094 136.944806 204.586887 
C 137.858859 203.672835 138.372441 202.432939 138.372441 201.140273 
C 138.372441 199.847608 137.858859 198.607712 136.944806 197.69366 
C 136.030754 196.779607 134.790858 196.266025 133.498192 196.266025 
C 132.205527 196.266025 130.965631 196.779607 130.051579 197.69366 
C 129.137526 198.607712 128.623944 199.847608 128.623944 201.140273 
C 128.623944 202.432939 129.137526 203.672835 130.051579 204.586887 
C 130.965631 205.50094 132.205527 206.014521 133.498192 206.014521 
z
" clip-path="url(#p0deb0ce34b)" style="stroke: #000000; stroke-width: 0.886227"/>
    <path d="M 178.97136 240.024517 
C 180.264026 240.024517 181.503921 239.510936 182.417974 238.596883 
C 183.332027 237.682831 183.845608 236.442935 183.845608 235.150269 
C 183.845608 233.857604 183.332027 232.617708 182.417974 231.703656 
C 181.503921 230.789603 180.264026 230.276021 178.97136 230.276021 
C 177.678694 230.276021 176.438799 230.789603 175.524746 231.703656 
C 174.610694 232.617708 174.097112 233.857604 174.097112 235.150269 
C 174.097112 236.442935 174.610694 237.682831 175.524746 238.596883 
C 176.438799 239.510936 177.678694 240.024517 178.97136 240.024517 
z
" clip-path="url(#p0deb0ce34b)" style="stroke: #000000; stroke-width: 0.886227"/>
    <path d="M 104.406802 31.841961 
C 105.699468 31.841961 106.939363 31.32838 107.853416 30.414327 
C 108.767469 29.500274 109.28105 28.260379 109.28105 26.967713 
C 109.28105 25.675047 108.767469 24.435152 107.853416 23.521099 
C 106.939363 22.607046 105.699468 22.093465 104.406802 22.093465 
C 103.114136 22.093465 101.874241 22.607046 100.960188 23.521099 
C 100.046136 24.435152 99.532554 25.675047 99.532554 26.967713 
C 99.532554 28.260379 100.046136 29.500274 100.960188 30.414327 
C 101.874241 31.32838 103.114136 31.841961 104.406802 31.841961 
z
" clip-path="url(#p0deb0ce34b)" style="stroke: #000000; stroke-width: 0.886227"/>
    <path d="M 99.017224 99.347495 
C 100.309889 99.347495 101.549785 98.833913 102.463837 97.91986 
C 103.37789 97.005808 103.891472 95.765912 103.891472 94.473246 
C 103.891472 93.180581 103.37789 91.940685 102.463837 91.026633 
C 101.549785 90.11258 100.309889 89.598998 99.017224 89.598998 
C 97.724558 89.598998 96.484662 90.11258 95.57061 91.026633 
C 94.656557 91.940685 94.142976 93.180581 94.142976 94.473246 
C 94.142976 95.765912 94.656557 97.005808 95.57061 97.91986 
C 96.484662 98.833913 97.724558 99.347495 99.017224 99.347495 
z
" clip-path="url(#p0deb0ce34b)" style="stroke: #000000; stroke-width: 0.886227"/>
    <path d="M 382.099169 226.424457 
C 383.391834 226.424457 384.63173 225.910875 385.545783 224.996822 
C 386.459835 224.08277 386.973417 222.842874 386.973417 221.550209 
C 386.973417 220.257543 386.459835 219.017647 385.545783 218.103595 
C 384.63173 217.189542 383.391834 216.67596 382.099169 216.67596 
C 380.806503 216.67596 379.566608 217.189542 378.652555 218.103595 
C 377.738502 219.017647 377.224921 220.257543 377.224921 221.550209 
C 377.224921 222.842874 377.738502 224.08277 378.652555 224.996822 
C 379.566608 225.910875 380.806503 226.424457 382.099169 226.424457 
z
" clip-path="url(#p0deb0ce34b)" style="stroke: #000000; stroke-width: 0.886227"/>
    <path d="M 288.627439 208.730937 
C 289.920105 208.730937 291.160001 208.217356 292.074053 207.303303 
C 292.988106 206.38925 293.501687 205.149355 293.501687 203.856689 
C 293.501687 202.564024 292.988106 201.324128 292.074053 200.410075 
C 291.160001 199.496023 289.920105 198.982441 288.627439 198.982441 
C 287.334774 198.982441 286.094878 199.496023 285.180826 200.410075 
C 284.266773 201.324128 283.753191 202.564024 283.753191 203.856689 
C 283.753191 205.149355 284.266773 206.38925 285.180826 207.303303 
C 286.094878 208.217356 287.334774 208.730937 288.627439 208.730937 
z
" clip-path="url(#p0deb0ce34b)" style="stroke: #000000; stroke-width: 0.886227"/>
    <path d="M 271.585055 196.34586 
C 272.87772 196.34586 274.117616 195.832279 275.031669 194.918226 
C 275.945721 194.004173 276.459303 192.764278 276.459303 191.471612 
C 276.459303 190.178946 275.945721 188.939051 275.031669 188.024998 
C 274.117616 187.110946 272.87772 186.597364 271.585055 186.597364 
C 270.292389 186.597364 269.052494 187.110946 268.138441 188.024998 
C 267.224388 188.939051 266.710807 190.178946 266.710807 191.471612 
C 266.710807 192.764278 267.224388 194.004173 268.138441 194.918226 
C 269.052494 195.832279 270.292389 196.34586 271.585055 196.34586 
z
" clip-path="url(#p0deb0ce34b)" style="stroke: #000000; stroke-width: 0.886227"/>
    <path d="M 98.024573 209.688206 
C 99.317239 209.688206 100.557134 209.174624 101.471187 208.260571 
C 102.385239 207.346519 102.898821 206.106623 102.898821 204.813958 
C 102.898821 203.521292 102.385239 202.281396 101.471187 201.367344 
C 100.557134 200.453291 99.317239 199.93971 98.024573 199.93971 
C 96.731907 199.93971 95.492012 200.453291 94.577959 201.367344 
C 93.663906 202.281396 93.150325 203.521292 93.150325 204.813958 
C 93.150325 206.106623 93.663906 207.346519 94.577959 208.260571 
C 95.492012 209.174624 96.731907 209.688206 98.024573 209.688206 
z
" clip-path="url(#p0deb0ce34b)" style="stroke: #000000; stroke-width: 0.886227"/>
    <path d="M 167.448766 146.912829 
C 168.741431 146.912829 169.981327 146.399248 170.89538 145.485195 
C 171.809432 144.571142 172.323014 143.331247 172.323014 142.038581 
C 172.323014 140.745915 171.809432 139.50602 170.89538 138.591967 
C 169.981327 137.677915 168.741431 137.164333 167.448766 137.164333 
C 166.1561 137.164333 164.916204 137.677915 164.002152 138.591967 
C 163.088099 139.50602 162.574518 140.745915 162.574518 142.038581 
C 162.574518 143.331247 163.088099 144.571142 164.002152 145.485195 
C 164.916204 146.399248 166.1561 146.912829 167.448766 146.912829 
z
" clip-path="url(#p0deb0ce34b)" style="stroke: #000000; stroke-width: 0.886227"/>
    <path d="M 334.399249 184.881243 
C 335.691915 184.881243 336.93181 184.367661 337.845863 183.453608 
C 338.759916 182.539556 339.273497 181.29966 339.273497 180.006994 
C 339.273497 178.714329 338.759916 177.474433 337.845863 176.560381 
C 336.93181 175.646328 335.691915 175.132746 334.399249 175.132746 
C 333.106583 175.132746 331.866688 175.646328 330.952635 176.560381 
C 330.038582 177.474433 329.525001 178.714329 329.525001 180.006994 
C 329.525001 181.29966 330.038582 182.539556 330.952635 183.453608 
C 331.866688 184.367661 333.106583 184.881243 334.399249 184.881243 
z
" clip-path="url(#p0deb0ce34b)" style="stroke: #000000; stroke-width: 0.886227"/>
    <path d="M 186.307014 154.693171 
C 187.599679 154.693171 188.839575 154.179589 189.753627 153.265537 
C 190.66768 152.351484 191.181262 151.111588 191.181262 149.818923 
C 191.181262 148.526257 190.66768 147.286362 189.753627 146.372309 
C 188.839575 145.458256 187.599679 144.944675 186.307014 144.944675 
C 185.014348 144.944675 183.774452 145.458256 182.8604 146.372309 
C 181.946347 147.286362 181.432765 148.526257 181.432765 149.818923 
C 181.432765 151.111588 181.946347 152.351484 182.8604 153.265537 
C 183.774452 154.179589 185.014348 154.693171 186.307014 154.693171 
z
" clip-path="url(#p0deb0ce34b)" style="stroke: #000000; stroke-width: 0.886227"/>
    <path d="M 196.050578 84.056002 
C 197.343244 84.056002 198.583139 83.542421 199.497192 82.628368 
C 200.411244 81.714316 200.924826 80.47442 200.924826 79.181754 
C 200.924826 77.889089 200.411244 76.649193 199.497192 75.73514 
C 198.583139 74.821088 197.343244 74.307506 196.050578 74.307506 
C 194.757912 74.307506 193.518017 74.821088 192.603964 75.73514 
C 191.689911 76.649193 191.17633 77.889089 191.17633 79.181754 
C 191.17633 80.47442 191.689911 81.714316 192.603964 82.628368 
C 193.518017 83.542421 194.757912 84.056002 196.050578 84.056002 
z
" clip-path="url(#p0deb0ce34b)" style="stroke: #000000; stroke-width: 0.886227"/>
    <path d="M 148.177861 145.871718 
C 149.470527 145.871718 150.710422 145.358136 151.624475 144.444083 
C 152.538528 143.530031 153.052109 142.290135 153.052109 140.99747 
C 153.052109 139.704804 152.538528 138.464908 151.624475 137.550856 
C 150.710422 136.636803 149.470527 136.123221 148.177861 136.123221 
C 146.885196 136.123221 145.6453 136.636803 144.731247 137.550856 
C 143.817195 138.464908 143.303613 139.704804 143.303613 140.99747 
C 143.303613 142.290135 143.817195 143.530031 144.731247 144.444083 
C 145.6453 145.358136 146.885196 145.871718 148.177861 145.871718 
z
" clip-path="url(#p0deb0ce34b)" style="stroke: #000000; stroke-width: 0.886227"/>
    <path d="M 123.868663 84.046317 
C 125.161328 84.046317 126.401224 83.532735 127.315276 82.618683 
C 128.229329 81.70463 128.742911 80.464734 128.742911 79.172069 
C 128.742911 77.879403 128.229329 76.639508 127.315276 75.725455 
C 126.401224 74.811402 125.161328 74.297821 123.868663 74.297821 
C 122.575997 74.297821 121.336101 74.811402 120.422049 75.725455 
C 119.507996 76.639508 118.994414 77.879403 118.994414 79.172069 
C 118.994414 80.464734 119.507996 81.70463 120.422049 82.618683 
C 121.336101 83.532735 122.575997 84.046317 123.868663 84.046317 
z
" clip-path="url(#p0deb0ce34b)" style="stroke: #000000; stroke-width: 0.886227"/>
    <path d="M 176.712585 138.172947 
C 178.005251 138.172947 179.245147 137.659365 180.159199 136.745313 
C 181.073252 135.83126 181.586833 134.591365 181.586833 133.298699 
C 181.586833 132.006033 181.073252 130.766138 180.159199 129.852085 
C 179.245147 128.938032 178.005251 128.424451 176.712585 128.424451 
C 175.41992 128.424451 174.180024 128.938032 173.265972 129.852085 
C 172.351919 130.766138 171.838337 132.006033 171.838337 133.298699 
C 171.838337 134.591365 172.351919 135.83126 173.265972 136.745313 
C 174.180024 137.659365 175.41992 138.172947 176.712585 138.172947 
z
" clip-path="url(#p0deb0ce34b)" style="stroke: #000000; stroke-width: 0.886227"/>
    <path d="M 174.276694 98.149744 
C 175.56936 98.149744 176.809256 97.636163 177.723308 96.72211 
C 178.637361 95.808057 179.150942 94.568162 179.150942 93.275496 
C 179.150942 91.98283 178.637361 90.742935 177.723308 89.828882 
C 176.809256 88.914829 175.56936 88.401248 174.276694 88.401248 
C 172.984029 88.401248 171.744133 88.914829 170.83008 89.828882 
C 169.916028 90.742935 169.402446 91.98283 169.402446 93.275496 
C 169.402446 94.568162 169.916028 95.808057 170.83008 96.72211 
C 171.744133 97.636163 172.984029 98.149744 174.276694 98.149744 
z
" clip-path="url(#p0deb0ce34b)" style="stroke: #000000; stroke-width: 0.886227"/>
    <path d="M 100.901689 201.003544 
C 102.194355 201.003544 103.434251 200.489962 104.348303 199.57591 
C 105.262356 198.661857 105.775938 197.421962 105.775938 196.129296 
C 105.775938 194.83663 105.262356 193.596735 104.348303 192.682682 
C 103.434251 191.768629 102.194355 191.255048 100.901689 191.255048 
C 99.609024 191.255048 98.369128 191.768629 97.455076 192.682682 
C 96.541023 193.596735 96.027441 194.83663 96.027441 196.129296 
C 96.027441 197.421962 96.541023 198.661857 97.455076 199.57591 
C 98.369128 200.489962 99.609024 201.003544 100.901689 201.003544 
z
" clip-path="url(#p0deb0ce34b)" style="stroke: #000000; stroke-width: 0.886227"/>
    <path d="M 198.090845 158.682906 
C 199.383511 158.682906 200.623406 158.169325 201.537459 157.255272 
C 202.451511 156.341219 202.965093 155.101324 202.965093 153.808658 
C 202.965093 152.515992 202.451511 151.276097 201.537459 150.362044 
C 200.623406 149.447992 199.383511 148.93441 198.090845 148.93441 
C 196.798179 148.93441 195.558284 149.447992 194.644231 150.362044 
C 193.730178 151.276097 193.216597 152.515992 193.216597 153.808658 
C 193.216597 155.101324 193.730178 156.341219 194.644231 157.255272 
C 195.558284 158.169325 196.798179 158.682906 198.090845 158.682906 
z
" clip-path="url(#p0deb0ce34b)" style="stroke: #000000; stroke-width: 0.886227"/>
    <path d="M 165.070953 191.913289 
C 166.363619 191.913289 167.603515 191.399707 168.517567 190.485654 
C 169.43162 189.571602 169.945201 188.331706 169.945201 187.039041 
C 169.945201 185.746375 169.43162 184.506479 168.517567 183.592427 
C 167.603515 182.678374 166.363619 182.164792 165.070953 182.164792 
C 163.778288 182.164792 162.538392 182.678374 161.62434 183.592427 
C 160.710287 184.506479 160.196705 185.746375 160.196705 187.039041 
C 160.196705 188.331706 160.710287 189.571602 161.62434 190.485654 
C 162.538392 191.399707 163.778288 191.913289 165.070953 191.913289 
z
" clip-path="url(#p0deb0ce34b)" style="stroke: #000000; stroke-width: 0.886227"/>
    <path d="M 158.161393 192.502383 
C 159.454059 192.502383 160.693954 191.988801 161.608007 191.074748 
C 162.52206 190.160696 163.035641 188.9208 163.035641 187.628135 
C 163.035641 186.335469 162.52206 185.095573 161.608007 184.181521 
C 160.693954 183.267468 159.454059 182.753886 158.161393 182.753886 
C 156.868728 182.753886 155.628832 183.267468 154.714779 184.181521 
C 153.800727 185.095573 153.287145 186.335469 153.287145 187.628135 
C 153.287145 188.9208 153.800727 190.160696 154.714779 191.074748 
C 155.628832 191.988801 156.868728 192.502383 158.161393 192.502383 
z
" clip-path="url(#p0deb0ce34b)" style="stroke: #000000; stroke-width: 0.886227"/>
    <path d="M 86.494854 231.182456 
C 87.78752 231.182456 89.027416 230.668874 89.941468 229.754822 
C 90.855521 228.840769 91.369103 227.600873 91.369103 226.308208 
C 91.369103 225.015542 90.855521 223.775647 89.941468 222.861594 
C 89.027416 221.947541 87.78752 221.43396 86.494854 221.43396 
C 85.202189 221.43396 83.962293 221.947541 83.048241 222.861594 
C 82.134188 223.775647 81.620606 225.015542 81.620606 226.308208 
C 81.620606 227.600873 82.134188 228.840769 83.048241 229.754822 
C 83.962293 230.668874 85.202189 231.182456 86.494854 231.182456 
z
" clip-path="url(#p0deb0ce34b)" style="stroke: #000000; stroke-width: 0.886227"/>
    <path d="M 111.638087 124.423423 
C 112.930753 124.423423 114.170648 123.909842 115.084701 122.995789 
C 115.998754 122.081737 116.512335 120.841841 116.512335 119.549175 
C 116.512335 118.25651 115.998754 117.016614 115.084701 116.102561 
C 114.170648 115.188509 112.930753 114.674927 111.638087 114.674927 
C 110.345421 114.674927 109.105526 115.188509 108.191473 116.102561 
C 107.277421 117.016614 106.763839 118.25651 106.763839 119.549175 
C 106.763839 120.841841 107.277421 122.081737 108.191473 122.995789 
C 109.105526 123.909842 110.345421 124.423423 111.638087 124.423423 
z
" clip-path="url(#p0deb0ce34b)" style="stroke: #000000; stroke-width: 0.886227"/>
    <path d="M 312.850553 199.861878 
C 314.143219 199.861878 315.383115 199.348296 316.297167 198.434243 
C 317.21122 197.520191 317.724801 196.280295 317.724801 194.98763 
C 317.724801 193.694964 317.21122 192.455068 316.297167 191.541016 
C 315.383115 190.626963 314.143219 190.113381 312.850553 190.113381 
C 311.557888 190.113381 310.317992 190.626963 309.403939 191.541016 
C 308.489887 192.455068 307.976305 193.694964 307.976305 194.98763 
C 307.976305 196.280295 308.489887 197.520191 309.403939 198.434243 
C 310.317992 199.348296 311.557888 199.861878 312.850553 199.861878 
z
" clip-path="url(#p0deb0ce34b)" style="stroke: #000000; stroke-width: 0.886227"/>
    <path d="M 143.918668 139.035979 
C 145.211333 139.035979 146.451229 138.522397 147.365282 137.608344 
C 148.279334 136.694292 148.792916 135.454396 148.792916 134.16173 
C 148.792916 132.869065 148.279334 131.629169 147.365282 130.715117 
C 146.451229 129.801064 145.211333 129.287482 143.918668 129.287482 
C 142.626002 129.287482 141.386107 129.801064 140.472054 130.715117 
C 139.558001 131.629169 139.04442 132.869065 139.04442 134.16173 
C 139.04442 135.454396 139.558001 136.694292 140.472054 137.608344 
C 141.386107 138.522397 142.626002 139.035979 143.918668 139.035979 
z
" clip-path="url(#p0deb0ce34b)" style="stroke: #000000; stroke-width: 0.886227"/>
    <path d="M 91.807237 255.562546 
C 93.099902 255.562546 94.339798 255.048964 95.25385 254.134912 
C 96.167903 253.220859 96.681485 251.980963 96.681485 250.688298 
C 96.681485 249.395632 96.167903 248.155736 95.25385 247.241684 
C 94.339798 246.327631 93.099902 245.81405 91.807237 245.81405 
C 90.514571 245.81405 89.274675 246.327631 88.360623 247.241684 
C 87.44657 248.155736 86.932988 249.395632 86.932988 250.688298 
C 86.932988 251.980963 87.44657 253.220859 88.360623 254.134912 
C 89.274675 255.048964 90.514571 255.562546 91.807237 255.562546 
z
" clip-path="url(#p0deb0ce34b)" style="stroke: #000000; stroke-width: 0.886227"/>
    <path d="M 142.154978 160.62857 
C 143.447644 160.62857 144.687539 160.114989 145.601592 159.200936 
C 146.515645 158.286884 147.029226 157.046988 147.029226 155.754322 
C 147.029226 154.461657 146.515645 153.221761 145.601592 152.307709 
C 144.687539 151.393656 143.447644 150.880074 142.154978 150.880074 
C 140.862312 150.880074 139.622417 151.393656 138.708364 152.307709 
C 137.794312 153.221761 137.28073 154.461657 137.28073 155.754322 
C 137.28073 157.046988 137.794312 158.286884 138.708364 159.200936 
C 139.622417 160.114989 140.862312 160.62857 142.154978 160.62857 
z
" clip-path="url(#p0deb0ce34b)" style="stroke: #000000; stroke-width: 0.886227"/>
    <path d="M 120.040922 156.480815 
C 121.333588 156.480815 122.573483 155.967234 123.487536 155.053181 
C 124.401589 154.139128 124.91517 152.899233 124.91517 151.606567 
C 124.91517 150.313901 124.401589 149.074006 123.487536 148.159953 
C 122.573483 147.2459 121.333588 146.732319 120.040922 146.732319 
C 118.748257 146.732319 117.508361 147.2459 116.594308 148.159953 
C 115.680256 149.074006 115.166674 150.313901 115.166674 151.606567 
C 115.166674 152.899233 115.680256 154.139128 116.594308 155.053181 
C 117.508361 155.967234 118.748257 156.480815 120.040922 156.480815 
z
" clip-path="url(#p0deb0ce34b)" style="stroke: #000000; stroke-width: 0.886227"/>
   </g>
  </g>
 </g>
 <defs>
  <clipPath id="p0deb0ce34b">
   <rect x="65.911188" y="7.2" width="446.4" height="332.64"/>
  </clipPath>
 </defs>
</svg>
