<?xml version="1.0" encoding="utf-8" standalone="no"?>
<!DOCTYPE svg PUBLIC "-//W3C//DTD SVG 1.1//EN"
  "http://www.w3.org/Graphics/SVG/1.1/DTD/svg11.dtd">
<svg xmlns:xlink="http://www.w3.org/1999/xlink" width="713.453188pt" height="286.804242pt" viewBox="0 0 713.453188 286.804242" xmlns="http://www.w3.org/2000/svg" version="1.1">
 <metadata>
  <rdf:RDF xmlns:dc="http://purl.org/dc/elements/1.1/" xmlns:cc="http://creativecommons.org/ns#" xmlns:rdf="http://www.w3.org/1999/02/22-rdf-syntax-ns#">
   <cc:Work>
    <dc:type rdf:resource="http://purl.org/dc/dcmitype/StillImage"/>
    <dc:date>2024-07-21T16:27:31.656884</dc:date>
    <dc:format>image/svg+xml</dc:format>
    <dc:creator>
     <cc:Agent>
      <dc:title>Matplotlib v3.6.2, https://matplotlib.org/</dc:title>
     </cc:Agent>
    </dc:creator>
   </cc:Work>
  </rdf:RDF>
 </metadata>
 <defs>
  <style type="text/css">*{stroke-linejoin: round; stroke-linecap: butt}</style>
 </defs>
 <g id="figure_1">
  <g id="patch_1">
   <path d="M 0 286.804242 
L 713.453188 286.804242 
L 713.453188 0 
L 0 0 
z
" style="fill: #ffffff; stroke: #ffffff; stroke-linejoin: miter"/>
  </g>
  <g id="axes_1">
   <g id="patch_2">
    <path d="M 75.582188 230.355054 
L 521.982188 230.355054 
L 521.982188 8.595054 
L 75.582188 8.595054 
z
" style="fill: #ebebeb"/>
   </g>
   <g id="matplotlib.axis_1">
    <g id="xtick_1">
     <g id="line2d_1">
      <path d="M 159.282188 230.355054 
L 159.282188 8.595054 
" clip-path="url(#pfb058e5b44)" style="fill: none; stroke: #ffffff"/>
     </g>
     <g id="line2d_2">
      <path d="M 159.282188 230.355054 
" style="fill: none; stroke: #000000; stroke-width: 1.5"/>
      <defs>
       <path id="m61a0842b98" d="M 0 0 
L 0 4.75 
" style="stroke: #333333"/>
      </defs>
      <g>
       <use xlink:href="#m61a0842b98" x="159.282188" y="230.355054" style="stroke: #333333"/>
      </g>
     </g>
     <g id="text_1">
      <!-- distinct -->
      <g style="fill: #4d4d4d" transform="translate(131.321313 250.454679) scale(0.152 -0.152)">
       <defs>
        <path id="DejaVuSans-64" d="M 2906 2969 
L 2906 4863 
L 3481 4863 
L 3481 0 
L 2906 0 
L 2906 525 
Q 2725 213 2448 61 
Q 2172 -91 1784 -91 
Q 1150 -91 751 415 
Q 353 922 353 1747 
Q 353 2572 751 3078 
Q 1150 3584 1784 3584 
Q 2172 3584 2448 3432 
Q 2725 3281 2906 2969 
z
M 947 1747 
Q 947 1113 1208 752 
Q 1469 391 1925 391 
Q 2381 391 2643 752 
Q 2906 1113 2906 1747 
Q 2906 2381 2643 2742 
Q 2381 3103 1925 3103 
Q 1469 3103 1208 2742 
Q 947 2381 947 1747 
z
" transform="scale(0.015625)"/>
        <path id="DejaVuSans-69" d="M 603 3500 
L 1178 3500 
L 1178 0 
L 603 0 
L 603 3500 
z
M 603 4863 
L 1178 4863 
L 1178 4134 
L 603 4134 
L 603 4863 
z
" transform="scale(0.015625)"/>
        <path id="DejaVuSans-73" d="M 2834 3397 
L 2834 2853 
Q 2591 2978 2328 3040 
Q 2066 3103 1784 3103 
Q 1356 3103 1142 2972 
Q 928 2841 928 2578 
Q 928 2378 1081 2264 
Q 1234 2150 1697 2047 
L 1894 2003 
Q 2506 1872 2764 1633 
Q 3022 1394 3022 966 
Q 3022 478 2636 193 
Q 2250 -91 1575 -91 
Q 1294 -91 989 -36 
Q 684 19 347 128 
L 347 722 
Q 666 556 975 473 
Q 1284 391 1588 391 
Q 1994 391 2212 530 
Q 2431 669 2431 922 
Q 2431 1156 2273 1281 
Q 2116 1406 1581 1522 
L 1381 1569 
Q 847 1681 609 1914 
Q 372 2147 372 2553 
Q 372 3047 722 3315 
Q 1072 3584 1716 3584 
Q 2034 3584 2315 3537 
Q 2597 3491 2834 3397 
z
" transform="scale(0.015625)"/>
        <path id="DejaVuSans-74" d="M 1172 4494 
L 1172 3500 
L 2356 3500 
L 2356 3053 
L 1172 3053 
L 1172 1153 
Q 1172 725 1289 603 
Q 1406 481 1766 481 
L 2356 481 
L 2356 0 
L 1766 0 
Q 1100 0 847 248 
Q 594 497 594 1153 
L 594 3053 
L 172 3053 
L 172 3500 
L 594 3500 
L 594 4494 
L 1172 4494 
z
" transform="scale(0.015625)"/>
        <path id="DejaVuSans-6e" d="M 3513 2113 
L 3513 0 
L 2938 0 
L 2938 2094 
Q 2938 2591 2744 2837 
Q 2550 3084 2163 3084 
Q 1697 3084 1428 2787 
Q 1159 2491 1159 1978 
L 1159 0 
L 581 0 
L 581 3500 
L 1159 3500 
L 1159 2956 
Q 1366 3272 1645 3428 
Q 1925 3584 2291 3584 
Q 2894 3584 3203 3211 
Q 3513 2838 3513 2113 
z
" transform="scale(0.015625)"/>
        <path id="DejaVuSans-63" d="M 3122 3366 
L 3122 2828 
Q 2878 2963 2633 3030 
Q 2388 3097 2138 3097 
Q 1578 3097 1268 2742 
Q 959 2388 959 1747 
Q 959 1106 1268 751 
Q 1578 397 2138 397 
Q 2388 397 2633 464 
Q 2878 531 3122 666 
L 3122 134 
Q 2881 22 2623 -34 
Q 2366 -91 2075 -91 
Q 1284 -91 818 406 
Q 353 903 353 1747 
Q 353 2603 823 3093 
Q 1294 3584 2113 3584 
Q 2378 3584 2631 3529 
Q 2884 3475 3122 3366 
z
" transform="scale(0.015625)"/>
       </defs>
       <use xlink:href="#DejaVuSans-64"/>
       <use xlink:href="#DejaVuSans-69" x="63.476562"/>
       <use xlink:href="#DejaVuSans-73" x="91.259766"/>
       <use xlink:href="#DejaVuSans-74" x="143.359375"/>
       <use xlink:href="#DejaVuSans-69" x="182.568359"/>
       <use xlink:href="#DejaVuSans-6e" x="210.351562"/>
       <use xlink:href="#DejaVuSans-63" x="273.730469"/>
       <use xlink:href="#DejaVuSans-74" x="328.710938"/>
      </g>
     </g>
    </g>
    <g id="xtick_2">
     <g id="line2d_3">
      <path d="M 298.782188 230.355054 
L 298.782188 8.595054 
" clip-path="url(#pfb058e5b44)" style="fill: none; stroke: #ffffff"/>
     </g>
     <g id="line2d_4">
      <path d="M 298.782188 230.355054 
" style="fill: none; stroke: #000000; stroke-width: 1.5"/>
      <g>
       <use xlink:href="#m61a0842b98" x="298.782188" y="230.355054" style="stroke: #333333"/>
      </g>
     </g>
     <g id="text_2">
      <!-- semi -->
      <g style="fill: #4d4d4d" transform="translate(280.632438 250.454679) scale(0.152 -0.152)">
       <defs>
        <path id="DejaVuSans-65" d="M 3597 1894 
L 3597 1613 
L 953 1613 
Q 991 1019 1311 708 
Q 1631 397 2203 397 
Q 2534 397 2845 478 
Q 3156 559 3463 722 
L 3463 178 
Q 3153 47 2828 -22 
Q 2503 -91 2169 -91 
Q 1331 -91 842 396 
Q 353 884 353 1716 
Q 353 2575 817 3079 
Q 1281 3584 2069 3584 
Q 2775 3584 3186 3129 
Q 3597 2675 3597 1894 
z
M 3022 2063 
Q 3016 2534 2758 2815 
Q 2500 3097 2075 3097 
Q 1594 3097 1305 2825 
Q 1016 2553 972 2059 
L 3022 2063 
z
" transform="scale(0.015625)"/>
        <path id="DejaVuSans-6d" d="M 3328 2828 
Q 3544 3216 3844 3400 
Q 4144 3584 4550 3584 
Q 5097 3584 5394 3201 
Q 5691 2819 5691 2113 
L 5691 0 
L 5113 0 
L 5113 2094 
Q 5113 2597 4934 2840 
Q 4756 3084 4391 3084 
Q 3944 3084 3684 2787 
Q 3425 2491 3425 1978 
L 3425 0 
L 2847 0 
L 2847 2094 
Q 2847 2600 2669 2842 
Q 2491 3084 2119 3084 
Q 1678 3084 1418 2786 
Q 1159 2488 1159 1978 
L 1159 0 
L 581 0 
L 581 3500 
L 1159 3500 
L 1159 2956 
Q 1356 3278 1631 3431 
Q 1906 3584 2284 3584 
Q 2666 3584 2933 3390 
Q 3200 3197 3328 2828 
z
" transform="scale(0.015625)"/>
       </defs>
       <use xlink:href="#DejaVuSans-73"/>
       <use xlink:href="#DejaVuSans-65" x="52.099609"/>
       <use xlink:href="#DejaVuSans-6d" x="113.623047"/>
       <use xlink:href="#DejaVuSans-69" x="211.035156"/>
      </g>
     </g>
    </g>
    <g id="xtick_3">
     <g id="line2d_5">
      <path d="M 438.282188 230.355054 
L 438.282188 8.595054 
" clip-path="url(#pfb058e5b44)" style="fill: none; stroke: #ffffff"/>
     </g>
     <g id="line2d_6">
      <path d="M 438.282188 230.355054 
" style="fill: none; stroke: #000000; stroke-width: 1.5"/>
      <g>
       <use xlink:href="#m61a0842b98" x="438.282188" y="230.355054" style="stroke: #333333"/>
      </g>
     </g>
     <g id="text_3">
      <!-- mixed -->
      <g style="fill: #4d4d4d" transform="translate(415.006 250.454679) scale(0.152 -0.152)">
       <defs>
        <path id="DejaVuSans-78" d="M 3513 3500 
L 2247 1797 
L 3578 0 
L 2900 0 
L 1881 1375 
L 863 0 
L 184 0 
L 1544 1831 
L 300 3500 
L 978 3500 
L 1906 2253 
L 2834 3500 
L 3513 3500 
z
" transform="scale(0.015625)"/>
       </defs>
       <use xlink:href="#DejaVuSans-6d"/>
       <use xlink:href="#DejaVuSans-69" x="97.412109"/>
       <use xlink:href="#DejaVuSans-78" x="125.195312"/>
       <use xlink:href="#DejaVuSans-65" x="181.25"/>
       <use xlink:href="#DejaVuSans-64" x="242.773438"/>
      </g>
     </g>
    </g>
    <g id="text_4">
     <!-- Graph Type -->
     <g transform="translate(237.605859 275.652835) scale(0.19 -0.19)">
      <defs>
       <path id="DejaVuSans-47" d="M 3809 666 
L 3809 1919 
L 2778 1919 
L 2778 2438 
L 4434 2438 
L 4434 434 
Q 4069 175 3628 42 
Q 3188 -91 2688 -91 
Q 1594 -91 976 548 
Q 359 1188 359 2328 
Q 359 3472 976 4111 
Q 1594 4750 2688 4750 
Q 3144 4750 3555 4637 
Q 3966 4525 4313 4306 
L 4313 3634 
Q 3963 3931 3569 4081 
Q 3175 4231 2741 4231 
Q 1884 4231 1454 3753 
Q 1025 3275 1025 2328 
Q 1025 1384 1454 906 
Q 1884 428 2741 428 
Q 3075 428 3337 486 
Q 3600 544 3809 666 
z
" transform="scale(0.015625)"/>
       <path id="DejaVuSans-72" d="M 2631 2963 
Q 2534 3019 2420 3045 
Q 2306 3072 2169 3072 
Q 1681 3072 1420 2755 
Q 1159 2438 1159 1844 
L 1159 0 
L 581 0 
L 581 3500 
L 1159 3500 
L 1159 2956 
Q 1341 3275 1631 3429 
Q 1922 3584 2338 3584 
Q 2397 3584 2469 3576 
Q 2541 3569 2628 3553 
L 2631 2963 
z
" transform="scale(0.015625)"/>
       <path id="DejaVuSans-61" d="M 2194 1759 
Q 1497 1759 1228 1600 
Q 959 1441 959 1056 
Q 959 750 1161 570 
Q 1363 391 1709 391 
Q 2188 391 2477 730 
Q 2766 1069 2766 1631 
L 2766 1759 
L 2194 1759 
z
M 3341 1997 
L 3341 0 
L 2766 0 
L 2766 531 
Q 2569 213 2275 61 
Q 1981 -91 1556 -91 
Q 1019 -91 701 211 
Q 384 513 384 1019 
Q 384 1609 779 1909 
Q 1175 2209 1959 2209 
L 2766 2209 
L 2766 2266 
Q 2766 2663 2505 2880 
Q 2244 3097 1772 3097 
Q 1472 3097 1187 3025 
Q 903 2953 641 2809 
L 641 3341 
Q 956 3463 1253 3523 
Q 1550 3584 1831 3584 
Q 2591 3584 2966 3190 
Q 3341 2797 3341 1997 
z
" transform="scale(0.015625)"/>
       <path id="DejaVuSans-70" d="M 1159 525 
L 1159 -1331 
L 581 -1331 
L 581 3500 
L 1159 3500 
L 1159 2969 
Q 1341 3281 1617 3432 
Q 1894 3584 2278 3584 
Q 2916 3584 3314 3078 
Q 3713 2572 3713 1747 
Q 3713 922 3314 415 
Q 2916 -91 2278 -91 
Q 1894 -91 1617 61 
Q 1341 213 1159 525 
z
M 3116 1747 
Q 3116 2381 2855 2742 
Q 2594 3103 2138 3103 
Q 1681 3103 1420 2742 
Q 1159 2381 1159 1747 
Q 1159 1113 1420 752 
Q 1681 391 2138 391 
Q 2594 391 2855 752 
Q 3116 1113 3116 1747 
z
" transform="scale(0.015625)"/>
       <path id="DejaVuSans-68" d="M 3513 2113 
L 3513 0 
L 2938 0 
L 2938 2094 
Q 2938 2591 2744 2837 
Q 2550 3084 2163 3084 
Q 1697 3084 1428 2787 
Q 1159 2491 1159 1978 
L 1159 0 
L 581 0 
L 581 4863 
L 1159 4863 
L 1159 2956 
Q 1366 3272 1645 3428 
Q 1925 3584 2291 3584 
Q 2894 3584 3203 3211 
Q 3513 2838 3513 2113 
z
" transform="scale(0.015625)"/>
       <path id="DejaVuSans-20" transform="scale(0.015625)"/>
       <path id="DejaVuSans-54" d="M -19 4666 
L 3928 4666 
L 3928 4134 
L 2272 4134 
L 2272 0 
L 1638 0 
L 1638 4134 
L -19 4134 
L -19 4666 
z
" transform="scale(0.015625)"/>
       <path id="DejaVuSans-79" d="M 2059 -325 
Q 1816 -950 1584 -1140 
Q 1353 -1331 966 -1331 
L 506 -1331 
L 506 -850 
L 844 -850 
Q 1081 -850 1212 -737 
Q 1344 -625 1503 -206 
L 1606 56 
L 191 3500 
L 800 3500 
L 1894 763 
L 2988 3500 
L 3597 3500 
L 2059 -325 
z
" transform="scale(0.015625)"/>
      </defs>
      <use xlink:href="#DejaVuSans-47"/>
      <use xlink:href="#DejaVuSans-72" x="77.490234"/>
      <use xlink:href="#DejaVuSans-61" x="118.603516"/>
      <use xlink:href="#DejaVuSans-70" x="179.882812"/>
      <use xlink:href="#DejaVuSans-68" x="243.359375"/>
      <use xlink:href="#DejaVuSans-20" x="306.738281"/>
      <use xlink:href="#DejaVuSans-54" x="338.525391"/>
      <use xlink:href="#DejaVuSans-79" x="383.984375"/>
      <use xlink:href="#DejaVuSans-70" x="443.164062"/>
      <use xlink:href="#DejaVuSans-65" x="506.640625"/>
     </g>
    </g>
   </g>
   <g id="matplotlib.axis_2">
    <g id="ytick_1">
     <g id="line2d_7">
      <path d="M 75.582188 220.275054 
L 521.982188 220.275054 
" clip-path="url(#pfb058e5b44)" style="fill: none; stroke: #ffffff"/>
     </g>
     <g id="line2d_8">
      <path d="M 75.582188 220.275054 
" style="fill: none; stroke: #000000; stroke-width: 1.5"/>
      <defs>
       <path id="m3c50ceafd5" d="M 0 0 
L -4.75 0 
" style="stroke: #333333"/>
      </defs>
      <g>
       <use xlink:href="#m3c50ceafd5" x="75.582188" y="220.275054" style="stroke: #333333"/>
      </g>
     </g>
     <g id="text_5">
      <!-- 0 -->
      <g style="fill: #4d4d4d" transform="translate(57.361188 224.469304) scale(0.152 -0.152)">
       <defs>
        <path id="DejaVuSans-30" d="M 2034 4250 
Q 1547 4250 1301 3770 
Q 1056 3291 1056 2328 
Q 1056 1369 1301 889 
Q 1547 409 2034 409 
Q 2525 409 2770 889 
Q 3016 1369 3016 2328 
Q 3016 3291 2770 3770 
Q 2525 4250 2034 4250 
z
M 2034 4750 
Q 2819 4750 3233 4129 
Q 3647 3509 3647 2328 
Q 3647 1150 3233 529 
Q 2819 -91 2034 -91 
Q 1250 -91 836 529 
Q 422 1150 422 2328 
Q 422 3509 836 4129 
Q 1250 4750 2034 4750 
z
" transform="scale(0.015625)"/>
       </defs>
       <use xlink:href="#DejaVuSans-30"/>
      </g>
     </g>
    </g>
    <g id="ytick_2">
     <g id="line2d_9">
      <path d="M 75.582188 168.845134 
L 521.982188 168.845134 
" clip-path="url(#pfb058e5b44)" style="fill: none; stroke: #ffffff"/>
     </g>
     <g id="line2d_10">
      <path d="M 75.582188 168.845134 
" style="fill: none; stroke: #000000; stroke-width: 1.5"/>
      <g>
       <use xlink:href="#m3c50ceafd5" x="75.582188" y="168.845134" style="stroke: #333333"/>
      </g>
     </g>
     <g id="text_6">
      <!-- 0.25 -->
      <g style="fill: #4d4d4d" transform="translate(33.188438 173.039384) scale(0.152 -0.152)">
       <defs>
        <path id="DejaVuSans-2e" d="M 684 794 
L 1344 794 
L 1344 0 
L 684 0 
L 684 794 
z
" transform="scale(0.015625)"/>
        <path id="DejaVuSans-32" d="M 1228 531 
L 3431 531 
L 3431 0 
L 469 0 
L 469 531 
Q 828 903 1448 1529 
Q 2069 2156 2228 2338 
Q 2531 2678 2651 2914 
Q 2772 3150 2772 3378 
Q 2772 3750 2511 3984 
Q 2250 4219 1831 4219 
Q 1534 4219 1204 4116 
Q 875 4013 500 3803 
L 500 4441 
Q 881 4594 1212 4672 
Q 1544 4750 1819 4750 
Q 2544 4750 2975 4387 
Q 3406 4025 3406 3419 
Q 3406 3131 3298 2873 
Q 3191 2616 2906 2266 
Q 2828 2175 2409 1742 
Q 1991 1309 1228 531 
z
" transform="scale(0.015625)"/>
        <path id="DejaVuSans-35" d="M 691 4666 
L 3169 4666 
L 3169 4134 
L 1269 4134 
L 1269 2991 
Q 1406 3038 1543 3061 
Q 1681 3084 1819 3084 
Q 2600 3084 3056 2656 
Q 3513 2228 3513 1497 
Q 3513 744 3044 326 
Q 2575 -91 1722 -91 
Q 1428 -91 1123 -41 
Q 819 9 494 109 
L 494 744 
Q 775 591 1075 516 
Q 1375 441 1709 441 
Q 2250 441 2565 725 
Q 2881 1009 2881 1497 
Q 2881 1984 2565 2268 
Q 2250 2553 1709 2553 
Q 1456 2553 1204 2497 
Q 953 2441 691 2322 
L 691 4666 
z
" transform="scale(0.015625)"/>
       </defs>
       <use xlink:href="#DejaVuSans-30"/>
       <use xlink:href="#DejaVuSans-2e" x="63.623047"/>
       <use xlink:href="#DejaVuSans-32" x="95.410156"/>
       <use xlink:href="#DejaVuSans-35" x="159.033203"/>
      </g>
     </g>
    </g>
    <g id="ytick_3">
     <g id="line2d_11">
      <path d="M 75.582188 117.415215 
L 521.982188 117.415215 
" clip-path="url(#pfb058e5b44)" style="fill: none; stroke: #ffffff"/>
     </g>
     <g id="line2d_12">
      <path d="M 75.582188 117.415215 
" style="fill: none; stroke: #000000; stroke-width: 1.5"/>
      <g>
       <use xlink:href="#m3c50ceafd5" x="75.582188" y="117.415215" style="stroke: #333333"/>
      </g>
     </g>
     <g id="text_7">
      <!-- 0.50 -->
      <g style="fill: #4d4d4d" transform="translate(33.188438 121.609465) scale(0.152 -0.152)">
       <use xlink:href="#DejaVuSans-30"/>
       <use xlink:href="#DejaVuSans-2e" x="63.623047"/>
       <use xlink:href="#DejaVuSans-35" x="95.410156"/>
       <use xlink:href="#DejaVuSans-30" x="159.033203"/>
      </g>
     </g>
    </g>
    <g id="ytick_4">
     <g id="line2d_13">
      <path d="M 75.582188 65.985295 
L 521.982188 65.985295 
" clip-path="url(#pfb058e5b44)" style="fill: none; stroke: #ffffff"/>
     </g>
     <g id="line2d_14">
      <path d="M 75.582188 65.985295 
" style="fill: none; stroke: #000000; stroke-width: 1.5"/>
      <g>
       <use xlink:href="#m3c50ceafd5" x="75.582188" y="65.985295" style="stroke: #333333"/>
      </g>
     </g>
     <g id="text_8">
      <!-- 0.75 -->
      <g style="fill: #4d4d4d" transform="translate(33.188438 70.179545) scale(0.152 -0.152)">
       <defs>
        <path id="DejaVuSans-37" d="M 525 4666 
L 3525 4666 
L 3525 4397 
L 1831 0 
L 1172 0 
L 2766 4134 
L 525 4134 
L 525 4666 
z
" transform="scale(0.015625)"/>
       </defs>
       <use xlink:href="#DejaVuSans-30"/>
       <use xlink:href="#DejaVuSans-2e" x="63.623047"/>
       <use xlink:href="#DejaVuSans-37" x="95.410156"/>
       <use xlink:href="#DejaVuSans-35" x="159.033203"/>
      </g>
     </g>
    </g>
    <g id="ytick_5">
     <g id="line2d_15">
      <path d="M 75.582188 14.555375 
L 521.982188 14.555375 
" clip-path="url(#pfb058e5b44)" style="fill: none; stroke: #ffffff"/>
     </g>
     <g id="line2d_16">
      <path d="M 75.582188 14.555375 
" style="fill: none; stroke: #000000; stroke-width: 1.5"/>
      <g>
       <use xlink:href="#m3c50ceafd5" x="75.582188" y="14.555375" style="stroke: #333333"/>
      </g>
     </g>
     <g id="text_9">
      <!-- 1 -->
      <g style="fill: #4d4d4d" transform="translate(57.361188 18.749625) scale(0.152 -0.152)">
       <defs>
        <path id="DejaVuSans-31" d="M 794 531 
L 1825 531 
L 1825 4091 
L 703 3866 
L 703 4441 
L 1819 4666 
L 2450 4666 
L 2450 531 
L 3481 531 
L 3481 0 
L 794 0 
L 794 531 
z
" transform="scale(0.015625)"/>
       </defs>
       <use xlink:href="#DejaVuSans-31"/>
      </g>
     </g>
    </g>
    <g id="ytick_6">
     <g id="line2d_17">
      <path d="M 75.582188 194.560094 
L 521.982188 194.560094 
" clip-path="url(#pfb058e5b44)" style="fill: none; stroke: #ffffff; stroke-width: 0.5"/>
     </g>
    </g>
    <g id="ytick_7">
     <g id="line2d_18">
      <path d="M 75.582188 143.130174 
L 521.982188 143.130174 
" clip-path="url(#pfb058e5b44)" style="fill: none; stroke: #ffffff; stroke-width: 0.5"/>
     </g>
    </g>
    <g id="ytick_8">
     <g id="line2d_19">
      <path d="M 75.582188 91.700255 
L 521.982188 91.700255 
" clip-path="url(#pfb058e5b44)" style="fill: none; stroke: #ffffff; stroke-width: 0.5"/>
     </g>
    </g>
    <g id="ytick_9">
     <g id="line2d_20">
      <path d="M 75.582188 40.270335 
L 521.982188 40.270335 
" clip-path="url(#pfb058e5b44)" style="fill: none; stroke: #ffffff; stroke-width: 0.5"/>
     </g>
    </g>
    <g id="text_10">
     <!-- awareness -->
     <g transform="translate(21.637031 168.748726) rotate(-90) scale(0.19 -0.19)">
      <defs>
       <path id="DejaVuSans-77" d="M 269 3500 
L 844 3500 
L 1563 769 
L 2278 3500 
L 2956 3500 
L 3675 769 
L 4391 3500 
L 4966 3500 
L 4050 0 
L 3372 0 
L 2619 2869 
L 1863 0 
L 1184 0 
L 269 3500 
z
" transform="scale(0.015625)"/>
      </defs>
      <use xlink:href="#DejaVuSans-61"/>
      <use xlink:href="#DejaVuSans-77" x="61.279297"/>
      <use xlink:href="#DejaVuSans-61" x="143.066406"/>
      <use xlink:href="#DejaVuSans-72" x="204.345703"/>
      <use xlink:href="#DejaVuSans-65" x="243.208984"/>
      <use xlink:href="#DejaVuSans-6e" x="304.732422"/>
      <use xlink:href="#DejaVuSans-65" x="368.111328"/>
      <use xlink:href="#DejaVuSans-73" x="429.634766"/>
      <use xlink:href="#DejaVuSans-73" x="481.734375"/>
     </g>
    </g>
   </g>
   <g id="PolyCollection_1">
    <path d="M 180.207188 220.275054 
L 180.207188 18.957434 
L 222.057188 18.957434 
L 222.057188 220.275054 
z
" clip-path="url(#pfb058e5b44)" style="fill: #91bfdb; stroke: #000000; stroke-width: 0.886227"/>
    <path d="M 138.357188 220.275054 
L 138.357188 53.393458 
L 180.207188 53.393458 
L 180.207188 220.275054 
z
" clip-path="url(#pfb058e5b44)" style="fill: #ffffbf; stroke: #000000; stroke-width: 0.886227"/>
    <path d="M 96.507188 220.275054 
L 96.507188 19.939726 
L 138.357188 19.939726 
L 138.357188 220.275054 
z
" clip-path="url(#pfb058e5b44)" style="fill: #fc8d59; stroke: #000000; stroke-width: 0.886227"/>
    <path d="M 319.707188 220.275054 
L 319.707188 22.327197 
L 361.557187 22.327197 
L 361.557187 220.275054 
z
" clip-path="url(#pfb058e5b44)" style="fill: #91bfdb; stroke: #000000; stroke-width: 0.886227"/>
    <path d="M 277.857188 220.275054 
L 277.857188 66.8555 
L 319.707188 66.8555 
L 319.707188 220.275054 
z
" clip-path="url(#pfb058e5b44)" style="fill: #ffffbf; stroke: #000000; stroke-width: 0.886227"/>
    <path d="M 236.007187 220.275054 
L 236.007187 25.710527 
L 277.857188 25.710527 
L 277.857188 220.275054 
z
" clip-path="url(#pfb058e5b44)" style="fill: #fc8d59; stroke: #000000; stroke-width: 0.886227"/>
    <path d="M 459.207188 220.275054 
L 459.207188 70.479973 
L 501.057187 70.479973 
L 501.057187 220.275054 
z
" clip-path="url(#pfb058e5b44)" style="fill: #91bfdb; stroke: #000000; stroke-width: 0.886227"/>
    <path d="M 417.357188 220.275054 
L 417.357188 134.137455 
L 459.207188 134.137455 
L 459.207188 220.275054 
z
" clip-path="url(#pfb058e5b44)" style="fill: #ffffbf; stroke: #000000; stroke-width: 0.886227"/>
    <path d="M 375.507188 220.275054 
L 375.507188 108.696759 
L 417.357188 108.696759 
L 417.357188 220.275054 
z
" clip-path="url(#pfb058e5b44)" style="fill: #fc8d59; stroke: #000000; stroke-width: 0.886227"/>
   </g>
   <g id="LineCollection_1">
    <path d="M 98.599688 24.038739 
L 136.264688 24.038739 
" clip-path="url(#pfb058e5b44)" style="fill: none; stroke: #000000; stroke-width: 0.886227"/>
    <path d="M 140.449688 55.415524 
L 178.114688 55.415524 
" clip-path="url(#pfb058e5b44)" style="fill: none; stroke: #000000; stroke-width: 0.886227"/>
    <path d="M 182.299688 19.779256 
L 219.964688 19.779256 
" clip-path="url(#pfb058e5b44)" style="fill: none; stroke: #000000; stroke-width: 0.886227"/>
    <path d="M 98.599688 19.502409 
L 136.264688 19.502409 
" clip-path="url(#pfb058e5b44)" style="fill: none; stroke: #000000; stroke-width: 0.886227"/>
    <path d="M 140.449688 51.06236 
L 178.114688 51.06236 
" clip-path="url(#pfb058e5b44)" style="fill: none; stroke: #000000; stroke-width: 0.886227"/>
    <path d="M 182.299688 18.675054 
L 219.964688 18.675054 
" clip-path="url(#pfb058e5b44)" style="fill: none; stroke: #000000; stroke-width: 0.886227"/>
    <path d="M 117.432188 19.502409 
L 117.432188 24.038739 
" clip-path="url(#pfb058e5b44)" style="fill: none; stroke: #000000; stroke-width: 0.886227"/>
    <path d="M 159.282188 51.06236 
L 159.282188 55.415524 
" clip-path="url(#pfb058e5b44)" style="fill: none; stroke: #000000; stroke-width: 0.886227"/>
    <path d="M 201.132188 18.675054 
L 201.132188 19.779256 
" clip-path="url(#pfb058e5b44)" style="fill: none; stroke: #000000; stroke-width: 0.886227"/>
   </g>
   <g id="LineCollection_2">
    <path d="M 238.099687 29.938969 
L 275.764687 29.938969 
" clip-path="url(#pfb058e5b44)" style="fill: none; stroke: #000000; stroke-width: 0.886227"/>
    <path d="M 279.949688 68.513651 
L 317.614688 68.513651 
" clip-path="url(#pfb058e5b44)" style="fill: none; stroke: #000000; stroke-width: 0.886227"/>
    <path d="M 321.799687 23.992221 
L 359.464688 23.992221 
" clip-path="url(#pfb058e5b44)" style="fill: none; stroke: #000000; stroke-width: 0.886227"/>
    <path d="M 238.099687 25.027504 
L 275.764687 25.027504 
" clip-path="url(#pfb058e5b44)" style="fill: none; stroke: #000000; stroke-width: 0.886227"/>
    <path d="M 279.949688 64.867839 
L 317.614688 64.867839 
" clip-path="url(#pfb058e5b44)" style="fill: none; stroke: #000000; stroke-width: 0.886227"/>
    <path d="M 321.799687 21.653967 
L 359.464688 21.653967 
" clip-path="url(#pfb058e5b44)" style="fill: none; stroke: #000000; stroke-width: 0.886227"/>
    <path d="M 256.932187 25.027504 
L 256.932187 29.938969 
" clip-path="url(#pfb058e5b44)" style="fill: none; stroke: #000000; stroke-width: 0.886227"/>
    <path d="M 298.782188 64.867839 
L 298.782188 68.513651 
" clip-path="url(#pfb058e5b44)" style="fill: none; stroke: #000000; stroke-width: 0.886227"/>
    <path d="M 340.632187 21.653967 
L 340.632187 23.992221 
" clip-path="url(#pfb058e5b44)" style="fill: none; stroke: #000000; stroke-width: 0.886227"/>
   </g>
   <g id="LineCollection_3">
    <path d="M 377.599688 114.478649 
L 415.264688 114.478649 
" clip-path="url(#pfb058e5b44)" style="fill: none; stroke: #000000; stroke-width: 0.886227"/>
    <path d="M 419.449687 136.933412 
L 457.114688 136.933412 
" clip-path="url(#pfb058e5b44)" style="fill: none; stroke: #000000; stroke-width: 0.886227"/>
    <path d="M 461.299688 73.498354 
L 498.964688 73.498354 
" clip-path="url(#pfb058e5b44)" style="fill: none; stroke: #000000; stroke-width: 0.886227"/>
    <path d="M 377.599688 107.590538 
L 415.264688 107.590538 
" clip-path="url(#pfb058e5b44)" style="fill: none; stroke: #000000; stroke-width: 0.886227"/>
    <path d="M 419.449687 129.675071 
L 457.114688 129.675071 
" clip-path="url(#pfb058e5b44)" style="fill: none; stroke: #000000; stroke-width: 0.886227"/>
    <path d="M 461.299688 69.077129 
L 498.964688 69.077129 
" clip-path="url(#pfb058e5b44)" style="fill: none; stroke: #000000; stroke-width: 0.886227"/>
    <path d="M 396.432188 107.590538 
L 396.432188 114.478649 
" clip-path="url(#pfb058e5b44)" style="fill: none; stroke: #000000; stroke-width: 0.886227"/>
    <path d="M 438.282188 129.675071 
L 438.282188 136.933412 
" clip-path="url(#pfb058e5b44)" style="fill: none; stroke: #000000; stroke-width: 0.886227"/>
    <path d="M 480.132188 69.077129 
L 480.132188 73.498354 
" clip-path="url(#pfb058e5b44)" style="fill: none; stroke: #000000; stroke-width: 0.886227"/>
   </g>
   <g id="patch_3">
    <path d="M 529.182188 187.869273 
L 706.253188 187.869273 
L 706.253188 48.200835 
L 529.182188 48.200835 
z
" style="fill: #ffffff"/>
   </g>
   <g id="text_11">
    <!-- configuration -->
    <g transform="translate(542.982188 81.680679) scale(0.19 -0.19)">
     <defs>
      <path id="DejaVuSans-6f" d="M 1959 3097 
Q 1497 3097 1228 2736 
Q 959 2375 959 1747 
Q 959 1119 1226 758 
Q 1494 397 1959 397 
Q 2419 397 2687 759 
Q 2956 1122 2956 1747 
Q 2956 2369 2687 2733 
Q 2419 3097 1959 3097 
z
M 1959 3584 
Q 2709 3584 3137 3096 
Q 3566 2609 3566 1747 
Q 3566 888 3137 398 
Q 2709 -91 1959 -91 
Q 1206 -91 779 398 
Q 353 888 353 1747 
Q 353 2609 779 3096 
Q 1206 3584 1959 3584 
z
" transform="scale(0.015625)"/>
      <path id="DejaVuSans-66" d="M 2375 4863 
L 2375 4384 
L 1825 4384 
Q 1516 4384 1395 4259 
Q 1275 4134 1275 3809 
L 1275 3500 
L 2222 3500 
L 2222 3053 
L 1275 3053 
L 1275 0 
L 697 0 
L 697 3053 
L 147 3053 
L 147 3500 
L 697 3500 
L 697 3744 
Q 697 4328 969 4595 
Q 1241 4863 1831 4863 
L 2375 4863 
z
" transform="scale(0.015625)"/>
      <path id="DejaVuSans-67" d="M 2906 1791 
Q 2906 2416 2648 2759 
Q 2391 3103 1925 3103 
Q 1463 3103 1205 2759 
Q 947 2416 947 1791 
Q 947 1169 1205 825 
Q 1463 481 1925 481 
Q 2391 481 2648 825 
Q 2906 1169 2906 1791 
z
M 3481 434 
Q 3481 -459 3084 -895 
Q 2688 -1331 1869 -1331 
Q 1566 -1331 1297 -1286 
Q 1028 -1241 775 -1147 
L 775 -588 
Q 1028 -725 1275 -790 
Q 1522 -856 1778 -856 
Q 2344 -856 2625 -561 
Q 2906 -266 2906 331 
L 2906 616 
Q 2728 306 2450 153 
Q 2172 0 1784 0 
Q 1141 0 747 490 
Q 353 981 353 1791 
Q 353 2603 747 3093 
Q 1141 3584 1784 3584 
Q 2172 3584 2450 3431 
Q 2728 3278 2906 2969 
L 2906 3500 
L 3481 3500 
L 3481 434 
z
" transform="scale(0.015625)"/>
      <path id="DejaVuSans-75" d="M 544 1381 
L 544 3500 
L 1119 3500 
L 1119 1403 
Q 1119 906 1312 657 
Q 1506 409 1894 409 
Q 2359 409 2629 706 
Q 2900 1003 2900 1516 
L 2900 3500 
L 3475 3500 
L 3475 0 
L 2900 0 
L 2900 538 
Q 2691 219 2414 64 
Q 2138 -91 1772 -91 
Q 1169 -91 856 284 
Q 544 659 544 1381 
z
M 1991 3584 
L 1991 3584 
z
" transform="scale(0.015625)"/>
     </defs>
     <use xlink:href="#DejaVuSans-63"/>
     <use xlink:href="#DejaVuSans-6f" x="54.980469"/>
     <use xlink:href="#DejaVuSans-6e" x="116.162109"/>
     <use xlink:href="#DejaVuSans-66" x="179.541016"/>
     <use xlink:href="#DejaVuSans-69" x="214.746094"/>
     <use xlink:href="#DejaVuSans-67" x="242.529297"/>
     <use xlink:href="#DejaVuSans-75" x="306.005859"/>
     <use xlink:href="#DejaVuSans-72" x="369.384766"/>
     <use xlink:href="#DejaVuSans-61" x="410.498047"/>
     <use xlink:href="#DejaVuSans-74" x="471.777344"/>
     <use xlink:href="#DejaVuSans-69" x="510.986328"/>
     <use xlink:href="#DejaVuSans-6f" x="538.769531"/>
     <use xlink:href="#DejaVuSans-6e" x="599.951172"/>
    </g>
   </g>
   <g id="patch_4">
    <path d="M 542.982188 115.349273 
L 570.342188 115.349273 
L 570.342188 87.989273 
L 542.982188 87.989273 
z
" clip-path="url(#p28d7034811)" style="fill: #f2f2f2"/>
   </g>
   <g id="patch_5">
    <path d="M 543.425301 114.906159 
L 569.899074 114.906159 
L 569.899074 88.432386 
L 543.425301 88.432386 
z
" clip-path="url(#p28d7034811)" style="fill: #fc8d59; stroke: #000000; stroke-width: 0.886227; stroke-linejoin: miter; stroke-linecap: square"/>
   </g>
   <g id="text_12">
    <!-- node2vec -->
    <g transform="translate(573.342188 105.863523) scale(0.152 -0.152)">
     <defs>
      <path id="DejaVuSans-76" d="M 191 3500 
L 800 3500 
L 1894 563 
L 2988 3500 
L 3597 3500 
L 2284 0 
L 1503 0 
L 191 3500 
z
" transform="scale(0.015625)"/>
     </defs>
     <use xlink:href="#DejaVuSans-6e"/>
     <use xlink:href="#DejaVuSans-6f" x="63.378906"/>
     <use xlink:href="#DejaVuSans-64" x="124.560547"/>
     <use xlink:href="#DejaVuSans-65" x="188.037109"/>
     <use xlink:href="#DejaVuSans-32" x="249.560547"/>
     <use xlink:href="#DejaVuSans-76" x="313.183594"/>
     <use xlink:href="#DejaVuSans-65" x="372.363281"/>
     <use xlink:href="#DejaVuSans-63" x="433.886719"/>
    </g>
   </g>
   <g id="patch_6">
    <path d="M 542.982188 144.709273 
L 570.342188 144.709273 
L 570.342188 117.349273 
L 542.982188 117.349273 
z
" clip-path="url(#p3724e9d6c1)" style="fill: #f2f2f2"/>
   </g>
   <g id="patch_7">
    <path d="M 543.425301 144.266159 
L 569.899074 144.266159 
L 569.899074 117.792386 
L 543.425301 117.792386 
z
" clip-path="url(#p3724e9d6c1)" style="fill: #ffffbf; stroke: #000000; stroke-width: 0.886227; stroke-linejoin: miter; stroke-linecap: square"/>
   </g>
   <g id="text_13">
    <!-- low awareness -->
    <g transform="translate(573.342188 135.223523) scale(0.152 -0.152)">
     <defs>
      <path id="DejaVuSans-6c" d="M 603 4863 
L 1178 4863 
L 1178 0 
L 603 0 
L 603 4863 
z
" transform="scale(0.015625)"/>
     </defs>
     <use xlink:href="#DejaVuSans-6c"/>
     <use xlink:href="#DejaVuSans-6f" x="27.783203"/>
     <use xlink:href="#DejaVuSans-77" x="88.964844"/>
     <use xlink:href="#DejaVuSans-20" x="170.751953"/>
     <use xlink:href="#DejaVuSans-61" x="202.539062"/>
     <use xlink:href="#DejaVuSans-77" x="263.818359"/>
     <use xlink:href="#DejaVuSans-61" x="345.605469"/>
     <use xlink:href="#DejaVuSans-72" x="406.884766"/>
     <use xlink:href="#DejaVuSans-65" x="445.748047"/>
     <use xlink:href="#DejaVuSans-6e" x="507.271484"/>
     <use xlink:href="#DejaVuSans-65" x="570.650391"/>
     <use xlink:href="#DejaVuSans-73" x="632.173828"/>
     <use xlink:href="#DejaVuSans-73" x="684.273438"/>
    </g>
   </g>
   <g id="patch_8">
    <path d="M 542.982188 174.069273 
L 570.342188 174.069273 
L 570.342188 146.709273 
L 542.982188 146.709273 
z
" clip-path="url(#pc9ecc7faed)" style="fill: #f2f2f2"/>
   </g>
   <g id="patch_9">
    <path d="M 543.425301 173.626159 
L 569.899074 173.626159 
L 569.899074 147.152386 
L 543.425301 147.152386 
z
" clip-path="url(#pc9ecc7faed)" style="fill: #91bfdb; stroke: #000000; stroke-width: 0.886227; stroke-linejoin: miter; stroke-linecap: square"/>
   </g>
   <g id="text_14">
    <!-- high awareness -->
    <g transform="translate(573.342188 164.583523) scale(0.152 -0.152)">
     <use xlink:href="#DejaVuSans-68"/>
     <use xlink:href="#DejaVuSans-69" x="63.378906"/>
     <use xlink:href="#DejaVuSans-67" x="91.162109"/>
     <use xlink:href="#DejaVuSans-68" x="154.638672"/>
     <use xlink:href="#DejaVuSans-20" x="218.017578"/>
     <use xlink:href="#DejaVuSans-61" x="249.804688"/>
     <use xlink:href="#DejaVuSans-77" x="311.083984"/>
     <use xlink:href="#DejaVuSans-61" x="392.871094"/>
     <use xlink:href="#DejaVuSans-72" x="454.150391"/>
     <use xlink:href="#DejaVuSans-65" x="493.013672"/>
     <use xlink:href="#DejaVuSans-6e" x="554.537109"/>
     <use xlink:href="#DejaVuSans-65" x="617.916016"/>
     <use xlink:href="#DejaVuSans-73" x="679.439453"/>
     <use xlink:href="#DejaVuSans-73" x="731.539062"/>
    </g>
   </g>
  </g>
 </g>
 <defs>
  <clipPath id="pfb058e5b44">
   <rect x="75.582188" y="8.595054" width="446.4" height="221.76"/>
  </clipPath>
  <clipPath id="p28d7034811">
   <path d="M 542.982188 115.349273 
L 542.982188 87.989273 
L 570.342188 87.989273 
L 570.342188 115.349273 
"/>
  </clipPath>
  <clipPath id="p3724e9d6c1">
   <path d="M 542.982188 144.709273 
L 542.982188 117.349273 
L 570.342188 117.349273 
L 570.342188 144.709273 
"/>
  </clipPath>
  <clipPath id="pc9ecc7faed">
   <path d="M 542.982188 174.069273 
L 542.982188 146.709273 
L 570.342188 146.709273 
L 570.342188 174.069273 
"/>
  </clipPath>
 </defs>
</svg>
